STARTFONT 2.3
FONT -FontForge-Henny Penny-Book-R-Normal--32-320-72-72-P-184-ISO10646-1
SIZE 32 72 72  4
FONTBOUNDINGBOX 45 56 -5 -20
COMMENT "Generated by fontforge, http://fontforge.sourceforge.net"
COMMENT "Copyright (c) 2012, Brownfox (gayaneh.b@gmail.com), with Reserved Font Name "Henny Penny""
STARTPROPERTIES 40
FOUNDRY "FontForge"
FAMILY_NAME "Henny Penny"
WEIGHT_NAME "Book"
SLANT "R"
SETWIDTH_NAME "Normal"
ADD_STYLE_NAME ""
PIXEL_SIZE 32
POINT_SIZE 320
RESOLUTION_X 72
RESOLUTION_Y 72
SPACING "P"
AVERAGE_WIDTH 184
CHARSET_REGISTRY "ISO10646"
CHARSET_ENCODING "1"
FONTNAME_REGISTRY ""
CHARSET_COLLECTIONS "ISO10646-1"
BITS_PER_PIXEL 4
FONT_NAME "HennyPenny-Regular"
FACE_NAME "Henny Penny"
COPYRIGHT "Copyright (c) 2012, Brownfox (gayaneh.b@gmail.com), with Reserved Font Name "Henny Penny""
FONT_VERSION "1.001"
FONT_ASCENT 26
FONT_DESCENT 6
UNDERLINE_POSITION -3
UNDERLINE_THICKNESS 2
X_HEIGHT 19
CAP_HEIGHT 24
RAW_ASCENT 799
RAW_DESCENT 200
NORM_SPACE 9
RELATIVE_WEIGHT 40
RELATIVE_SETWIDTH 50
SUPERSCRIPT_X 0
SUPERSCRIPT_Y 11
SUPERSCRIPT_SIZE 19
SUBSCRIPT_X 0
SUBSCRIPT_Y 2
SUBSCRIPT_SIZE 19
AVG_LOWERCASE_WIDTH 164
AVG_UPPERCASE_WIDTH 230
ENDPROPERTIES
CHARS 233
STARTCHAR space
ENCODING 32
SWIDTH 270 0
DWIDTH 9 0
BBX 1 1 0 0
BITMAP
00
ENDCHAR
STARTCHAR exclam
ENCODING 33
SWIDTH 249 0
DWIDTH 8 0
BBX 6 31 1 -1
BITMAP
08ED30
2FFFD0
5FFFF2
4FFFF3
3FFFF4
1FFFF4
0DFFF3
0BFFF2
09FFF1
06FFF0
04FFE0
02FFD0
00FFB0
00EFA0
00CF80
00BF70
00AF50
009F30
008F10
008E00
007C00
007A00
007700
005200
000000
000000
000000
08EC20
2FFFA0
2FFFA0
07ED30
ENDCHAR
STARTCHAR quotedbl
ENCODING 34
SWIDTH 292 0
DWIDTH 9 0
BBX 7 12 1 15
BITMAP
00003E60
2E807FA0
6FC08FA0
5FC08FA0
4FC07F90
2FC07F80
0FB06F70
0CB05F50
0AA04F40
08A02F20
05901E00
01600800
ENDCHAR
STARTCHAR numbersign
ENCODING 35
SWIDTH 1030 0
DWIDTH 33 0
BBX 31 36 1 -10
BITMAP
00000000000000001800000000000000
00000000000000007800000000000000
0000000000000000D300000000000000
0000000000000004C000010000000000
000000000000000A60003B0000000000
000000000000001E1000A70000000000
00000000000000790002E10000000000
00000000000000D30008900000000000
00000000000004C0001E200000000000
1554432210002C80009B000000000000
2789AABCCDFFFFE98AFA321110000000
000000000007FC445FE877789BCEED30
000000000006E1004F40000000000100
00000000000A9000AC00000000000000
00000000001F3001F500000000000000
00000000007C0007D000000000000000
0000000001E6000E6000000000000000
0000000007F1007E000257ACE4000000
000000003EC679FFCCCA865300000000
02568ABDFFFECFF73000000000000000
2FFDCA89FE201F900000000000000000
00000007F7005F200000000000000000
0000000DE100CB000000000000000000
0000006F9003F4000000000000000000
000000DF200AD0000000000000000000
000005FB002F70000000000000000000
00000BF4008E10000000000000000000
00002FC001E900000000000000000000
00007F5006F300000000000000000000
0000AC000CC000000000000000000000
000021004F6000000000000000000000
00000000AE0000000000000000000000
00000002F80000000000000000000000
00000008F20000000000000000000000
0000000DA00000000000000000000000
0000000A200000000000000000000000
ENDCHAR
STARTCHAR dollar
ENCODING 36
SWIDTH 799 0
DWIDTH 26 0
BBX 20 36 3 -7
BITMAP
00000000000005000000
0000000000003A000000
000000000000680000A1
00000000000095000990
000000028CEFFC97BF30
0000005EFB31D8FFFD00
000004FFE101D04FF900
00000CFFA004A009F600
00002FFFA0077004F300
00003FFFD00A4001F100
00004FFFF50D1000D000
00001FFFFD2E00009000
00000CFFFFDB00001000
000005FFFFFA00000000
000000BFFFFF70000000
0000001DFFFFF5000000
00000003EFFFFE200000
000000003EFFFFD10000
0000000008FFFFF90000
000000000AAFFFFF3000
000000000D27FFFFA000
002600001D00BFFFF100
005700005A002FFFF400
0077000087000AFFF600
00A80000B30005FFF600
00EA0000E00002FFF400
03FE0002C00002FFF100
08FF5006900003FFC000
1EFFD009500008FF4000
6B49FA0D20003EF80000
A1004DDE1027EF700000
1000009EEFEB71000000
00000096000000000000
000000C3000000000000
000001D0000000000000
00000380000000000000
ENDCHAR
STARTCHAR percent
ENCODING 37
SWIDTH 789 0
DWIDTH 25 0
BBX 25 30 0 0
BITMAP
00006CEFD920000000001B1000
001BFA219FE300000000990000
008FE1000CFD00000005E10000
00EFC00006FF5000002E600000
03FFC00002FF800000BB000000
04FFD00001FF900008E2000000
03FFE00001FF80004F60000000
00EFF30002FF4001DA00000000
008FFA0006FC000AD100000000
000BFF813ED2006F4000000000
00006CEEC71003F80000000000
0000000000001DC00000000000
0000000000009E200000000000
000000000005F6000000000000
00000000002EA0000000000000
0000000000CD10000000000000
0000000008F300000000000000
000000004F700004AEFEA40000
00000001DB00009FC314DF8000
0000000AE10008FE10003FF700
0000005F40002FF800000DFE10
000002E800007FF400000AFF40
00000BC00000AFF200000AFF60
00007E200000AFF200000AFF50
0003F50000009FF300000CFF30
001D900000006FF600000EFD00
009D100000001EFD00006FF400
04F30000000004EFA215EE5000
0D70000000000029DFEC820000
4A000000000000000000000000
ENDCHAR
STARTCHAR ampersand
ENCODING 38
SWIDTH 773 0
DWIDTH 25 0
BBX 24 31 1 -3
BITMAP
0000004AEFD7000000000000
000009E5218FA00000000000
00007F30000DF10000000000
0001EA00000CF30000000000
0006F600001FF20000000000
0008F500008FD00000000000
0009F70003FF600000000000
0009F8002EFC000000000000
0007FC02DFE2000000000000
0006FF3DFF40000000000000
0003FFFFF6000000003D1000
0000EFFF8000000004EF4000
0002EFFA000000029FFF5000
001DFFFB000015AFFFFF4000
00BFFFFF4009C95218FF3000
06FFFCFFC000000001FF2000
0EFFF2DFF700000000DE0000
5FFF905FFE20000000EB0000
AFFF500CFFC0000001F70000
DFFF3003FFF8000004F30000
EFFF30007FFF400009C00000
DFFF40000CFFE3001F500000
BFFF600002EFFE309C000000
6FFFB000004FFFE8E2000000
0DFFF4000007FFFF80000071
03EFFD2000009FFFF70002B0
003DFFE72016DDFFFFB43D50
00005ADEFEC820BFFFFFFC00
000000000000001BFFFFF400
00000000000000009FFFA000
000000000000000005CC1000
ENDCHAR
STARTCHAR quotesingle
ENCODING 39
SWIDTH 174 0
DWIDTH 6 0
BBX 3 10 1 15
BITMAP
2E90
5FE0
4FE0
3FE0
1FD0
0DD0
0AC0
07B0
03A0
0060
ENDCHAR
STARTCHAR parenleft
ENCODING 40
SWIDTH 431 0
DWIDTH 14 0
BBX 14 46 0 -14
BITMAP
00000008000000
00000098000000
000005E1000000
00001E80000000
00008F20000000
0002FB00000000
0008F600000000
001EF200000000
006FD000000000
00BFA000000000
01FF7000000000
05FF4000000000
09FF2000000000
0DFF1000000000
1FFE0000000000
3FFD0000000000
5FFC0000000000
7FFB0000000000
8FFB0000000000
9FFB0000000000
9FFB0000000000
9FFC0000000000
9FFD0000000000
8FFE0000000000
6FFF1000000000
4FFF4000000000
1FFF7000000000
0DFFA000000000
09FFE000000000
05FFF300000000
01FFF800000000
00AFFD00000000
004FFF40000000
000CFFA0000000
0004FFF2000000
0000BFF9000000
00003FFF200000
000008FF900000
000000CFF30000
0000002EFC0000
00000004FF7000
000000006FF300
0000000007FD10
00000000005FC1
000000000003C9
00000000000001
ENDCHAR
STARTCHAR parenright
ENCODING 41
SWIDTH 443 0
DWIDTH 14 0
BBX 14 32 0 -8
BITMAP
00CB6000000000
002CFD50000000
00009FFA100000
000008FFD20000
0000009FFD2000
0000000CFFC000
00000003FFF700
00000000AFFE10
000000003FFF80
000000000CFFE0
0000000007FFF4
0000000003FFF7
0000000000FFFB
0000000000DFFC
0000000000BFFD
0000000000BFFD
0000000000BFFC
0000000000CFFB
0000000000EFF8
0000000001FFF4
0000000005FFE0
000000000AFF90
000000001FFF20
000000008FF800
00000002EFD000
0000000CFE3000
000000AFF40000
00000AFE400000
0002CFD2000000
018FE810000000
6ED82000000000
12000000000000
ENDCHAR
STARTCHAR asterisk
ENCODING 42
SWIDTH 490 0
DWIDTH 16 0
BBX 13 15 1 15
BITMAP
00000041000000
000008FA000000
000008FE000000
000005FF000770
000001EF109FE0
0000009F24FF60
3BA7203F4CF600
6FFFFB4CBC3000
069AAAAFD00000
000002BCEA1000
00007FD17FD300
0008FE301EFE20
000DD30006FFA0
0001100000AFA0
00000000000200
ENDCHAR
STARTCHAR plus
ENCODING 43
SWIDTH 440 0
DWIDTH 14 0
BBX 12 17 1 2
BITMAP
000000830000
000000A40000
000000A40000
000000A40000
000000A30000
000000A30000
000000B30000
001113E63573
4EFEEEFD9751
000000C70000
000000A80000
0000008A0000
0000006B0000
0000004D0000
0000002F0000
0000000F1000
000000040000
ENDCHAR
STARTCHAR comma
ENCODING 44
SWIDTH 251 0
DWIDTH 8 0
BBX 6 11 1 -6
BITMAP
08EE50
3FFFF2
5FFFF6
2FFFF6
07FFF4
009FF1
001FB0
002F40
007B00
02D200
094000
ENDCHAR
STARTCHAR hyphen
ENCODING 45
SWIDTH 436 0
DWIDTH 14 0
BBX 12 2 1 6
BITMAP
254210012331
29CDEFFFEEB2
ENDCHAR
STARTCHAR period
ENCODING 46
SWIDTH 238 0
DWIDTH 8 0
BBX 5 5 1 -1
BITMAP
07ED40
3FFFD0
5FFFF0
3FFFC0
08ED40
ENDCHAR
STARTCHAR slash
ENCODING 47
SWIDTH 690 0
DWIDTH 22 0
BBX 22 31 0 -1
BITMAP
0000000000000000000017
00000000000000000000B6
00000000000000000007D0
0000000000000000003F40
000000000000000001D900
000000000000000009D100
00000000000000005F4000
0000000000000002E80000
000000000000000CC00000
000000000000008F300000
00000000000004F6000000
0000000000001EA0000000
000000000000BD10000000
000000000007F400000000
00000000003F8000000000
0000000001DC0000000000
0000000009E20000000000
000000005F500000000000
00000002E9000000000000
0000000BD1000000000000
0000007F30000000000000
000003F600000000000000
00000DA000000000000000
00009D1000000000000000
0004F40000000000000000
001E800000000000000000
00AC000000000000000000
06E2000000000000000000
1E50000000000000000000
8A00000000000000000000
2000000000000000000000
ENDCHAR
STARTCHAR zero
ENCODING 48
SWIDTH 723 0
DWIDTH 23 0
BBX 23 23 0 2
BITMAP
000000059CEFEC9500000000
000006DE831126CFD5000000
0001AFC200000006FFA00000
000BFD10000000006FFB0000
009FF400000000000BFF8000
03FFC0000000000003FFF300
0BFF70000000000000DFFA00
1FFF300000000000008FFF10
5FFF100000000000005FFF60
8FFF000000000000003FFF90
9FFE000000000000001FFFB0
9FFF000000000000001FFFC0
8FFF100000000000000FFFB0
6FFF300000000000000FFFA0
4FFF600000000000001FFF80
0EFFA00000000000003FFF40
08FFE10000000000006FFD00
02EFF7000000000000BFF700
006FFE100000000002FFC000
0009FFC1000000000AFE2000
00007FFC200000008FD20000
000003BFE942025CF8100000
000000038CEFEDB620000000
ENDCHAR
STARTCHAR one
ENCODING 49
SWIDTH 505 0
DWIDTH 16 0
BBX 16 30 0 -3
BITMAP
0000000730000000
0000000D70000000
0000004F90000000
000000CFC0000000
000006FFE0000000
00003EFFF2000000
0002EFFFF4000000
004ECDFFF6000000
08C300DFF9000000
A600008FFB000000
0000004FFE000000
0000002FFF100000
0000000EFF300000
0000000CFF600000
0000000AFF900000
00000009FFB00000
00000007FFE00000
00000006FFF20000
00000005FFF40000
00000003FFF70000
00000002FFFA0000
00000001FFFE0000
00000001FFFF3000
00000001FFFFA000
00000004FFFFF800
0000000BFFFFFFE8
000003CFD9531011
0002AFA400000000
003E920000000000
0010000000000000
ENDCHAR
STARTCHAR two
ENCODING 50
SWIDTH 534 0
DWIDTH 17 0
BBX 17 29 0 -3
BITMAP
000039DEEC82000000
0008FFFFFFFF600000
009FFFFFFFFFF60000
05FC5113AFFFFE1000
0DC1000009FFFF5000
3F30000001EFFF8000
7A00000000AFFFA000
A5000000008FFF9000
B2000000008FFF6000
C0000000009FFF1000
8000000000CFFA0000
0000000001FFF30000
0000000007FF800000
000000000EFD100000
000000008FE2000000
00000003FF40000000
0000002EF400000000
000001DE4000000000
00002DD30000000000
0003EB100000000000
007E70000000000000
2CFE40000000000000
05DFFA3000000000A0
0006DFFB5000000670
000007EFFE95117D00
0000001AFFFFFFF400
000000005EFFFF9000
0000000002BFFE1000
000000000006E50000
ENDCHAR
STARTCHAR three
ENCODING 51
SWIDTH 511 0
DWIDTH 16 0
BBX 17 26 0 -2
BITMAP
05CA74100000000000
08FFFFFFDCCBA30000
07FFFFFFFFFFF20000
07FF8310126F800000
06F6000000AC000000
06C0000005E2000000
076000001E40000000
06100000B700000000
00000008A000000000
0000005E2000000000
0000006EFC61000000
00000001AFFE500000
0000000005FFF90000
00000000004FFF9000
000000000008FFF500
700000000001EFFC00
B000000000009FFF20
E100000000007FFF40
C600000000008FFF50
8D0000000000AFFF40
4F8000000001EFFF10
0CF80000000AFFFB00
04FFC62014BFFFF300
007FFFFFFFFFFF7000
0006EFFFFFFFF70000
000017BEFEC8100000
ENDCHAR
STARTCHAR four
ENCODING 52
SWIDTH 712 0
DWIDTH 23 0
BBX 23 31 0 -4
BITMAP
0000000000000C2000000000
0000000000009C0000000000
000000000005F80000000000
00000000003EF50000000000
0000000001DFF40000000000
000000000BFFF50000000000
00000000A7BFF60000000000
00000009607FF80000000000
00000087004FFB0000000000
00000880001FFE0000000000
00008A00000EFF3000000000
0008C100000BFF6000000000
008E20000009FF9000000000
09F600000006FFD000000000
8FFB20000004FFF100000000
5DFFE9200001FFF500000000
004AFFFB5000EFF900000000
000017DFFE82CFFD00000300
00000004AFFFFFFF30009300
00000000029FFFFFFDACB000
0000000000029FFFFFFF3000
0000000000001FFFFFFB0000
0000000000000DFFB3930000
0000000000000AFFE0000000
00000000000008FFF3000000
00000000000005FFF7000000
00000000000004FFFC000000
00000000000009FFFF400000
000000000039CCDEFFD10000
000000000000000026AD4000
000000000000000000016940
ENDCHAR
STARTCHAR five
ENCODING 53
SWIDTH 757 0
DWIDTH 24 0
BBX 25 31 0 -3
BITMAP
00000000000000000000000320
0000000000004E810000001D20
000000000000DFFE7000009C00
000000000006FFFFFD7107F700
00000000000D58FFFFFFEFF100
000000000069003DFFFFFF9000
0000000000C100019FFFFF2000
000000000760000005EFFA0000
000000001C000000001AE20000
00000000750000000000000000
00000001C00000000000000000
00000008FFDB84000000000000
0000000AFFFFFFD60000000000
0000000015AFFFFFB100000000
000000000002AFFFFC00000000
00000000000006FFFF80000000
047000000000009FFFE1000000
0D2000000000001FFFF5000000
4B0000000000000BFFF8000000
8700000000000009FFF9000000
B500000000000008FFF8000000
C400000000000009FFF7000000
C40000000000000BFFF4000000
B60000000000000EFFE0000000
9A0000000000004FFF90000000
5E200000000000BFFF20000000
0DB00000000006FFF800000000
05FB100000005FFFC000000000
007FE841015BFFFB1000000000
0005EFFFFFFFFE700000000000
000006ADEEDB61000000000000
ENDCHAR
STARTCHAR six
ENCODING 54
SWIDTH 598 0
DWIDTH 19 0
BBX 19 25 0 0
BITMAP
00000015ADEEDA400000
000005DFC51026CC2000
00009FF900000008E300
0008FFB0000000008D10
004FFF20000000000C60
00DFFB00000000000390
05FFF600000000000000
0BFFF204ADFEC8200000
0EFFF2AB41138FF80000
3FFFED90000004FFA000
6FFFFD000000006FF600
7FFFF6000000000EFE00
8FFFF10000000009FF50
8FFFD00000000006FF80
7FFFB00000000003FFB0
5FFFA00000000003FFC0
2FFFB00000000002FFB0
0EFFC00000000003FFA0
09FFE00000000005FF60
02FFF30000000008FF20
008FF9000000000CFA00
001CFF300000004FE200
0001CFE2000002DF4000
000008FE83116ED30000
00000017BEFEB6000000
ENDCHAR
STARTCHAR seven
ENCODING 55
SWIDTH 507 0
DWIDTH 16 0
BBX 17 27 0 -2
BITMAP
000000000000000310
76532100012469DD00
EFFFFFFFFFFFFFF500
BFFFFFFFFFFFFFB000
8FD20247BFFFFF2000
6F400000015CF90000
5F0000000003F20000
3C0000000009900000
39000000002F200000
2700000000AA000000
2400000003F4000000
000000000BD0000000
000000003F70000000
00000000BF10000000
00000004FB00000000
0000000BF600000000
0000003FF200000000
000000AFE000000000
000001FFB000000000
000007FF8000000000
00000DFF5000000000
00004FFF3000000000
0000AFFF2000000000
0001EFFF1000000000
0005FFFF1000000000
0009FFDB0000000000
000640000000000000
ENDCHAR
STARTCHAR eight
ENCODING 56
SWIDTH 476 0
DWIDTH 15 0
BBX 16 26 0 -1
BITMAP
00003ADFEC700000
0009FFD4117C1000
008FFF3000089000
02FFFC000002E000
07FFFA000000F100
09FFFC000001E000
09FFFF200005A000
06FFFFA0000D3000
02FFFFF900A60000
009FFFFFDC600000
001CFFFFFE400000
0001BFFFFFF70000
00008FFFFFFF8000
002CFA7AEFFFF500
01DF40001AFFFE10
0AF60000008FFF70
3FC00000000BFFC0
8F7000000003FFE0
BF4000000000CFF1
CF30000000009FF0
BF40000000009FC0
8F7000000000BF70
2FD100000001EE10
07FA0000000AF400
007FD62014BE4000
00028CEFEB710000
ENDCHAR
STARTCHAR nine
ENCODING 57
SWIDTH 601 0
DWIDTH 19 0
BBX 19 24 0 0
BITMAP
000017BEFEDA50000000
0007FE62027EFD600000
00AFE2000003EFF90000
07FF700000005FFF8000
1EFF100000000CFFF400
5FFD0000000006FFFC00
9FFB0000000002FFFF30
AFFB0000000000EFFF70
AFFB0000000000DFFFB0
8FFD0000000000CFFFC0
5FFF1000000000CFFFD0
1EFF7000000000EFFFD0
07FFE100000003FFFFC0
00AFFC1000000BFFFFB0
0008FFE72014BEFFFF80
000028BEFED953FFFF40
00000000000004FFFE00
00000000000008FFF800
0000000000001EFFF100
0000000000008FFF6000
000000000006FFFA0000
09C7421025BFFF900000
01AFFFFFFFFFD5000000
00038CEFED9500000000
ENDCHAR
STARTCHAR colon
ENCODING 58
SWIDTH 246 0
DWIDTH 8 0
BBX 6 16 1 -1
BITMAP
07ED50
3FFFE0
5FFFF1
3FFFD0
08ED40
000000
000000
000000
000000
000000
000000
03CE70
0CFFF2
0EFFF3
0CFFF1
04DE60
ENDCHAR
STARTCHAR semicolon
ENCODING 59
SWIDTH 266 0
DWIDTH 9 0
BBX 6 20 1 -6
BITMAP
01BEC2
09FFFB
0CFFFD
09FFF9
02BEB1
000000
000000
000000
000000
000000
000000
05DE90
1FFFF6
2FFFF9
0AFFF7
00BFF2
004F80
009C00
06C100
3A1000
ENDCHAR
STARTCHAR less
ENCODING 60
SWIDTH 522 0
DWIDTH 17 0
BBX 15 16 1 2
BITMAP
0000000000001200
000000000005E400
00000000019E5000
000000003DC20000
00000018F8000000
000005DC30000000
0002BE7000000000
018FA20000000000
2DF9000000000000
18EF910000000000
0018FE7100000000
000029FE70000000
0000003BFD600000
000000004CFC3000
00000000005CF800
0000000000003710
ENDCHAR
STARTCHAR equal
ENCODING 61
SWIDTH 655 0
DWIDTH 21 0
BBX 19 6 1 6
BITMAP
00001346789BCDDEFE30
2ADFFFDCA97653221000
15431000000000000000
00000000000000000000
00000000000000000000
3EFFEEEDDDCCCBB91000
ENDCHAR
STARTCHAR greater
ENCODING 62
SWIDTH 533 0
DWIDTH 17 0
BBX 14 17 1 1
BITMAP
37100000000000
07D60000000000
003CC300000000
00008F91000000
000003CE600000
00000006EC3000
000000002AF910
00000000005EE5
000000000003FE
00000000002CE3
0000000004EC20
000000008F8000
0000003CD40000
000006E9100000
0001BD40000000
001D8100000000
00010000000000
ENDCHAR
STARTCHAR question
ENCODING 63
SWIDTH 564 0
DWIDTH 18 0
BBX 18 30 0 -3
BITMAP
000004ADEFEB710000
0002CD51028FFE7000
002EC0000004FFF800
00CF400000009FFF40
06FF200000004FFFA0
0CFF500000002FFFE0
2FFFB00000001FFFF1
4FFFF70000002FFFF1
5FFFFF3000006FFFE0
3FFFFFA00000BFFFA0
1EFFFFD00004FFFF30
09FFFFA0001DFFF800
019EEA1000BFFFA000
000000001BFFF70000
00000001BFFD300000
0000002CFE70000000
000002DFA200000000
00001DE50000000000
00009D200000000000
0002F3000000000000
0006C0000000000000
0007B0060000000000
0003F3290000000000
00007ED30000000000
000000000000000000
000000000000000000
00001CE70000000000
00006FFF1000000000
00005FFF2000000000
00000AE90000000000
ENDCHAR
STARTCHAR at
ENCODING 64
SWIDTH 898 0
DWIDTH 29 0
BBX 27 32 1 -9
BITMAP
000000000048BDEEDC8400000000
000000006DC74101248DD5000000
0000002CC400000000005E900000
000004E700000000000002CA0000
00003E50000000000000001E6000
0001D5000000000000000004E100
000A90000000000000110000C600
004E1000000000008FFC00005C00
00B6000005BEED81AFFC00002F00
02E10002CFA303BECFFB00000D30
0790001DFA00000CFFFA00000B50
0C5000AFF2000005FFF900000A60
0F2002FFB0000000EFF700000A70
2E0008FF80000000CFF600000A60
4C000BFF70000000AFF600000B50
5B000EFF70000000AFF500000D40
6B000FFF90000000BFF500001F10
5B000EFFA0000000DFF600005D00
4C000DFFD0000001EFF70000B800
3D0009FFF40000068FFB0005F200
2F0003FFFC00001D2AFF515EA000
0E30009FFFB313C902EFFFFC1000
0A70000AFFFFFFB0002AEE910000
06B000005BEFD600000000000000
01E20000000003CEA10000000000
00A9000000000BFFF80000000000
002E300000000AFFFC0000000000
0008D100000002DFFC0000000000
0000BB100000001EF80000000000
00001BD30000000DE20000000000
0000007FA41015BE400000000000
000000028CEFEB71000000000000
ENDCHAR
STARTCHAR A
ENCODING 65
SWIDTH 784 0
DWIDTH 25 0
BBX 26 29 0 -3
BITMAP
00000000000089000000000000
00000000004CFF100000000000
000000136BFFFF600000000000
000007EDBDFFFFB00000000000
0000000002FEFFF10000000000
0000000003E4FFF60000000000
0000000007A0DFFB0000000000
000000000B508FFF1000000000
000000001E104FFF6000000000
000000005A000EFFB000000000
00000000A6000AFFF100000000
00000000E10006FFF600000000
00000005B00002FFFB00000000
00000009D83000DFFF10000000
0000000E58DD96EFFF60000000
0000005D00038EFFFFC0000000
000000A80000019FFFF2000000
000001F30000000CFFF7000000
000006D000000005FFFC000000
00000C9000000001EFFF200000
00003F4000000000AFFF700000
0000AE00000000006FFFD00000
0027FC00000000001FFFF30000
DFFFFE10000000000CFFF90000
0147CFD60000000008FFFE1000
0000027A0000000004FFFF9000
000000000000000004FFFFF930
00000000000000026EFFFFFFF7
000000000000006DA743100000
ENDCHAR
STARTCHAR B
ENCODING 66
SWIDTH 685 0
DWIDTH 22 0
BBX 22 32 0 -5
BITMAP
0000000147BDEEC9300000
5BBAAACC31126EFFF70000
004DFFFC000003EFFF3000
0001DFFD0000008FFF9000
00006FFE0000004FFFC000
00002FFF0000002FFFB000
00000EFF1000001FFF9000
00000DFF2000003FFF2000
00000BFF3000008FF80000
00000AFF400003FF900000
00000AFF50004ED5000000
000009FF626BE810000000
000009FFEB98AEEB500000
000009FF8000007FFD3000
000008FF90000005FFF500
000009FF900000009FFE20
000009FFB00000002FFFA0
000009FFC00000000CFFF1
000009FFD000000009FFF5
000009FFE000000007FFF7
000009FFF000000007FFF7
000009FFF100000007FFF6
000009FFF200000009FFF4
00000AFFF30000000CFFE0
00000BFFF50000001FFF80
00000DFFF80000008FFD10
00001FFFFD000003FFE300
00008FFFFFB2027EFB2000
0006FFFEEEFFFEC9300000
02BFA51000000000000000
5EA2000000000000000000
9400000000000000000000
ENDCHAR
STARTCHAR C
ENCODING 67
SWIDTH 742 0
DWIDTH 24 0
BBX 24 31 0 -3
BITMAP
000000000000000000009100
00000000000000000000C100
00000000000000000000E100
00000000000000000001F100
00000000000000000007F100
000000027ACEFEDB98AFF200
000002AFFB620125BFFFF300
00006FFF5000000004EFF600
0008FFF400000000001DF900
005FFF90000000000002ED00
01EFFF100000000000004F20
08FFFA000000000000000650
0DFFF6000000000000000000
4FFFF2000000000000000000
7FFFF1000000000000000000
AFFFF0000000000000000000
BFFFE0000000000000000000
CFFFF0000000000000000000
CFFFF0000000000000000000
CFFFF2000000000000000044
AFFFF5000000000000000066
8FFFF9000000000000000085
4FFFFD0000000000000000B3
0EFFFF5000000000000001E1
07FFFFC000000000000007B0
01DFFFF80000000000001E40
004FFFFF600000000001BC00
0005FFFFF9100000002CE200
00004DFFFFE8310149EE4000
0000018EFFFFFFFFFFB20000
0000000059CEFFEB83000000
ENDCHAR
STARTCHAR D
ENCODING 68
SWIDTH 726 0
DWIDTH 23 0
BBX 23 28 0 -6
BITMAP
0542223468ACEFEDA5000000
04BFFFFF931026DFFFD30000
0009FFFC00000008FFFF4000
0001EFF9000000008FFFE100
0000BFF8000000000DFFF900
00009FF80000000006FFFF10
00007FF80000000002FFFF50
00006FF80000000000DFFF80
00005FF90000000000BFFFA0
00004FFA0000000000AFFFB0
00003FFA0000000000AFFFB0
00003FFB0000000000BFFF90
00003FFC0000000000CFFF70
00003FFE0000000000FFFF30
00003FFF0000000003FFFD00
00003FFF2000000009FFF600
00003FFF500000001EFFB000
00004FFF900000009FFC1000
00005FFFE2000005FF910000
00007FFFFD51139E93000000
0000AFFFFFFFC84000000000
0001EFFFEA51000000000000
0007FFD71000000000000000
001EE7000000000000000000
00CB20000000000000000000
1B7000000000000000000000
B50000000000000000000000
100000000000000000000000
ENDCHAR
STARTCHAR E
ENCODING 69
SWIDTH 557 0
DWIDTH 18 0
BBX 18 29 0 -3
BITMAP
454333345679ACDE10
18FFFFFB642101AF00
00AFFFF40000003E00
003FFFF30000000D00
000EFFF40000000C00
000CFFF40000000800
0009FFF50000000000
0007FFF50000000000
0005FFF60000000000
0003FFF60000000000
0001FFF70001000000
0000FFF80008100000
0000DFF8002D000000
0000BFFFEEFE000000
0000AFFA13AD000000
00008FFB001D000000
00007FFC000C000000
00005FFD000A000000
00004FFE0000000000
00003FFF0000000000
00001FFF1000000000
00000FFF2000000000
00000EFF3000000005
00000DFF400000000B
00000DFF500000004B
00000CFF70000000BA
00003EFFA000004CF7
3EEEFFFFFECBCEFFF4
0000112345689BCDA0
ENDCHAR
STARTCHAR F
ENCODING 70
SWIDTH 533 0
DWIDTH 17 0
BBX 18 28 0 -1
BITMAP
000000000000026BE8
000000000148CFFFFA
00012469B641015FF7
6EFFFFFF70000009F4
004DFFFF50000008F1
0005FFFF60000008D0
0000FFFF6000000980
0000CFFF7000000B40
0000AFFF7000000900
00007FFF7002700000
00005FFF8006700000
00003FFF800B500000
00001FFF927F300000
00000EFFFFFF200000
00000CFF916F300000
00000BFFA00B300000
000009FFA008400000
000008FFB007400000
000006FFB003200000
000005FFC000000000
000004FFC000000000
000003FFD000000000
000002FFD000000000
000002FFE000000000
000002FFF000000000
000006FFF200000000
00137EFFFA10000000
1DFEDCBBCEE8000000
ENDCHAR
STARTCHAR G
ENCODING 71
SWIDTH 750 0
DWIDTH 24 0
BBX 25 25 0 -1
BITMAP
00000000000000000000000510
00000000000000000000004D00
0000000000000000000002E400
000000016ADEFEC840003D9000
0000029FFB520137DECCFE1000
00006EFE500000001BFFF70000
0008FFF40000000001EFE00000
006FFF700000000000AF800000
02EFFE0000000000008F200000
0AFFF80000000000009C000000
1FFFF300000000000095000000
6FFFF000000000000000000000
9FFFD000000000000000000000
BFFFC000000000000000379000
CFFFC0000000012358AEFB2000
CFFFD0000004EECCEFFFF10000
BFFFE000000000002EFFD00000
9FFFF100000000000AFFD00000
5FFFF4000000000008FFE00000
1EFFF9000000000009FFF00000
06FFFE10000000000BFFF20000
00AFFFA0000000002FFFF40000
001BFFF800000001CA56D60000
00007EFFD620137A3000010000
0000016BDFFEC8300000000000
ENDCHAR
STARTCHAR H
ENCODING 72
SWIDTH 743 0
DWIDTH 24 0
BBX 24 33 0 -4
BITMAP
062000000000000000000000
06EC73000000000000000000
001BFFFFFFFEC10000000000
0001FFFFA201100000000000
0000CFFF1000000000001697
0000BFFF00000012469CFA20
0000AFFE00001EEEFFFFF100
0000AFFE000000007FFFE000
00009FFE000000001FFFD000
00009FFE000000000DFFC000
00009FFE000000000BFFC000
00009FFE0000000009FFB000
00009FFE0000000008FFB000
00009FFE0000000008FFA000
00009FFE000000000BFFA000
00009FFF10001246AFFFA000
00009FFFECDEDCA9BFFF9000
00009FFFB52000000DFF9000
00009FFF100000000AFF9000
00009FFF0000000009FF8000
0000AFFF0000000007FF8000
0000AFFF1000000006FF8000
0000AFFF1000000005FF8000
0000BFFF1000000004FF8000
0000BFFF1000000003FF8000
0000BFFF1000000002FF8000
0000CFFF1000000001FF8000
0000CFFF2000000004FF9000
0000DFFF200000015DFFE300
0000EFFF200007FFFFFFFFC4
0007FFFF6000025431001242
59EFFFFFE500000000000000
985210136800000000000000
ENDCHAR
STARTCHAR I
ENCODING 73
SWIDTH 438 0
DWIDTH 14 0
BBX 18 34 -2 -7
BITMAP
049987665678ACDEFA
01348FFFFFFFD62000
000005FFFFFE100000
000000DFFFF6000000
000000AFFFF1000000
0000008FFFD0000000
0000008FFFA0000000
0000007FFF80000000
0000007FFF60000000
0000007FFF40000000
0000007FFF20000000
0000007FFF10000000
0000007FFE00000000
0000007FFD00000000
0000006FFC00000000
0000006FFA00000000
0000006FF900000000
0000006FF800000000
0000007FF700000000
0000007FF600000000
0000007FF500000000
0000007FF400000000
0000007FF300000000
0000007FF200000000
0000007FF100000000
0000008FF100000000
0000008FF100000000
0000009FF100000000
000000BFF300000000
000002FFFB30000000
00003DFFFFFFE10000
005BEA632100000000
5DA400000000000000
100000000000000000
ENDCHAR
STARTCHAR J
ENCODING 74
SWIDTH 628 0
DWIDTH 20 0
BBX 22 38 0 -8
BITMAP
0000000000000000000276
000000000000000037CD82
00000000012458AEFE6000
0000000AFFFFFFFFF30000
00000000028FFFFFA00000
000000000009FFFF700000
000000000003FFFF500000
000000000000EFFF400000
000000000000CFFF400000
000000000000AFFF400000
0000000000008FFF400000
0000000000006FFF400000
0000000000005FFF300000
0000000000004FFF300000
0000000000004FFF300000
0000000000003FFF200000
0000000000003FFF100000
0000000000003FFF000000
0000000000003FFE000000
0000000000003FFD000000
0000000000004FFB000000
0000000000004FFA000000
0000000000005FF8000000
0000000000007FF6000000
0000000000009FF3000000
000000000000AFF1000000
000000000000CFD0000000
000000000001FF90000000
000000000004FF40000000
029DEB400008FE00000000
1DFFFFE2000CF900000000
8FFFFFF5002FF200000000
CFFFFFF5008FA000000000
CFFFFFD001EE2000000000
AF3134100BF60000000000
5F1000009F800000000000
0AC3115CE6000000000000
006CEEC810000000000000
ENDCHAR
STARTCHAR K
ENCODING 75
SWIDTH 866 0
DWIDTH 28 0
BBX 29 30 0 -3
BITMAP
000000000540000000000000000000
0012246AE910027100000000000000
9FFFFFFF500001BFA6310000000000
014EFFFC0000001DFFFFEFE1000000
0008FFFA0000000AFD510000000000
0005FFF90000001EA0000000000000
0004FFF90000009A00000000000000
0003FFF9000006A000000000000000
0002FFFA00004B1000000000000000
0001FFFA0003D10000000000000000
0000FFFA002DC00000000000000000
0000EFFB01DFF20000000000000000
0000DFFB1CFFF80000000000000000
0000CFFC95FFFE1000000000000000
0000BFFF40CFFF8000000000000000
0000AFFC005FFFF200000000000000
00009FFC000DFFFA000000000C7000
00008FFC0004FFFF6000000002E600
00007FFC0000BFFFE2000000007E00
00006FFC00002EFFFD100000001F40
00005FFD000005FFFFD10000001F50
00004FFD0000008FFFFD3000005F50
00004FFE00000008FFFFFA4115EF20
00003FFF000000007FFFFFFFFFFA00
00003FFF1000000004DFFFFFFFC100
00004FFF400000000005ADFEC71000
0001BFFFA000000000000000000000
002EEEFFF700000000000000000000
000000037CC3000000000000000000
000000000012000000000000000000
ENDCHAR
STARTCHAR L
ENCODING 76
SWIDTH 660 0
DWIDTH 21 0
BBX 21 24 0 1
BITMAP
3EC9641000000000000000
0037EFFFDDDDFF50000000
00002FFFFFF62000000000
00000BFFFF900000000000
000008FFFF600000000000
000007FFFF400000000000
000006FFFF200000000000
000006FFFF000000000000
000005FFFE000000000000
000005FFFC000000000000
000004FFFB000000000000
000004FFFA000000000000
000004FFF9000000000000
000004FFF80000000A0000
000004FFF60000000D1000
000004FFF5000000095000
000004FFF500000006A000
000004FFF400000005E000
000004FFF300000004F500
000005FFF300000006FA00
000007FFF40000000BFF10
00000CFFFC310014BFFF60
0147CFFFFFFFFFFFFFFF70
07CB976432211100000000
ENDCHAR
STARTCHAR M
ENCODING 77
SWIDTH 1089 0
DWIDTH 35 0
BBX 36 25 0 -1
BITMAP
000000000000000000000000000000023000
000000000000000000000000002EFFFFB000
000000000000000000000000009FFB730000
00000000000000000000000001FF70000000
00000696321000000000000008FF30000000
0000028EFFFFB000000000001EFF30000000
00000001DFEFFA00000000006FFF50000000
000000005F4FFF7000000000BFFF70000000
000000001F39FFF4000000054DFF90000000
000000000E41EFFE1000000909FFC0000000
000000000C507FFFB000005406FFF0000000
000000000C600DFFF700009002FFF3000000
000000000B6005FFFF30054000EFF6000000
000000000B6000CFFFD1090000AFFA000000
000000000B60003FFFFB9400007FFE000000
000000000C50000AFFFFC000004FFF300000
000000000E400002EFFF5000001FFF700000
000000002F1000008FFC0000000DFFC00000
000000005E0000001DF50000000AFFF20000
3DE70000B900000004A000000008FFF80000
CFFF7004F4000000000000000005FFFF3000
FFFFF98ED0000000000000000007FFFFE720
DFFFFFFF4000000000000000004DFFFFFFFA
6FFFFFF60000000000000002AED963200110
06DFDA300000000000000001410000000000
ENDCHAR
STARTCHAR N
ENCODING 78
SWIDTH 799 0
DWIDTH 26 0
BBX 26 30 0 -7
BITMAP
00012342000000000000000000
CFFFFFFF600000000000013695
0027FFFFF6000000EEDDEFFB72
0000BFFFFF500000025DFF3000
00009FDFFFF500000004FA0000
00007E2DFFFF40000001F70000
00006D03EFFFE3000000E50000
00005D006FFFFE300000D40000
00005C0009FFFFD20000D40000
00004C0000CFFFFD1000E30000
00004C00002EFFFFC100F20000
00004C000005FFFFFC11F20000
00003C0000009FFFFFC7F10000
00003C0000000CFFFFFFF10000
00003D00000002EFFFFFF00000
00003D000000004FFFFFF00000
00003D0000000007FFFFF00000
00003D0000000000AFFFE00000
00003D00000000001CFFE00000
00003D000000000002EFD00000
00003D0000000000003EC00000
00003D00000000000004900000
00004D00000000000000000000
00005E00000000000000000000
00006F00000000000000000000
00009F20000000000000000000
0001EF60000000000000000000
014CFFE2000000000000000000
8FEDEFFE610000000000000000
00000149DE0000000000000000
ENDCHAR
STARTCHAR O
ENCODING 79
SWIDTH 747 0
DWIDTH 24 0
BBX 24 24 0 1
BITMAP
000000059CEFECA610000000
000006DE721138EFF9200000
0001AFD20000002CFFE40000
001CFE2000000001CFFF6000
009FF700000000002FFFF400
04FFE1000000000009FFFE10
0BFFA0000000000002FFFF70
2FFF70000000000000CFFFE0
6FFF400000000000008FFFF3
AFFF300000000000005FFFF7
BFFF200000000000003FFFF9
CFFF300000000000000FFFFA
CFFF300000000000000EFFFA
BFFF500000000000000EFFF9
9FFF800000000000000DFFF7
6FFFB00000000000000EFFF4
2FFFE00000000000001FFFE0
0BFFF60000000000004FFF80
04FFFC0000000000008FFE10
009FFF500000000001EFF600
001CFFE20000000009FF9000
0001AFFD300000007FF80000
000005DFF941025BFC400000
000000048CDEFEC840000000
ENDCHAR
STARTCHAR P
ENCODING 80
SWIDTH 623 0
DWIDTH 20 0
BBX 20 28 0 -4
BITMAP
00000002369BEFED9300
CFEEEEFFFFD4028FFF70
0025CFFFFF200009FFF3
00000CFFFB000003FFFA
000005FFF8000000EFFD
000002FFF7000000CFFE
000000FFF6000000DFFD
000000EFF5000000EFFB
000000EFF5000002FFF6
000000DFF5000007FFE1
000000EFF500002EFF50
000000EFF71015EFD400
000000EFFCDFFEB60000
000000FFF50000000000
000000FFF50000000000
000001FFF50000000000
000002FFF50000000000
000003FFF50000000000
000004FFF60000000000
000005FFF60000000000
000006FFF80000000000
000008FFF90000000000
000009FFFB0000000000
00000CFFFE0000000000
00002FFFFF4000000000
0000AFFFFFD100000000
002AFFFFFFFD61000000
1BB752101257ADC20000
ENDCHAR
STARTCHAR Q
ENCODING 81
SWIDTH 804 0
DWIDTH 26 0
BBX 37 38 0 -14
BITMAP
0000000049CDFEDB7200000000000000000000
0000006DA410149EFFB3000000000000000000
00002CE400000001AFFF900000000000000000
0003EF300000000007FFFB1000000000000000
001DF70000000000009FFFB000000000000000
00BFE00000000000000DFFF700000000000000
04FF8000000000000005FFFE10000000000000
0CFF4000000000000000DFFF70000000000000
2FFF10000000000000007FFFC0000000000000
6FFE00000000000000003FFFF0000000000000
9FFD00000000000000000EFFF3000000000000
BFFD00000000000000000CFFF4000000000000
CFFF00000000000000000BFFF4000000000000
CFFF10000000000000000AFFF3000000000000
BFFF40000000000000000BFFF2000000000000
AFFF80000000000000000BFFE0000000000000
7FFFC0000000019DFD810DFFB0000000000000
3FFFF30000001C612AFD3FFF80000000000000
0DFFFA000000870000AFFFFF20000000000000
06FFFF300000D200002FFFFA00000000000000
00DFFFD10001E000000BFFF200000000000000
003FFFFB1002C000000BFFA000000000000000
0005FFFFD303C000009FFFF100000000000000
00004EFFFFA7C0126DFFFFF800000000000000
0000018EFFFFFFFFFFA2DFFE00000000000000
000000016ADEFEDA6100AFFF40000000000000
000000000000000000007FFFA0000000000000
000000000000000000004FFFE1000000000000
000000000000000000001FFFF5000000000000
000000000000000000000CFFFB000000000070
0000000000000000000008FFFF300000000290
0000000000000000000003FFFFA00000000760
0000000000000000000000DFFFF40000000D30
00000000000000000000007FFFFE3000008C00
00000000000000000000001DFFFFE7203AF600
000000000000000000000004FFFFFFFFFFB000
0000000000000000000000004EFFFFFFFB1000
000000000000000000000000017CEFEB500000
ENDCHAR
STARTCHAR R
ENCODING 82
SWIDTH 869 0
DWIDTH 28 0
BBX 29 23 0 -1
BITMAP
00000000027CEEDA30000000000000
00012359CE6116EFF8000000000000
DFFFFFFFF600005FFF600000000000
025DFFFFE000000DFFD00000000000
0001EFFFB000000AFFF20000000000
00008FFFA0000009FFF40000000000
00004FFF8000000AFFF20000000000
00001FFF7000000DFFF10000000000
00000EFF7000003FFFA00000000000
00000BFF700000BFFF300000000000
00000AFF70001AFFF7000000000000
000008FF7137EFFE60000000000000
000007FFFFFFFFF300000000000000
000006FF8007FFFA00000000000000
000004FF9001FFFF30000000000000
000003FF90009FFFB0000000000620
000003FFB0002FFFF8000000000390
000002FFC00008FFFF7000000003B0
000002FFE00000CFFFFA10000008A0
000005FFF200002DFFFFE841028F70
00013DFFF8000002DFFFFFFFFFFE10
0CFFEDDFFF70000018EFFFFFFFE400
00000000259A20000017BDEFD92000
ENDCHAR
STARTCHAR S
ENCODING 83
SWIDTH 517 0
DWIDTH 17 0
BBX 18 31 -1 -4
BITMAP
000000000000000040
0000000000000000B0
000000017CEEC602B0
0000003DF8213BDD90
000001EF900000BF70
000008FF4000002F50
00000DFF3000000C30
00000FFF5000000820
00000FFFB000000300
00000DFFF500000000
000008FFFE10000000
000002FFFFC0000000
0000009FFFF9000000
0000001DFFFF800000
00000004FFFFF50000
000000006FFFFE3000
0000000009FFFFD100
0000000000CFFFF900
00000000002EFFFF40
000000000006FFFFB0
370000000000BFFFF2
1E00000000004FFFF7
0C50000000000DFFFA
09C00000000008FFFB
05F40000000004FFFA
02FC0000000003FFF8
01FF6000000004FFF4
00FFE300000007FFC0
00FFFE3000001EFE30
02F848E94114DFD300
03700016CEFEB60000
ENDCHAR
STARTCHAR T
ENCODING 84
SWIDTH 659 0
DWIDTH 21 0
BBX 22 33 0 -5
BITMAP
3EEC975422100001358CEC
5FFFFFFEEEEFFFFFFFFFFF
4FFD51000009FF20137EFF
2FF30000000AFF200003FE
0EE00000000BFF200000CC
0BE00000000BFF2000009A
08E00000000CFF20000087
04F10000000DFF20000062
00E30000000EFF20000000
00A60000000EFF20000000
004A0000000FFF20000000
000A0000001FFF20000000
00000000002FFF20000000
00000000002FFF20000000
00000000003FFF20000000
00000000004FFF20000000
00000000005FFF20000000
00000000005FFF20000000
00000000006FFF20000000
00000000007FFF20000000
00000000008FFF20000000
00000000008FFF20000000
00000000009FFF20000000
0000000000AFFF20000000
0000000000BFFF40000000
0000000000EFFF70000000
0000000003FFFFD1000000
000000000AFFFFFC420000
000000004FFFFFFEEFFC10
00000004EFB74100000000
0000007E82000000000000
0000099100000000000000
0000010000000000000000
ENDCHAR
STARTCHAR U
ENCODING 85
SWIDTH 690 0
DWIDTH 22 0
BBX 24 24 0 1
BITMAP
000000000000120000000000
00000000004AE60000000000
000000048DFA200000000000
02469CFFFF70000000000000
DFFFFFFFFA00000000000011
016FFFFFF3007EECBA9AB975
0008FFFFE0000037DFFF4000
0004FFFFB00000000BFD0000
0001FFFF9000000003FA0000
0001FFFF7000000000E90000
0000FFFF7000000000C80000
0000EFFF6000000000B80000
0000EFFF7000000000A80000
0000DFFF7000000000970000
0000CFFF9000000000970000
0000AFFFB000000000A50000
00008FFFD000000000C30000
00004FFFF200000000E10000
00000EFFF600000004C00000
000007FFFC0000000B600000
000001EFFF7000007E100000
0000004EFFF92029F6000000
00000004DFFFFFFF70000000
0000000016BEFEA400000000
ENDCHAR
STARTCHAR V
ENCODING 86
SWIDTH 798 0
DWIDTH 26 0
BBX 28 25 0 0
BITMAP
0000000000037500000000000000
000000136AD81000000000000000
AFEEEFFFFF500000000000000003
0025AFFFFF40000000000000008C
000006FFFF800000000000002BC1
0000007FFFE0000000000017EC10
0000000CFFF5000000137BFFD100
00000004FFFC00003EFFFFFE2000
00000000BFFF400000007FF60000
000000004FFFB00000004FB00000
000000000CFFF40000006F400000
0000000005FFFB000000AB000000
0000000000DFFF400000E4000000
00000000007FFFC00004C0000000
00000000001FFFF6000960000000
00000000000AFFFE101D00000000
000000000003FFFF807800000000
000000000000CFFFF6E100000000
0000000000006FFFFF9000000000
0000000000001EFFFF3000000000
00000000000009FFFC0000000000
00000000000002FFF60000000000
00000000000000BFE10000000000
000000000000004F800000000000
000000000000000A200000000000
ENDCHAR
STARTCHAR W
ENCODING 87
SWIDTH 1120 0
DWIDTH 36 0
BBX 41 28 -1 -3
BITMAP
000000000000000000000000000005500000000000
000000000000000000000000000003BEB753100000
00000000000000000000000000000003BFFFFFFFA0
000000000000000000000000000000000CFF931000
000000000000000000000000000000000BF9000000
000000000940000000000000000000000EE1000000
00000001B900000000000000000000004F70000000
0000006EE100000000000000000000009E10000000
00016DFFB00000000000000000000000E700000000
37BFFFFFC00000000000000000000004E100000000
8867EFFFE000000001A000000000000A9000000000
00002EFFF40000000AF800000000001F2000000000
000006FFF90000003FFF30000000007B0000000000
000000EFFE100000CEFFD000000000D40000000000
0000009FFF500005B3FFF800000005D00000000000
0000004FFFC0000D20BFFF3000000B600000000000
0000000EFFF40079004FFFC000003E100000000000
00000009FFFB01E2000DFFF70000A8000000000000
00000004FFFF4A900006FFFF3002E1000000000000
00000000EFFFFF200001EFFFC00A90000000000000
000000009FFFF80000009FFFF94F20000000000000
000000004FFFE10000002FFFFFFA00000000000000
000000000DFF800000000AFFFFF400000000000000
0000000008FE1000000003FFFFC000000000000000
0000000002F70000000000BFFF5000000000000000
00000000005000000000004FFC0000000000000000
00000000000000000000000CF50000000000000000
000000000000000000000004B00000000000000000
ENDCHAR
STARTCHAR X
ENCODING 88
SWIDTH 868 0
DWIDTH 28 0
BBX 29 26 0 -1
BITMAP
000000000000153000000000000000
0000001357ADFD4000000000000000
CFFFFFFFFFFFE10000160000000000
01247DFFFFFFD0000005C610000000
0000005EFFFFF10000002EFB851000
00000002EFFFF60000000CC3021000
000000002EFFFD0000001E20000000
0000000004FFFF6000007500000000
00000000008FFFE10001A000000000
00000000000CFFF800092000000000
000000000003FFFF30480000000000
0000000000009FFFE6D10000000000
0000000000002FFFFF900000000000
0000000000000CFFFF800000000000
0000000000001EFFFFD00000000000
0000000000009D2DFFF60000000000
000000000004E203FFFD0000000000
00000000001D50008FFF7000000000
0000000000AA00000DFFE100000000
0000000006E1000003FFFA00000000
000000004F700000009FFF40000000
00000005EE000000001EFFD1000000
000136CFFB0000000007FFFB000000
0CFFFFFFFC0000000127FFFFB20000
0001247BFF80000CFEEDEEFFFF9300
0000000017D7000000000002367810
ENDCHAR
STARTCHAR Y
ENCODING 89
SWIDTH 796 0
DWIDTH 26 0
BBX 29 32 0 -4
BITMAP
000000000384000000000000000000
0001247ADC60000000012000000000
7FFFFFFF800000000004EC85210000
016DFFFF6000000000001AFFFFFF30
0000AFFFE1000000000006F7200000
00000AFFFB00000000001D50000000
000000BFFF8000000000A600000000
0000001DFFF600000007A000000000
00000002EFFF5000004C1000000000
000000005FFFF40002D30000000000
0000000009FFFF502D600000000000
0000000000CFFFFADB000000000000
00000000003FFFFFE2000000000000
000000000008FFFF80000000000000
000000000001DFFF30000000000000
0000000000007FFF10000000000000
0000000000004FFF00000000000000
0000000000002FFF10000000000000
0000000000002FFF10000000000000
0000000000002FFF20000000000000
0000000000003FFF20000000000000
0000000000003FFF30000000000000
0000000000004FFF40000000000000
0000000000006FFF40000000000000
0000000000007FFF50000000000000
0000000000009FFF70000000000000
000000000000CFFF80000000000000
000000000002FFFFA0000000000000
00000000025DFFFFE0000000000000
00000005EFFFFFFFF8000000000000
0000000000001258BFC20000000000
000000000000000001420000000000
ENDCHAR
STARTCHAR Z
ENCODING 90
SWIDTH 627 0
DWIDTH 20 0
BBX 20 28 1 -4
BITMAP
26000000000000000000
2FD8521001358B300000
1FFFFFFFFFFFFE100000
1FF93102BFFFFA000000
2F800000CFFFF4000000
3E100001FFFFE0000000
4A000004FFFF80000000
57000008FFFF30000000
6500000CFFFC00000000
5300001FFFF600000000
0000005FFFF100000000
0000009FFFA000000000
000000DFFF4000000000
000002FFFD0000000000
000006FFF80000000000
00000AFFF30000004400
00000EFFC00000003800
00004FFF700000002C00
00008FFF200000001F10
0000CFFC000000002F50
0002FFF7000000003F90
0007FFF1000000008FD0
000CFFB000000003EFF3
002FFF600000016EFFF7
006FFF200136BEFFFFFC
00AFFFABCB9642101245
00DFDA63000000000000
00320000000000000000
ENDCHAR
STARTCHAR bracketleft
ENCODING 91
SWIDTH 344 0
DWIDTH 11 0
BBX 11 32 0 -6
BITMAP
000AFECA8620
002FFE302420
006FF9000000
008FF6000000
00AFF3000000
00CFF1000000
00EFE0000000
01FFD0000000
03FFB0000000
05FFA0000000
06FF90000000
08FF90000000
0AFF80000000
0BFF70000000
0DFF60000000
0EFF60000000
1FFF50000000
2FFF50000000
3FFF40000000
4FFF40000000
5FFF30000000
6FFF30000000
7FFF30000000
8FFF30000000
8FFF30000000
9FFF30000000
9FFF40000000
AFFF50000000
9FFF60000000
8FFF90000000
4FFFF6100000
049CEFFFEC20
ENDCHAR
STARTCHAR backslash
ENCODING 92
SWIDTH 347 0
DWIDTH 11 0
BBX 11 36 0 -5
BITMAP
200000000000
960000000000
6C0000000000
2F1000000000
0D6000000000
09A000000000
05E000000000
01F300000000
00B700000000
007B00000000
003F10000000
000E50000000
000A90000000
0006D0000000
0002F2000000
0000D6000000
00009B000000
00004E000000
00001F400000
00000B900000
000007D00000
000003F30000
000000E70000
0000009C0000
0000005F1000
0000001F5000
0000000BA000
00000007E000
00000003F300
00000000D800
000000009C00
000000004F10
000000000E50
000000000980
0000000003B0
000000000020
ENDCHAR
STARTCHAR bracketright
ENCODING 93
SWIDTH 334 0
DWIDTH 11 0
BBX 11 30 0 -8
BITMAP
0000047A2000
039CFFFF6000
03411FFF8000
00000DFF9000
00000CFFB000
00000CFFC000
00000BFFE000
00000AFFF000
000009FFF200
000008FFF300
000008FFF500
000007FFF600
000006FFF800
000006FFF900
000005FFFA00
000005FFFC00
000004FFFD00
000004FFFE00
000003FFFF00
000003FFFF20
000003FFFF30
000003FFFF40
000004FFFF50
000006FFFF50
00000AFFFF30
00003FFFA300
0005EE810000
02AE71000000
7E8100000000
110000000000
ENDCHAR
STARTCHAR asciicircum
ENCODING 94
SWIDTH 658 0
DWIDTH 21 0
BBX 19 8 1 17
BITMAP
00000000B70000000000
00000009FF4000000000
0000008FFFE200000000
00001AFFFFFD20000000
0004DFFA8EFFE4000000
02AFE810018FFF810000
4DA5000000029EFE7100
000000000000016ADE30
ENDCHAR
STARTCHAR underscore
ENCODING 95
SWIDTH 678 0
DWIDTH 22 0
BBX 19 2 1 -10
BITMAP
02456789ABBCDDEEFFC0
3CCBA986543322111000
ENDCHAR
STARTCHAR grave
ENCODING 96
SWIDTH 278 0
DWIDTH 9 0
BBX 7 7 1 24
BITMAP
3E900000
4FF80000
0BFF4000
01DFD000
002DF700
0002DE10
00002C30
ENDCHAR
STARTCHAR a
ENCODING 97
SWIDTH 527 0
DWIDTH 17 0
BBX 18 24 0 -4
BITMAP
00006CFEB400000000
000AA216EF80000000
005E10006FF5000000
00AC00001FFD000000
00DF40000CFF300000
00EFF9000AFF800000
00CFFF6008FFB00000
007FFF9007FFE00000
0009ED2005FFF20000
0000000004FFF40000
0000000002FFF60000
00039CEFECFFF90000
008FE62014EFFB0000
08FE200000CFFE0000
2FF9000000AFFF1000
6FF80000008FFF3000
7FFB000001BFFF6000
6FFF92027DEFFF8000
2FFFFFFFFE4FFFB009
08FFFFFFD20EFFE00C
006CEFC70009FFF72D
000000000003FFFFFA
000000000000AFFFF5
00000000000019EE70
ENDCHAR
STARTCHAR b
ENCODING 98
SWIDTH 582 0
DWIDTH 19 0
BBX 22 37 -3 -1
BITMAP
0000000900000000000000
0000003D00000000000000
000000CE00000000000000
00001AFE00000000000000
0148EFFF00000000000000
7FFFFFFF00000000000000
01019FFF10000000000000
00001EFF10000000000000
00000CFF20000000000000
00000BFF20000000000000
00000AFF30000000000000
000009FF30000000000000
000008FF40000000000000
000007FF50000000000000
000007FF50000000000000
000006FF60000000000000
000005FF70000000000000
000005FF80000000000000
000004FF90000000000000
000004FFA0000000000000
000003FFB0000000000000
000002FFB0028CEEC71000
000002FFD07FFFFFFFD300
000001FFE8D6214CFFFD10
000001FFFB100000BFFF80
000000FFF20000003FFFD0
000000FFF30000000DFFF0
000000EFF40000000BFFF1
000000EFF60000000AFFF1
000000DFF80000000BFFE0
000000DFFB0000000DFFA0
000000DFFE0000002FFF30
000000DFFF600000AFF800
000000FFFFE6113BFF8000
000006FFFFFFFFFD930000
00017FFC86432100000000
002EB61000000000000000
ENDCHAR
STARTCHAR c
ENCODING 99
SWIDTH 437 0
DWIDTH 14 0
BBX 14 18 0 2
BITMAP
000005BEFD9200
0002B516FFFE20
001D5000DFFFA0
00BC0000BFFFB0
05F700009FFF90
0BF400001BEB10
1FF20000000000
5FF10000000000
6FF20000000A30
7FF300000005D0
7FF500000000D4
5FF900000000B7
2FFD00000000C7
0CFF60000001E5
06FFE3000007E1
00BFFF82028F70
001BFFFFFFF900
00005BEFEA4000
ENDCHAR
STARTCHAR d
ENCODING 100
SWIDTH 523 0
DWIDTH 17 0
BBX 18 30 0 1
BITMAP
000000000000087000
000000000005DF7000
0000000017DFFF7000
00000004D89FFF7000
00000000003FFF7000
00000000002FFF7000
00000000001FFF6000
00000000001FFF6000
00000000000FFF6000
00000000000FFF5000
00000000000EFF5000
00000000000EFF4000
00000000000EFF4000
00000000000DFF4000
00000000000DFF3000
00000000000CFF3000
00000000000CFF3000
00000000000CFF2000
00028CEFEC8DFF2000
007FFE72025DFF2000
07FFF300000BFF1000
1EFF9000000BFF1000
6FFF5000000BFF1000
8FFF3000000AFF1000
9FFF3000000AFF0000
7FFF5000000AFF0000
2FFFA000000BFF1000
09FFF300001EFF4000
00AFFE6202AFFFC400
0004ADEFEDCA99ABB4
ENDCHAR
STARTCHAR e
ENCODING 101
SWIDTH 434 0
DWIDTH 14 0
BBX 14 17 0 1
BITMAP
000005BDED9200
0002CF9218FF40
003EF90000BFE1
01DFF100008FF4
07FFB000007FF6
0DFF7000009FF5
3FFF500000DFE1
6FFF400008FF70
7FFF51029FF700
7FFFCDFEC822A0
6FFF60000000E2
3FFF80000000B5
0DFFC0000000C5
06FFF3000000E2
00BFFD100005C0
001AFFD5115D20
000049DEFC8100
ENDCHAR
STARTCHAR f
ENCODING 102
SWIDTH 299 0
DWIDTH 10 0
BBX 18 41 -2 -5
BITMAP
00000000007DFE9200
000000001BA203DE20
000000009A00004FA0
00000003F200003FE0
00000009B00000AFF1
0000001E70005CFFF1
0000004F400BFFFFE0
0000008F204FFFFF90
000000CF103FFFFE20
000000EF0007EEB200
000002FE0000000000
000004FE0000000000
000006FF1000000000
00000BFF8014730000
00006FFFFFB9610000
4ACFFFFF9100000000
13102EFF4000000000
00000DFF4000000000
00000DFF4000000000
00000CFF4000000000
00000CFF5000000000
00000CFF5000000000
00000CFF6000000000
00000BFF6000000000
00000BFF7000000000
00000BFF7000000000
00000BFF8000000000
00000BFF8000000000
00000BFF9000000000
00000BFF9000000000
00000BFFA000000000
00000BFFB000000000
00000BFFB000000000
00000BFFC000000000
00000BFFC000000000
00000BFFE000000000
00000BFFF200000000
00000DFFFC41000000
00004FFFFFFFC00000
0006EA620000000000
008710000000000000
ENDCHAR
STARTCHAR g
ENCODING 103
SWIDTH 567 0
DWIDTH 18 0
BBX 20 31 -1 -12
BITMAP
000000000000018DED60
0000000000001923FFF7
0000000000009200FFFD
000005BEFECCD002FFFF
0001BFFD403DFA01FFFC
000BFFF20003FF907ED3
005FFFA00000DFF30000
00AFFF600000AFF80000
00CFFF4000009FF90000
00CFFF400000AFF90000
00BFFF500000CFF70000
006FFF800001FFF20000
000CFFD10008FF900000
0001CFFB217FFA000000
000006EFFEDA40000000
00008F93000000000000
0002FF00000000000000
0000CFB4100000000000
000005BFFECA73000000
00003BF7136AFFE70000
0008FF6000002CFFC100
00AFF900000001DFF900
06FFE1000000005FFF10
0EFFB0000000001FFF20
4FFF90000000000EFF20
5FFFA0000000000EFE00
4FFFD0000000002FF700
1EFFF5000000008FB000
06FFFE20000005FA0000
007FFFE720149D500000
00027BEFFEC840000000
ENDCHAR
STARTCHAR h
ENCODING 104
SWIDTH 566 0
DWIDTH 18 0
BBX 21 34 -2 0
BITMAP
0000000087000000000000
00000009F5000000000000
000004CFF3000000000000
0027CFFFF1000000000000
05ECAEFFE0000000000000
000002FFC0000000000000
000000DFB0000000000000
000000CFA0000000000000
000000CF80000000000000
000000DF70000000000000
000000EF60000000000000
000000FF50000000000000
000001FF40000000000000
000002FF30000000000000
000002FF30000000000000
000004FF20000000000000
000005FF10000000000000
000006FF00000000000000
000007FF004CFE92000000
000008FE08FFFFFE200000
000009FE5E515FFFA00000
00000AFDD60009FFF10000
00000CFFD00004FFF30000
00000DFF800002FFF50000
00000EFF400001FFF60000
00001FFF100001FFF70000
00002FFE000001FFF70000
00004FFC000001FFF60000
00006FFA000001FFF60000
00008FF9000002FFF60000
0000CFF8000003FFF70000
0018FFF8000006FFFC2000
1FFFFFFE40005EECBCEE10
0211126ADA036300000000
ENDCHAR
STARTCHAR i
ENCODING 105
SWIDTH 301 0
DWIDTH 10 0
BBX 10 23 0 3
BITMAP
0004DE5000
000CFFD000
000DFFD000
0005EE4000
0000000000
0000019400
0125AFF300
6FFFFFF200
017FFFF000
000EFFD000
000DFFC000
000CFFA000
000CFF9000
000CFF7000
000CFF6000
000CFF5000
000CFF4000
000DFF3000
000DFF2000
000EFF1000
000FFF3000
018FFFB300
4FECCDEFE1
ENDCHAR
STARTCHAR j
ENCODING 106
SWIDTH 367 0
DWIDTH 12 0
BBX 16 37 -4 -16
BITMAP
0000000008EB1000
000000002FFF7000
000000003FFF7000
0000000009EB1000
0000000000000000
0000000000000000
0000131001369400
000016AEFFFFFB00
00000001AFFFFF00
000000000BFFFF30
0000000002EFFF50
00000000009FFF70
00000000004FFF90
00000000000EFFB0
00000000000BFFC0
000000000008FFD0
000000000005FFE0
000000000003FFF0
000000000001FFF1
000000000000EFF1
000000000000DFF1
000000000000CFF1
000000000000BFF0
000000000000BFE0
000000000000AFD0
000000000000BFB0
004CFD600000BF90
05FFFFF20000DF60
1EFFFFF40000EF30
5FFFFFD10002FE00
8FFFC7100005FA00
8FC20000000AF400
7F400000001EC000
3F300000009F3000
0BA0000006F60000
01CB4113AF600000
0017CEFD92000000
ENDCHAR
STARTCHAR k
ENCODING 107
SWIDTH 567 0
DWIDTH 18 0
BBX 21 37 -3 -5
BITMAP
00000003B0000000000000
0000002DD0000000000000
000007EFD0000000000000
0149EFFFC0000000000000
1EEDEFFFC0000000000000
000008FFC0000000000000
000001EFD0000000000000
000000CFD0000000000000
000000BFD0000000000000
000000BFE0000000000000
000000AFE0000000000000
000000AFF0000000000000
0000009FF0000000000000
0000009FF1000000000000
0000009FF1032000000000
0000008FF205EB63100000
0000008FF2001BFFFF9000
0000008FF30006F9300000
0000008FF4001D50000000
0000007FF400B500000000
0000007FF5099000000000
0000007FF68F9000000000
0000006FFDFFC000000000
0000006FFCBFF200000000
0000006FF96FF600008300
0000006FFA1FFC00001C10
0000005FFB0BFF40000680
0000005FFC05FFC00004C0
0000005FFD00CFF70005C0
0000005FFF003EFF812C90
0000005FFF1004EFFFFF30
0000005FFF200029DFC400
0000006FFF400000000000
0000009FFF800000000000
000002FFFFE30000000000
00479EDDCCDEEFA0000000
0012100000000000000000
ENDCHAR
STARTCHAR l
ENCODING 108
SWIDTH 354 0
DWIDTH 11 0
BBX 14 30 -2 0
BITMAP
00000000900000
00000007E00000
0000004FE00000
000004EFE00000
00006FFFE00000
001AFFFFE00000
06EFEFFFF00000
7C611EFFF00000
00000AFFF00000
000008FFF10000
000006FFF20000
000005FFF20000
000003FFF30000
000001FFF40000
000000FFF50000
000000EFF50000
000000CFF60000
000000BFF70000
0000009FF80000
0000008FF90000
0000006FFA0000
0000005FFB0000
0000004FFC0000
0000002FFD0000
0000001FFE0000
0000000FFF0000
0000000FFF4000
0000017FFFD510
0001EFFFFFFFE2
00004321001230
ENDCHAR
STARTCHAR m
ENCODING 109
SWIDTH 708 0
DWIDTH 23 0
BBX 23 15 0 3
BITMAP
000006000000000000000000
0003BF300000000000000000
28CFFF506DEB2018EFC40000
257FFF79FFFFD1CFFFFE1000
000BFFCA13EFFD605FFF6000
0006FFF1009FFB000CFF8000
0004FFC0007FF60009FF9000
0001FFA0007FF50009FF8000
0000FF90009FF4000AFF7000
0000EF9002EFF7000DFF6000
0000EFB04EFFFF503FFF5000
0005FFE101014754EFFF5000
07DFFFFC610000015AFF8000
0121002451000000002BE300
000000000000000000005B10
ENDCHAR
STARTCHAR n
ENCODING 110
SWIDTH 584 0
DWIDTH 19 0
BBX 19 21 0 -1
BITMAP
00003A00000000000000
0001DE00000000000000
002DFF10006CFEA20000
18EFFF400AFFFFFE2000
632EFF6088119FFF9000
000AFF82A0000CFFE000
0006FFA9300006FFF300
0003FFCB000003FFF400
0000EFFA000001FFF400
0000BFF8000000FFF300
00008FF6000000EFF200
00005FF6000000FFF000
00003FF5000000FFD000
00001FF6000001FFB000
00000DF7000003FF9000
00000CF9000005FF8000
00000BFC00002CFF7000
00001DFF409FFFFF8000
006DFFFFE70137BFD100
0012100244000003BC20
00000000000000000560
ENDCHAR
STARTCHAR o
ENCODING 111
SWIDTH 503 0
DWIDTH 16 0
BBX 16 15 0 2
BITMAP
000028CEFDA50000
0008FF8116EFB100
009FF900005FFC00
04FFF200000BFF70
0BFFD0000005FFE0
1FFFB0000002FFF3
4FFFA0000000EFF6
5FFFB0000000CFF6
4FFFD0000000CFF5
2FFFF1000000CFF3
0CFFF5000000DFD0
04FFFA000002FF60
008FFF400008FB00
0007FFE6117FA100
000028CEFDA40000
ENDCHAR
STARTCHAR p
ENCODING 112
SWIDTH 509 0
DWIDTH 16 0
BBX 16 30 0 -14
BITMAP
0000029000000000
00001DA000000000
0002DFA03AEEC500
018FFFB6FFFFFF80
1C8BFFEE503CFFF3
0003FFF50002FFF9
0001FFE00000BFFB
0001FFA000009FFC
0001FF8000008FFB
0001FF8000009FF9
0001FF800000BFF5
0001FFA00000EFD0
0001FFE10006FF50
0002FFFB216EF700
0002FFE7CFEA3000
0002FFE000000000
0003FFE000000000
0003FFE000000000
0004FFE000000000
0004FFE000000000
0005FFE000000000
0005FFF000000000
0005FFF000000000
0006FFF100000000
0007FFF300000000
0008FFF400000000
000BFFF700000000
004FFFFD10000000
3AEEEFFFD5000000
000001368B300000
ENDCHAR
STARTCHAR q
ENCODING 113
SWIDTH 505 0
DWIDTH 16 0
BBX 17 30 0 -13
BITMAP
000000000001012200
0006CEED829FFE7200
01CFFA303BEFF40000
0AFFC00001EFF10000
2FFF500000CFF00000
6FFF200000CFF00000
7FFF200000CFF00000
7FFF300000CFF00000
4FFF600000DFF00000
0CFFD00001FFF00000
02EFFB3129FFF00000
0018DFEB61FFF00000
0000000000FFF00000
0000000000FFF00000
0000000000FFF00000
0000000000FFF00000
0000000001FFF00000
0000000001FFF00000
0000000001FFF00000
0000000001FFF00000
0000000002FFF00000
0000000002FFF00000
0000000002FFF00000
0000000003FFF00000
0000000003FFF00000
0000000004FFF00000
0000000009FFF10000
000004FFFFFFF60000
00000001247BFF8200
00000000000027BE20
ENDCHAR
STARTCHAR r
ENCODING 114
SWIDTH 414 0
DWIDTH 13 0
BBX 16 22 0 0
BITMAP
0000000003BEE800
000000003B413E80
00000B00B1000DF1
00009E066004BFF2
014BFF0C003FFFF1
4FFFFF5A005FFFB0
002EFFD7001BEB20
000AFFF500000000
0008FFF300000000
0007FFF300000000
0005FFF300000000
0004FFF400000000
0002FFF500000000
0001FFF600000000
0000FFF800000000
0000EFFA00000000
0000DFFC00000000
0000CFFF00000000
0000BFFF20000000
0000BFFF90000000
0028FFFFFFE10000
09DA753211000000
ENDCHAR
STARTCHAR s
ENCODING 115
SWIDTH 482 0
DWIDTH 15 0
BBX 17 24 -1 -3
BITMAP
00000000000002B000
00000005BEFD899000
0000009FB313CF7000
000005FF10003F4000
00000BFC00000E2000
00000DFE00000D0000
00000BFF80000A0000
000006FFF400000000
000000DFFE40000000
0000003FFFE5000000
00000005FFFF500000
000000006FFFF60000
0000000008FFFF4000
0000000000AFFFE200
00000450000CFFF900
00000D400002FFFF10
00006D0000009FFF50
0002E90000003FFF60
000BF70000001FFF60
009FF70000001FFF30
08DAFC0000005FFD00
48004F500000DFF400
000004E7103CFF6000
00000018CEFD920000
ENDCHAR
STARTCHAR t
ENCODING 116
SWIDTH 434 0
DWIDTH 14 0
BBX 14 25 0 -1
BITMAP
00000001D50000
00000006F60000
0000000BF30000
0000001FF00000
0000006FC00000
000000DF900000
00000AFF800000
0004BFFFFDEC00
5BEFFFFFA31000
1103FFFA000000
0006FFF3000000
000AFFD0000000
000DFF90000000
002FFF60000000
005FFF30000000
007FFF00000000
008FFE00000000
009FFD00000000
009FFD00003ED2
008FFE00008FF7
005FFF20002EF8
001EFF600005F5
0007FFD10003E1
00009FFC303B40
000004AEFEA200
ENDCHAR
STARTCHAR u
ENCODING 117
SWIDTH 744 0
DWIDTH 24 0
BBX 24 17 0 1
BITMAP
00000290000000002A600000
00001CD000000259EF800000
0002CFF10004EDEFFF900000
017EFFF30000000AFFA00000
5DAAFFF500000004FFB00000
0000BFF800000002FFC00000
00007FFB00000002FFE00000
00005FFE00000002FFF00000
00003FFF20000003FFF20000
00001FFF50000005CFF40000
00000EFFA00000097FF60000
00000BFFE100000B2FFC0000
000007FFF80000680FFFDCDA
000002FFFF8116F209C96420
0000009FFFFFFF9000000000
0000001CFFFFFD1000000000
000000018DFD810000000000
ENDCHAR
STARTCHAR v
ENCODING 118
SWIDTH 600 0
DWIDTH 19 0
BBX 19 20 0 -1
BITMAP
00000029A00000000000
000028ED100000000000
004AFFFA000000000000
7BAEFFFD000000000000
1004FFFF200000000220
0000BFFF60009EDDED80
00004FFFB000019F7000
00000CFFF200006D0000
000005FFF70000980000
000000EFFC0000C30000
0000007FFF3001D00000
0000001EFF9005800000
00000009FFE109400000
00000002FFF60D000000
00000000AFFC39000000
000000003FFFE4000000
000000000BFFE0000000
0000000003FF80000000
0000000000BF30000000
00000000002A00000000
ENDCHAR
STARTCHAR w
ENCODING 119
SWIDTH 745 0
DWIDTH 24 0
BBX 24 17 0 -1
BITMAP
0000002960000000001258CA
000028E500000000038CFB51
026BFFF100001C000008D000
ADEFFFF300007F70000A8000
001EFFF60000DFE1000D4000
0009FFFA0003FFF8001E0000
0004FFFE0009EFFE105B0000
0000EFFF301C7FFF90970000
00009FFF70570DFFF2D20000
00004FFFC0B205FFFDD00000
00000EFFF4B000CFFF800000
000009FFFE60003FFF300000
000004FFFE100008FC000000
000000DFF9000000B5000000
0000008FF300000000000000
0000002FC000000000000000
000000094000000000000000
ENDCHAR
STARTCHAR x
ENCODING 120
SWIDTH 548 0
DWIDTH 18 0
BBX 19 19 -1 1
BITMAP
0000000015B800000000
0000136AED4000000000
1EFFFFFFF70000000000
0016EFFFF70253100010
00002EFFF9017DFFFCA0
000005FFFD0005F81000
000000CFFF300B600000
0000004FFF9079000000
0000000BFFF5B0000000
00000004FFFF30000000
00000000BFFF10000000
000000004FFF50000000
000000002FFFA0000000
000000009FFFF1000000
00000006B2DFF7000000
0000007D106FFD100000
00014AF7000EFFB30000
004EB878226EFFFFE900
000000005EA631000000
ENDCHAR
STARTCHAR y
ENCODING 121
SWIDTH 659 0
DWIDTH 21 0
BBX 21 32 0 -14
BITMAP
00000002B7000000000000
0000007E91000000000000
00006DF600000000013670
038DFFC00002EEDDEFFD30
6EFFFF90000015DFFFF400
007FFF900000002FFFF100
003FFF900000000DFFF000
001FFFA00000000CFFE000
000DFFC00000000CFFD000
000AFFE00000000CFFC000
0006FFF20000000EFFA000
0002FFF60000001FFF9000
0000DFFB0000005FFF8000
00008FFF200000ADFF6000
00002FFFB00003C9FF3000
000007FFFA314E49FF1000
000000AFFFFFF70AFE0000
00000006CEEB400BFB0000
000000000000000CF80000
000000000000000DF40000
000000000000000FF10000
000000000000002FB00000
000000000000005F700000
000006DEB200008F300000
00006FFFFC0000CD000000
0001B2EFFF1002F7000000
0004709FFE0008E1000000
0006602CE6002E70000000
000580000000AC00000000
0001D1000008D200000000
00006D5114BC2000000000
000004CFEB600000000000
ENDCHAR
STARTCHAR z
ENCODING 122
SWIDTH 460 0
DWIDTH 15 0
BBX 15 18 0 0
BITMAP
0CDA753210000000
0FFFCBBCDFFFB000
1FE300000DFF7000
2F7000006FFE1000
3F100000DFF80000
4B000007FFE10000
5800001EFF800000
5400008FFF200000
000002FFF9000000
00000BFFF2000000
00004FFFA0000000
0000DFFF30000070
0007FFFB000001B0
002EFFF4000004B0
00BFFFC000001CB0
05FFFF601358EFA0
1DFFFFFFEEEFFF70
2A96421000000000
ENDCHAR
STARTCHAR braceleft
ENCODING 123
SWIDTH 460 0
DWIDTH 15 0
BBX 15 41 0 -10
BITMAP
000000007DFD9200
0000000BF7115B10
0000007FC0000000
000000DF90000000
000002FF90000000
000004FFA0000000
000005FFC0000000
000004FFF1000000
000003FFF4000000
000002FFF7000000
000000FFFA000000
000000DFFD000000
000000CFFE000000
000000BFFF000000
000000CFFE000000
000001FFFB000000
000008FFF4000000
00007FFF70000000
027CFFD500000000
7FFE950000000000
03AE810000000000
0004EE4000000000
00003EF500000000
000007FE20000000
000002FF80000000
000000EFD0000000
000000DFF2000000
000000DFF4000000
000000EFF6000000
000000FFF6000000
000000FFF6000000
000001FFF6000000
000002FFF6000000
000003FFF6000000
000003FFF7000000
000003FFF8000340
000001FFFA000550
000000EFFE100840
0000008FFF913E10
0000001DFFFFFA00
000000019DFE9100
ENDCHAR
STARTCHAR bar
ENCODING 124
SWIDTH 368 0
DWIDTH 12 0
BBX 3 34 4 -6
BITMAP
1C00
2E00
2E00
2F00
2F00
1F00
1F10
0F10
0F10
0F20
0E20
0E20
0D30
0D30
0C40
0C50
0B50
0A60
0A60
0970
0870
0880
0780
0690
06A0
05A0
05B0
04B0
03C0
03D0
02D0
01E0
00E0
00A0
ENDCHAR
STARTCHAR braceright
ENCODING 125
SWIDTH 476 0
DWIDTH 15 0
BBX 15 34 0 -8
BITMAP
004BEFD920000000
08FFFFFFF4000000
5F711BFFFE100000
960001FFFF500000
000000CFFF900000
000000AFFFA00000
0000008FFFB00000
0000006FFFA00000
0000004FFFA00000
0000001FFFA00000
0000000DFFA00000
00000006FFC00000
00000000AFF40000
0000000007DFEE90
000000000004E700
00000000002EC000
0000000000CF9000
0000000001FFA000
0000000002FFD000
0000000001FFF200
0000000000DFF600
00000000009FFA00
00000000006FFE00
00000000002FFF30
00000000000EFF60
00000000000AFF80
000000000008FF90
000000000006FF70
000000000006FF50
000000000006FE10
00000000000AF700
00000000005FA000
000000015AF80000
000000AEC8200000
ENDCHAR
STARTCHAR asciitilde
ENCODING 126
SWIDTH 733 0
DWIDTH 23 0
BBX 21 6 1 5
BITMAP
00000000000000000003B0
00018DFDB7200000004E90
003EFFFFFFFB731039FE20
02E7114AFFFFFFFFFFF600
0C40000018EFFFFFFF7000
450000000016ADFEA30000
ENDCHAR
STARTCHAR nonbreakingspace
ENCODING 160
SWIDTH 270 0
DWIDTH 9 0
BBX 1 1 0 0
BITMAP
00
ENDCHAR
STARTCHAR exclamdown
ENCODING 161
SWIDTH 247 0
DWIDTH 8 0
BBX 6 34 1 -4
BITMAP
09EC30
4FFFA0
5FFFA0
0AEC20
000000
000000
000000
000000
007300
00C800
00CB00
00CD00
00DF00
00DF20
00EF40
00FF50
00FF70
01FF80
02FF90
04FFB0
05FFC0
07FFD0
08FFE0
0AFFF0
0BFFF1
0DFFF2
0EFFF3
1FFFF3
2FFFF4
3FFFF4
3FFFF3
2FFFF1
0DFFC0
04ED30
ENDCHAR
STARTCHAR cent
ENCODING 162
SWIDTH 799 0
DWIDTH 26 0
BBX 16 29 5 -7
BITMAP
0000050000000000
00000B0000000000
00000C0000000000
0000093000000000
000007CDFEC71000
00009FD4115DD200
000BFCA00004FD10
009FE2910000FF70
04FF90650004FFB0
0BFF4038000CFFE0
2FFF000B003FFFD0
6FFD000B103FFF90
9FFC00084009EB10
BFFC000570000000
BFFD0002B0000000
AFFF0000D0000000
8FFF3000B3000000
4FFF900077000082
0DFFE2004A0002D0
05FFFC101E001B60
009FFFD61D35DA00
0007EFFFFFFF9000
000027CEFEE30000
0000000001E10000
0000000000B60000
00000000007A0000
00000000002F1000
00000000000C5000
0000000000034000
ENDCHAR
STARTCHAR sterling
ENCODING 163
SWIDTH 799 0
DWIDTH 26 0
BBX 19 30 4 -4
BITMAP
00000006BEFD81000000
000002DD5115EE300000
00002EE200008FD00000
0000CF7000009FF50000
0005FF400004FFF90000
000AFF30002EFFFA0000
000EFF40009FFFFA0000
002FFF5000CFFFF60000
003FFF8000AFFFE10000
003FFFC0002BFC200000
002FFFF2000000000000
000EFFF8000000000000
000AFFFE102530000000
0005FFFFCCB610000000
026AFFFFE00000000000
7DA69FFFF50000000000
00002FFFFB0000000000
000009FFFF1000000000
000003FFFF5000000000
000000BFFF9000000000
0000005FFFA000000000
0000001EFFB000000000
0000000BFF9000009300
00000009FF7000001B00
005BEEDDFF2000000A20
06C3126DFF6000000B20
0D20000DFEFE83117E00
0E00005F71AFFFFFF700
0B8127E50004AEFD6000
02AEE820000000000000
ENDCHAR
STARTCHAR currency
ENCODING 164
SWIDTH 732 0
DWIDTH 23 0
BBX 20 23 2 1
BITMAP
00000000000001200000
0000000000001D500000
0000000000009E000000
810000000006F7000000
AD3005ADFFEFF5000000
0BEAE9410137CE400000
01EE4000000007F30000
03F500000000009C0000
0AB000000000002F3000
1F5000000000000E5000
5F2000000000000E6000
7F1000000000001F4000
7F1000000000005E0000
4F400000000000B80000
0EB00000000006C00000
07F7000000007F200000
00BFB520137CBEA10000
001FFFFFEC8303DC2000
004FD1000000001BE400
00BF6000000000007E60
02FD00000000000003B5
07F50000000000000000
04700000000000000000
ENDCHAR
STARTCHAR yen
ENCODING 165
SWIDTH 799 0
DWIDTH 26 0
BBX 24 35 1 -5
BITMAP
000000000016000000000000
111000136AF8000000000023
7DFFFFFFFF70000000003AA2
003BFFFFFD000000258CD400
00008FFFFE00003EEFFD2000
00000AFFFF4000000AF30000
000001DFFFA000000A800000
0000005FFFF200000D100000
0000000BFFFA000048000000
00000003FFFF2000A2000000
00000000AFFFA002A0000000
000000003FFFF40850000000
000000000BFFFD3E10000000
0000000005FFFFFC00000000
0000000000DFFFF800000000
00000000007FFFF600000000
00000000002FFFF400000000
00000000000EFFF500000000
000003CCCCDFFFFEDDEEFF90
00000022212CFFF100000000
00000000000AFFF000000000
00000001235DFFFDDEF90000
000000AFFFFFFFF521000000
00000013211EFFD000000000
00000000000CFFC000000000
00000000000CFFC000000000
00000000000CFFC000000000
00000000000DFFD000000000
00000000000FFFF000000000
00000000003FFFF300000000
00000000009FFFFE61000000
0000000006FFFFFFFF900000
00000005BFD9643210000000
000001ED8300000000000000
000000200000000000000000
ENDCHAR
STARTCHAR brokenbar
ENCODING 166
SWIDTH 341 0
DWIDTH 11 0
BBX 3 37 4 -8
BITMAP
0B00
1E00
1E00
1E00
1E00
1E00
1E00
1F00
1F00
2F00
2F00
2F00
1F00
0800
0000
0000
0000
0A00
0F00
0F00
0F10
0F10
0E20
0E20
0E20
0E20
0F20
0F20
0F20
1F20
1F20
2F10
2F10
2F10
3F10
3F10
1C00
ENDCHAR
STARTCHAR section
ENCODING 167
SWIDTH 546 0
DWIDTH 18 0
BBX 15 37 1 -10
BITMAP
0000028DEEC71000
00007FB3129FD300
0006FB00000CFD10
002EF300000AFF60
008FF100001EFFB0
00BFF300004FFFC0
00DFF700005FFF90
00DFFD10000AEB10
00AFFFA000000000
006FFFFA00000000
000DFFFFB1000000
0006FFFFFD300000
006F8EFFFFF60000
05FA01AFFFFF7000
0DF50004DFFFF700
4FF4000007EFFF20
6FF70000002DFF90
5FFE20000001EFD0
3FFFC10000005FD0
0CFFFD3000001FB0
03FFFFF700002F70
005EFFFFB1006E10
0003DFFFFD32E400
000018FFFFED4000
0000003CFFFE2000
000000006EFFC000
0000000002DFF500
00000000001CFB00
000000000002EF00
0000000000008F10
0000000000004F20
0000000000003F00
00008EC300004C00
0003FFFD10009600
0003FFFFB217C000
0000BFFFFFFC2000
000018DFEB600000
ENDCHAR
STARTCHAR dieresis
ENCODING 168
SWIDTH 393 0
DWIDTH 13 0
BBX 8 4 3 21
BITMAP
3DD30000
BFF92DE3
CFF77FF7
5EC13ED2
ENDCHAR
STARTCHAR copyright
ENCODING 169
SWIDTH 1023 0
DWIDTH 33 0
BBX 31 29 1 -5
BITMAP
000000000048BDEFEDB8400000000000
000000006DB742102359DE9200000000
0000003DA2000000000004BF80000000
000007D40000000001000005EC100000
00007D2000000000070000002ED10000
0005E200000000003900000002EB0000
001E50000017CEFEF8000000006F6000
009B000004EE6127F9000000000CD000
01F400002EF500007A0000000005F500
06D00000BFD000000B0000000001FA00
0B900002FF900000071000000000CD00
0E500005FF800000010000000000AF00
2F300007FF8000000000000000009F10
4F100007FFA00000003400000000AF10
5F000006FFD00000006600000000AF00
5F000002FFF4000000A400000000CE00
4F100000BFFD100002E100000000EC00
3F3000002EFFD5104E8000000003F900
1F60000003DFFFFFFB0000000008F500
0CB000000017CEEC60000000000DF100
08F200000000000000000000006FA000
02FB0000000000000000000001DF3000
009F600000000000000000000BF80000
002EF5000000000000000000AFC10000
0003FF70000000000000003CFD200000
00005EFC40000000000029FFC2000000
000003DFFD852101248CFFF800000000
00000006DFFFFFFFFFFFE92000000000
00000000038BDEFEDB84100000000000
ENDCHAR
STARTCHAR ordfeminine
ENCODING 170
SWIDTH 558 0
DWIDTH 18 0
BBX 16 16 1 10
BITMAP
0029EFD910000000
03E9127FD1000000
0DF30009F9000000
3FF60004FE000000
6FFE0001FF400000
5FFF2000FF600000
0BE90003FF800000
00039DFFFF900000
006FD512EFA00000
04FF2000CFA00000
0BFA0000CFB000B1
0EF80000EFD000B4
0FFA0004FFF100C4
0DFF513D8FFA13F2
06FFFFFC0BFFFFB0
006DFEB2019EEA10
ENDCHAR
STARTCHAR guillemotleft
ENCODING 171
SWIDTH 608 0
DWIDTH 19 0
BBX 17 29 1 -8
BITMAP
000000000000000100
000000000000000820
000000000000000C20
000000000000001F00
000000000083005D00
0000000002E000AA00
000000000BA000E700
000000007F4005F300
00000004FB000BE000
0000003EF4003FA000
000004EFA000CF5000
00007FFE1007FF1000
001BFFF5004FFC0000
05EFFFA003EFFE1000
4FFFFF2005FFFF8000
1BFFFF90006FFFE100
01BFFFF30007FFF700
000AFFFD00009FFC00
0000AFFF70001EFF20
00000AFFE20006FF50
000000BFFA0000DF80
0000001DFF30007FA0
00000002EFA0001EC0
000000005FF30009C0
0000000009FA0003C0
0000000001DF200070
00000000003F900000
000000000006E00000
000000000000610000
ENDCHAR
STARTCHAR logicalnot
ENCODING 172
SWIDTH 616 0
DWIDTH 20 0
BBX 18 7 1 8
BITMAP
000001111111111100
3EFFEEEDDCCCBBDFD0
000000000000000AF1
0000000000000007F1
0000000000000008F0
0000000000000008D0
0000000000000007A0
ENDCHAR
STARTCHAR uni00AD
ENCODING 173
SWIDTH 436 0
DWIDTH 14 0
BBX 12 2 1 6
BITMAP
254210012331
29CDEFFFEEB2
ENDCHAR
STARTCHAR registered
ENCODING 174
SWIDTH 1048 0
DWIDTH 34 0
BBX 31 30 1 -7
BITMAP
0000000000269CEFFEC9620000000000
000000004BEA631001359DB400000000
0000002BD60000000000003AB2000000
000005E800000000000000003C400000
00006E40000000000000000001B50000
0004F408EDDEEFFFED920000000B3000
001E700029FFF4028FFE30000002C000
009D000000DFC0000AFFC00000007600
01F5000000BFB00005FFF00000001C00
07E1000000AFB00004FFF00000000A30
0BA0000000AFB00005FFD00000000570
0F700000009FC0000BFF6000000002A0
3F400000009FC0005FFB0000000000C0
4F300000009FD149FF800000000000C0
5F20000000AFFEFFF2000000000000C0
6F30000000AFE0AFF6000000000000C0
5F40000000AFE05FFC000009100000C0
4F50000000BFF10DFF500006600001B0
2F80000000CFF305FFE2000590000580
0EC0000000EFF600AFFD512C70000850
09F2000004FFFC000AFFFFFE20000C10
04F800016EFFFF80004BEFC300004A00
00CE106FDCAABDFC400000000000B200
004FA000000000144000000000069000
0008F6000000000000000000003C1000
0000AF60000000000000000003D20000
000009F910000000000000006D300000
0000005DD61000000000004CA1000000
000000007DEA631001358DA300000000
000000000037BDEFEDC9520000000000
ENDCHAR
STARTCHAR macron
ENCODING 175
SWIDTH 382 0
DWIDTH 12 0
BBX 10 1 1 25
BITMAP
2ACDEEEFE6
ENDCHAR
STARTCHAR degree
ENCODING 176
SWIDTH 346 0
DWIDTH 11 0
BBX 9 8 1 23
BITMAP
005CFD7000
07FFFFFA00
2FC314DF40
5F30003F70
5F00000F60
3F30003F20
0AC313C800
008DFD7000
ENDCHAR
STARTCHAR plusminus
ENCODING 177
SWIDTH 580 0
DWIDTH 19 0
BBX 16 12 1 5
BITMAP
0000000051000000
00000000F6000000
00000000F5000000
00000001F5000000
00000017F5000000
07FEDCBBFCAAAAB8
00000000C1000000
00000000C1000000
00000000C1000000
0000000060000000
3EFEEDDCCBA97300
3EFECBBBBCCCC800
ENDCHAR
STARTCHAR twosuperior
ENCODING 178
SWIDTH 365 0
DWIDTH 12 0
BBX 11 18 0 10
BITMAP
00003BED8100
0005FFFFFA00
002C316FFF40
0062000AFF80
00000007FF90
00000008FF80
0000000BFF20
0000002FF900
000000CFB000
00001BF80000
0003CA300000
16CF30000000
18FF90000080
003DFC635C30
0001CFFFF400
00001DFF6000
000002E90000
000000200000
ENDCHAR
STARTCHAR threesuperior
ENCODING 179
SWIDTH 371 0
DWIDTH 12 0
BBX 12 17 0 12
BITMAP
012100131000
07FFFFFE1000
05FFFFF80000
03A207D00000
02300D300000
00007A100000
0000EFFD7000
000015CFFB10
0000000BFF80
05000002FFE0
36000000DFF3
57000000DFF3
4B000001FFF1
1F300007FFC0
09E5116FFF50
01CFFFFFF700
0018DFDA3000
ENDCHAR
STARTCHAR acute
ENCODING 180
SWIDTH 234 0
DWIDTH 8 0
BBX 5 6 1 24
BITMAP
0009C0
007F90
02FE20
09F600
1F9000
590000
ENDCHAR
STARTCHAR mu
ENCODING 181
SWIDTH 634 0
DWIDTH 20 0
BBX 20 28 1 -11
BITMAP
00210000000000000000
8EF40000000053000000
AFF3000000AEF8000000
AFF2000000DFFA000000
AFF20000008FFB000000
AFF20000005FFC000000
9FF30000002FFE000000
9FF50000000EFF000000
9FF80000000DFF102B10
8FFB0000000DFF300790
8FFF1000000EFF5001E1
7FFF8000003FFF8000C4
6FFAE3000096FFD000C3
6FF86E5117B0AFF914F1
5FF904CED9102EFFFFA0
5FFA0000000002AEEA10
4FFC0000000000000000
4FFD0000000000000000
3FFE0000000000000000
3FFF1000000000000000
2FFF3000000000000000
2FFF5000000000000000
1FFF7000000000000000
1FFF9000000000000000
0FFFB000000000000000
0EFFD000000000000000
0DFFC000000000000000
03200000000000000000
ENDCHAR
STARTCHAR paragraph
ENCODING 182
SWIDTH 707 0
DWIDTH 23 0
BBX 23 39 0 -12
BITMAP
000000000000000000005400
0000000000000000016CB200
0000000000000258BFF70000
00000368ABCEFFFFFF800000
0007DFFFFF82105FFD000000
01CFFFFFFF30002FF9000000
0CFFFFFFFF20001FF6000000
6FFFFFFFFF10002FF4000000
BFFFFFFFFF00002FF3000000
EFFFFFFFFF00002FF2000000
FFFFFFFFFE00003FF1000000
EFFFFFFFFE00003FF0000000
AFFFFFFFFD00003FE0000000
4FFFFFFFFD00004FE0000000
09FFFFFFFD00004FE0000000
006FFFFFFD00005FF0000000
00029EFFFD00005FF0000000
000001AFFD00006FF0000000
0000001FFE00006FF1000000
0000000EFE00006FF1000000
0000000CFF00007FF2000000
0000000BFF10007FF3000000
0000000AFF10007FF4000000
00000009FF20007FF5000000
00000008FF30007FF6000000
00000007FF40007FF8000000
00000006FF50007FF9000000
00000006FF60008FFC000000
00000005FF70008FFE000000
00000005FF80007FFF300000
00000005FF90007FFFA00000
00000005FFA0006FFFFA4100
00000005FFA0005FFDCCDE60
00000006FFB0000210000000
00000008FFC0000000000000
0000001DFFC0000000000000
000001BFFE90000000000000
00027EC73000000000000000
00BC72000000000000000000
ENDCHAR
STARTCHAR periodcentered
ENCODING 183
SWIDTH 238 0
DWIDTH 8 0
BBX 5 5 1 10
BITMAP
07ED40
3FFFD0
5FFFF0
3FFFC0
08ED40
ENDCHAR
STARTCHAR cedilla
ENCODING 184
SWIDTH 332 0
DWIDTH 11 0
BBX 8 11 1 -8
BITMAP
00008000
00047000
00085000
000CD810
001EFFD2
00007FFA
00000CFE
54000BFE
2E404FFA
0AFFFFF3
008EEB30
ENDCHAR
STARTCHAR onesuperior
ENCODING 185
SWIDTH 336 0
DWIDTH 11 0
BBX 11 14 0 14
BITMAP
000000091000
0000007E0000
000007FC0000
0001AFFB0000
006A6CFA0000
022009FA0000
000009FA0000
000009FA0000
00000BFA0000
00000DFB0000
00003FFD0000
2545DFFF1000
168BDFFFA000
00000148CB10
ENDCHAR
STARTCHAR ordmasculine
ENCODING 186
SWIDTH 503 0
DWIDTH 16 0
BBX 15 14 1 10
BITMAP
0004ADFEC8200000
00971138EFF70000
096000001CFF8000
3E00000001DFF400
9C000000004FFA00
DB000000000CFE00
ED0000000008FF20
EF1000000004FF10
CF6000000003FF00
8FD000000003FC00
1EF800000006F600
05FF7000000BC000
005EFC51029C1000
00017CEFDA500000
ENDCHAR
STARTCHAR guillemotright
ENCODING 187
SWIDTH 778 0
DWIDTH 25 0
BBX 23 30 1 -9
BITMAP
000000000500000000000000
000000000B10000000000000
0000000008A0000000000000
3300000002F6000000000000
3B00000000AE300000000000
0E600000001EE30000000000
09F400000005FE3000000000
02FE500000007FE500000000
008FF810000008FF80000000
000CFFD60000008FFC300000
0001CFFFD8300006FFF91000
000009FFFFFD95104EFFE700
0000005EFFFFFF402DFFFF30
00000001BFFFD302DFFFD400
00000001CFFB101DFFFA1000
0000000AFF8001CFFF700000
0000007FF7000AFFE4000000
000004FF60005FFE30000000
00001DF70001EFE300000000
00009FA00008FF5000000000
0003FC00001EF90000000000
000BF200007FE10000000000
002F700000DF700000000000
008D000002FE000000000000
00C5000005F8000000000000
00B0000008F2000000000000
0010000009C0000000000000
000000000A80000000000000
000000000940000000000000
000000000400000000000000
ENDCHAR
STARTCHAR onequarter
ENCODING 188
SWIDTH 876 0
DWIDTH 28 0
BBX 28 31 0 -1
BITMAP
0000000000000000000000170000
0000000000000000000000B60000
0000000910000000000008C00000
0000007E0000000000004F300000
000007FC000000000001D8000000
0001AFFB00000000000AD1000000
006A6CFA00000000006F30000000
022009FA0000000002E800000000
000009FA000000000CC000000000
000009FA000000009E2000000000
00000BFA00000005F60000000000
00000DFB0000002EA00090000000
00003FFD000000BD1002F2000000
2545DFFF100008F30009F3000000
168BDFFFA0004F70002FF5000000
00000148CB11DB0000AFF7000000
00000000000AE10003DFF8000000
00000000006F40000A2EFA000000
0000000002E80000470BFB000300
000000000CC00000A009FD003500
000000008E2000074007FF10A500
00000003F60000190005FF49F600
0000001DA00000AA8ACEFFFFF800
0000009D100003FFFFFFFFFFE700
000005F3000002554322FFD00000
00002E70000000000001FFF20000
0000BB00000000000001FFF90000
0007E200000000000005FFFF9300
002E50000000000003BFFFEDEFF4
0099000000000000048630000000
0020000000000000000000000000
ENDCHAR
STARTCHAR onehalf
ENCODING 189
SWIDTH 762 0
DWIDTH 24 0
BBX 24 32 0 -2
BITMAP
000000000000000000000017
0000000000000000000000B6
0000000910000000000008C0
0000007E0000000000004F30
000007FC000000000001D800
0001AFFB00000000000AD100
006A6CFA00000000006F3000
022009FA0000000002E80000
000009FA000000000CC00000
000009FA000000009E200000
00000BFA00000005F6000000
00000DFB0000002EA0000000
00003FFD000000BD10000000
2545DFFF100008F300000000
168BDFFFA0004F7018DEB300
00000148CB11DB01CFFFFE20
00000000000AE109713CFFA0
00000000006F40170004FFE0
0000000002E800000001FFF1
000000000CC000000001FFE0
000000008E2000000005FF80
00000003F6000000000BFE10
0000001DA0000000006FE300
0000009D1000000005FC3000
000005F3000000018D600000
00002E700000049E80000000
0000BB00000004DFD3000054
0007E2000000001AFF833980
002E5000000000007FFFFA00
009900000000000007FFC000
002000000000000000AE2000
000000000000000000030000
ENDCHAR
STARTCHAR threequarters
ENCODING 190
SWIDTH 922 0
DWIDTH 30 0
BBX 29 31 0 -1
BITMAP
000000000000000000000000350000
012100131000000000000001D30000
07FFFFFE100000000000000B900000
05FFFFF8000000000000006E100000
03A207D000000000000003F5000000
02300D300000000000001CA0000000
00007A100000000000009E10000000
0000EFFD700000000005F500000000
000015CFFB100000002E9000000000
0000000BFF80000000CD1000000000
05000002FFE0000008F30000000000
36000000DFF300004F700270000000
57000000DFF30001DB000A90000000
4B000001FFF1000BE1002FB0000000
1F300007FFC0006F4000AFC0000000
09E5116FFF5003F80003FFE0000000
01CFFFFFF7001CC0000ADFF0000000
0018DFDA30009E2000496FF2000000
000000000005F50000B14FF4003000
00000000001E900006502FF6009000
0000000000BD10001A000EF803D000
0000000006F3000083000DFA5EE000
000000002E700003E89BDFFFFFF000
00000000CB00000AFFFFFFFFFFD100
00000008E1000004554319FF500000
0000004F40000000000008FF900000
000001D800000000000009FFE20000
00000AC00000000000000CFFFD5100
00004E20000000000008DFFEDEEFB0
0000C6000000000000087410000000
000020000000000000000000000000
ENDCHAR
STARTCHAR questiondown
ENCODING 191
SWIDTH 571 0
DWIDTH 18 0
BBX 18 28 0 -3
BITMAP
000000009ED6000000
00000007FFFF200000
0000000AFFFF500000
00000008FFFF200000
00000001AED5000000
000000000000000000
00000001B700000000
000000000B60000000
0000000003B0000000
0000000003C0000000
000000000990000000
000000006F30000000
00000008FA00000000
000001BFD100000000
00003DFF4000000000
0005FFF90019EEC600
004FFFE1008FFFFF90
01EFFF9000DFFFFFF4
08FFFF3000CFFFFFF8
0EFFFF00004FFFFFFA
2FFFFE0000029FFFF9
3FFFFE00000003EFF7
2FFFFF000000006FF3
0DFFFF400000003FD0
07FFFFA00000005F50
00BFFFF5000000CA00
0008FFFF93014B8000
000017ADEFEC820000
ENDCHAR
STARTCHAR Agrave
ENCODING 192
SWIDTH 784 0
DWIDTH 25 0
BBX 26 37 0 -3
BITMAP
00000CC2000000000000000000
00000EFD100000000000000000
000007FF900000000000000000
0000009FF30000000000000000
0000000AFC0000000000000000
00000000AF5000000000000000
00000000088000000000000000
00000000000000000000000000
00000000000089000000000000
00000000004CFF100000000000
000000136BFFFF600000000000
000007EDBDFFFFB00000000000
0000000002FEFFF10000000000
0000000003E4FFF60000000000
0000000007A0DFFB0000000000
000000000B508FFF1000000000
000000001E104FFF6000000000
000000005A000EFFB000000000
00000000A6000AFFF100000000
00000000E10006FFF600000000
00000005B00002FFFB00000000
00000009D83000DFFF10000000
0000000E58DD96EFFF60000000
0000005D00038EFFFFC0000000
000000A80000019FFFF2000000
000001F30000000CFFF7000000
000006D000000005FFFC000000
00000C9000000001EFFF200000
00003F4000000000AFFF700000
0000AE00000000006FFFD00000
0027FC00000000001FFFF30000
DFFFFE10000000000CFFF90000
0147CFD60000000008FFFE1000
0000027A0000000004FFFF9000
000000000000000004FFFFF930
00000000000000026EFFFFFFF7
000000000000006DA743100000
ENDCHAR
STARTCHAR Aacute
ENCODING 193
SWIDTH 784 0
DWIDTH 25 0
BBX 26 36 0 -3
BITMAP
0000000000003D500000000000
000000000001EF200000000000
000000000009F9000000000000
00000000002FD1000000000000
00000000008E30000000000000
0000000000B300000000000000
00000000000000000000000000
00000000000089000000000000
00000000004CFF100000000000
000000136BFFFF600000000000
000007EDBDFFFFB00000000000
0000000002FEFFF10000000000
0000000003E4FFF60000000000
0000000007A0DFFB0000000000
000000000B508FFF1000000000
000000001E104FFF6000000000
000000005A000EFFB000000000
00000000A6000AFFF100000000
00000000E10006FFF600000000
00000005B00002FFFB00000000
00000009D83000DFFF10000000
0000000E58DD96EFFF60000000
0000005D00038EFFFFC0000000
000000A80000019FFFF2000000
000001F30000000CFFF7000000
000006D000000005FFFC000000
00000C9000000001EFFF200000
00003F4000000000AFFF700000
0000AE00000000006FFFD00000
0027FC00000000001FFFF30000
DFFFFE10000000000CFFF90000
0147CFD60000000008FFFE1000
0000027A0000000004FFFF9000
000000000000000004FFFFF930
00000000000000026EFFFFFFF7
000000000000006DA743100000
ENDCHAR
STARTCHAR Acircumflex
ENCODING 194
SWIDTH 784 0
DWIDTH 25 0
BBX 26 38 0 -3
BITMAP
00000000000680000000000000
00000000002EF4000000000000
0000000000ADFE200000000000
0000000006D16FD10000000000
000000002E3007FD2000000000
00000001C400005EE400000000
0000001B400000029E20000000
00000083000000000000000000
00000000000000000000000000
00000000000089000000000000
00000000004CFF100000000000
000000136BFFFF600000000000
000007EDBDFFFFB00000000000
0000000002FEFFF10000000000
0000000003E4FFF60000000000
0000000007A0DFFB0000000000
000000000B508FFF1000000000
000000001E104FFF6000000000
000000005A000EFFB000000000
00000000A6000AFFF100000000
00000000E10006FFF600000000
00000005B00002FFFB00000000
00000009D83000DFFF10000000
0000000E58DD96EFFF60000000
0000005D00038EFFFFC0000000
000000A80000019FFFF2000000
000001F30000000CFFF7000000
000006D000000005FFFC000000
00000C9000000001EFFF200000
00003F4000000000AFFF700000
0000AE00000000006FFFD00000
0027FC00000000001FFFF30000
DFFFFE10000000000CFFF90000
0147CFD60000000008FFFE1000
0000027A0000000004FFFF9000
000000000000000004FFFFF930
00000000000000026EFFFFFFF7
000000000000006DA743100000
ENDCHAR
STARTCHAR Atilde
ENCODING 195
SWIDTH 784 0
DWIDTH 25 0
BBX 26 35 0 -3
BITMAP
00000006EE9200000000000000
0000004FFFFF93158000000000
000000B42BFFFFFF8000000000
00000070008FFFFF3000000000
000000000004BEE50000000000
00000000000000000000000000
00000000000089000000000000
00000000004CFF100000000000
000000136BFFFF600000000000
000007EDBDFFFFB00000000000
0000000002FEFFF10000000000
0000000003E4FFF60000000000
0000000007A0DFFB0000000000
000000000B508FFF1000000000
000000001E104FFF6000000000
000000005A000EFFB000000000
00000000A6000AFFF100000000
00000000E10006FFF600000000
00000005B00002FFFB00000000
00000009D83000DFFF10000000
0000000E58DD96EFFF60000000
0000005D00038EFFFFC0000000
000000A80000019FFFF2000000
000001F30000000CFFF7000000
000006D000000005FFFC000000
00000C9000000001EFFF200000
00003F4000000000AFFF700000
0000AE00000000006FFFD00000
0027FC00000000001FFFF30000
DFFFFE10000000000CFFF90000
0147CFD60000000008FFFE1000
0000027A0000000004FFFF9000
000000000000000004FFFFF930
00000000000000026EFFFFFFF7
000000000000006DA743100000
ENDCHAR
STARTCHAR Adieresis
ENCODING 196
SWIDTH 784 0
DWIDTH 25 0
BBX 26 36 0 -3
BITMAP
00000001BEA000000000000000
00000009FFF504ED2000000000
0000000BFFF70CFF8000000000
00000009FFF40DFF7000000000
00000002CE8006EC1000000000
00000000000000000000000000
00000000000000000000000000
00000000000089000000000000
00000000004CFF100000000000
000000136BFFFF600000000000
000007EDBDFFFFB00000000000
0000000002FEFFF10000000000
0000000003E4FFF60000000000
0000000007A0DFFB0000000000
000000000B508FFF1000000000
000000001E104FFF6000000000
000000005A000EFFB000000000
00000000A6000AFFF100000000
00000000E10006FFF600000000
00000005B00002FFFB00000000
00000009D83000DFFF10000000
0000000E58DD96EFFF60000000
0000005D00038EFFFFC0000000
000000A80000019FFFF2000000
000001F30000000CFFF7000000
000006D000000005FFFC000000
00000C9000000001EFFF200000
00003F4000000000AFFF700000
0000AE00000000006FFFD00000
0027FC00000000001FFFF30000
DFFFFE10000000000CFFF90000
0147CFD60000000008FFFE1000
0000027A0000000004FFFF9000
000000000000000004FFFFF930
00000000000000026EFFFFFFF7
000000000000006DA743100000
ENDCHAR
STARTCHAR Aring
ENCODING 197
SWIDTH 784 0
DWIDTH 25 0
BBX 26 38 0 -3
BITMAP
0000000001AEEA200000000000
000000000CA218E10000000000
000000006E0000B70000000000
00000000AB0000890000000000
00000000AD0000B90000000000
000000007F9117F50000000000
000000001EFFFFC00000000000
0000000003BEEA100000000000
00000000000000000000000000
00000000000089000000000000
00000000004CFF100000000000
000000136BFFFF600000000000
000007EDBDFFFFB00000000000
0000000002FEFFF10000000000
0000000003E4FFF60000000000
0000000007A0DFFB0000000000
000000000B508FFF1000000000
000000001E104FFF6000000000
000000005A000EFFB000000000
00000000A6000AFFF100000000
00000000E10006FFF600000000
00000005B00002FFFB00000000
00000009D83000DFFF10000000
0000000E58DD96EFFF60000000
0000005D00038EFFFFC0000000
000000A80000019FFFF2000000
000001F30000000CFFF7000000
000006D000000005FFFC000000
00000C9000000001EFFF200000
00003F4000000000AFFF700000
0000AE00000000006FFFD00000
0027FC00000000001FFFF30000
DFFFFE10000000000CFFF90000
0147CFD60000000008FFFE1000
0000027A0000000004FFFF9000
000000000000000004FFFFF930
00000000000000026EFFFFFFF7
000000000000006DA743100000
ENDCHAR
STARTCHAR AE
ENCODING 198
SWIDTH 1172 0
DWIDTH 38 0
BBX 38 33 0 -6
BITMAP
00000000000000000000000000000386000000
0000000000000000000000000037DFF9000000
0000000000000000000000159DFEDEF8000000
00000000000000012458ADFEA52002F6000000
0000000000009FFFFFFFFFC1000000C4000000
00000000000001248FCEFF90000000B2000000
00000000000000000D6BFFA0000000A0000000
00000000000000001E1AFFC000000070000000
00000000000000004908FFE000000010000000
00000000000000009307FFF100000400000000
0000000000000001C006FFF300000B00000000
00000000000000066005FFF500002D00000000
000000000000000B1004FFF80000AC00000000
00000000000000380003FFFB025BFD00000000
00000000000000A20002FFFFFFDDFE00000000
00000000000002B00001FFFF50003F10000000
00000000000008500001FFFF20000C30000650
0000000000001D000127FFFF40000760000870
0000000000007FEEFEDEFFFF70000260000A80
000000000000E9420000CFFFA0000000000D90
000000000006B0000000AFFFC0000000002FA0
00000000000D300000008FFFF1000000009FD0
00000000006A000000007FFFF400000005FFF1
0000000000D3000000006FFFF80000018FFFF4
0000000006B0000000005FFFFD00028EFFFDB4
000000001E40000000005FFFFFBADFD9630000
000000009D00000000007FFFFFFC7200000000
00000004F600000000009FFFD7200000000000
0000002EF10000000002EFC500000000000000
000004EFC0000000003DD60000000000000000
0027CFFFD300000009D7000000000000000000
BEECBAABCDF900000400000000000000000000
10000000000000000000000000000000000000
ENDCHAR
STARTCHAR Ccedilla
ENCODING 199
SWIDTH 742 0
DWIDTH 24 0
BBX 24 41 0 -13
BITMAP
000000000000000000009100
00000000000000000000C100
00000000000000000000E100
00000000000000000001F100
00000000000000000007F100
000000027ACEFEDB98AFF200
000002AFFB620125BFFFF300
00006FFF5000000004EFF600
0008FFF400000000001DF900
005FFF90000000000002ED00
01EFFF100000000000004F20
08FFFA000000000000000650
0DFFF6000000000000000000
4FFFF2000000000000000000
7FFFF1000000000000000000
AFFFF0000000000000000000
BFFFE0000000000000000000
CFFFF0000000000000000000
CFFFF0000000000000000000
CFFFF2000000000000000044
AFFFF5000000000000000066
8FFFF9000000000000000085
4FFFFD0000000000000000B3
0EFFFF5000000000000001E1
08FFFFC000000000000007B0
01EFFFF80000000000001E40
004FFFFF600000000001BC00
0005FFFFF9100000002CE200
00004EFFFFE8310149EE4000
0000018EFFFFFFFFFFB20000
0000000159CEFFEC83000000
0000000000002A0000000000
000000000000670000000000
000000000000AC6100000000
000000000000EFFD20000000
00000000000017FFB0000000
00000000000000BFF0000000
000000000350009FF1000000
0000000001E503EFC0000000
00000000008FFFFF40000000
000000000007EFC500000000
ENDCHAR
STARTCHAR Egrave
ENCODING 200
SWIDTH 557 0
DWIDTH 18 0
BBX 18 37 0 -3
BITMAP
002EA1000000000000
003FFA000000000000
000AFF500000000000
0001CFE10000000000
00001DF80000000000
000002DF1000000000
0000001B5000000000
000000000000000000
454333345679ACDE10
18FFFFFB642101AF00
00AFFFF40000003E00
003FFFF30000000D00
000EFFF40000000C00
000CFFF40000000800
0009FFF50000000000
0007FFF50000000000
0005FFF60000000000
0003FFF60000000000
0001FFF70001000000
0000FFF80008100000
0000DFF8002D000000
0000BFFFEEFE000000
0000AFFA13AD000000
00008FFB001D000000
00007FFC000C000000
00005FFD000A000000
00004FFE0000000000
00003FFF0000000000
00001FFF1000000000
00000FFF2000000000
00000EFF3000000005
00000DFF400000000B
00000DFF500000004B
00000CFF70000000BA
00003EFFA000004CF7
3EEEFFFFFECBCEFFF4
0000112345689BCDA0
ENDCHAR
STARTCHAR Eacute
ENCODING 201
SWIDTH 557 0
DWIDTH 18 0
BBX 18 36 0 -3
BITMAP
00000000001C800000
0000000000BF600000
0000000005FC000000
000000000DE3000000
000000004F50000000
000000008600000000
000000000000000000
454333345679ACDE10
18FFFFFB642101AF00
00AFFFF40000003E00
003FFFF30000000D00
000EFFF40000000C00
000CFFF40000000800
0009FFF50000000000
0007FFF50000000000
0005FFF60000000000
0003FFF60000000000
0001FFF70001000000
0000FFF80008100000
0000DFF8002D000000
0000BFFFEEFE000000
0000AFFA13AD000000
00008FFB001D000000
00007FFC000C000000
00005FFD000A000000
00004FFE0000000000
00003FFF0000000000
00001FFF1000000000
00000FFF2000000000
00000EFF3000000005
00000DFF400000000B
00000DFF500000004B
00000CFF70000000BA
00003EFFA000004CF7
3EEEFFFFFECBCEFFF4
0000112345689BCDA0
ENDCHAR
STARTCHAR Ecircumflex
ENCODING 202
SWIDTH 557 0
DWIDTH 18 0
BBX 18 38 0 -3
BITMAP
000000008700000000
00000003FF30000000
0000000CDFD1000000
0000008C18FC100000
000003D2008FC10000
00002D300007FD3000
0001C30000003AE100
000920000000000000
000000000000000000
454333345679ACDE10
18FFFFFB642101AF00
00AFFFF40000003E00
003FFFF30000000D00
000EFFF40000000C00
000CFFF40000000800
0009FFF50000000000
0007FFF50000000000
0005FFF60000000000
0003FFF60000000000
0001FFF70001000000
0000FFF80008100000
0000DFF8002D000000
0000BFFFEEFE000000
0000AFFA13AD000000
00008FFB001D000000
00007FFC000C000000
00005FFD000A000000
00004FFE0000000000
00003FFF0000000000
00001FFF1000000000
00000FFF2000000000
00000EFF3000000005
00000DFF400000000B
00000DFF500000004B
00000CFF70000000BA
00003EFFA000004CF7
3EEEFFFFFECBCEFFF4
0000112345689BCDA0
ENDCHAR
STARTCHAR Edieresis
ENCODING 203
SWIDTH 557 0
DWIDTH 18 0
BBX 18 35 0 -3
BITMAP
00003CE70000000000
0000CFFF207EB10000
0000EFFF31FFF50000
0000CFFE11FFF40000
00004DE6009EA00000
000000000000000000
454333345679ACDE10
18FFFFFB642101AF00
00AFFFF40000003E00
003FFFF30000000D00
000EFFF40000000C00
000CFFF40000000800
0009FFF50000000000
0007FFF50000000000
0005FFF60000000000
0003FFF60000000000
0001FFF70001000000
0000FFF80008100000
0000DFF8002D000000
0000BFFFEEFE000000
0000AFFA13AD000000
00008FFB001D000000
00007FFC000C000000
00005FFD000A000000
00004FFE0000000000
00003FFF0000000000
00001FFF1000000000
00000FFF2000000000
00000EFF3000000005
00000DFF400000000B
00000DFF500000004B
00000CFF70000000BA
00003EFFA000004CF7
3EEEFFFFFECBCEFFF4
0000112345689BCDA0
ENDCHAR
STARTCHAR Igrave
ENCODING 204
SWIDTH 438 0
DWIDTH 14 0
BBX 18 43 -2 -7
BITMAP
00001DB10000000000
00002FFB0000000000
000009FF7000000000
000000BFE200000000
0000001CFA00000000
00000001CF20000000
000000001A60000000
000000000000000000
000000000000000000
049987665678ACDEFA
01348FFFFFFFD62000
000005FFFFFE100000
000000DFFFF6000000
000000AFFFF1000000
0000008FFFD0000000
0000008FFFA0000000
0000007FFF80000000
0000007FFF60000000
0000007FFF40000000
0000007FFF20000000
0000007FFF10000000
0000007FFE00000000
0000007FFD00000000
0000006FFC00000000
0000006FFA00000000
0000006FF900000000
0000006FF800000000
0000007FF700000000
0000007FF600000000
0000007FF500000000
0000007FF400000000
0000007FF300000000
0000007FF200000000
0000007FF100000000
0000008FF100000000
0000008FF100000000
0000009FF100000000
000000BFF300000000
000002FFFB30000000
00003DFFFFFFE10000
005BEA632100000000
5DA400000000000000
100000000000000000
ENDCHAR
STARTCHAR Iacute
ENCODING 205
SWIDTH 438 0
DWIDTH 14 0
BBX 18 41 -2 -7
BITMAP
0000000000005E2000
000000000003FD0000
00000000000CF50000
00000000005FA00000
0000000000BD100000
0000000000C2000000
000000000000000000
049987665678ACDEFA
01348FFFFFFFD62000
000005FFFFFE100000
000000DFFFF6000000
000000AFFFF1000000
0000008FFFD0000000
0000008FFFA0000000
0000007FFF80000000
0000007FFF60000000
0000007FFF40000000
0000007FFF20000000
0000007FFF10000000
0000007FFE00000000
0000007FFD00000000
0000006FFC00000000
0000006FFA00000000
0000006FF900000000
0000006FF800000000
0000007FF700000000
0000007FF600000000
0000007FF500000000
0000007FF400000000
0000007FF300000000
0000007FF200000000
0000007FF100000000
0000008FF100000000
0000008FF100000000
0000009FF100000000
000000BFF300000000
000002FFFB30000000
00003DFFFFFFE10000
005BEA632100000000
5DA400000000000000
100000000000000000
ENDCHAR
STARTCHAR Icircumflex
ENCODING 206
SWIDTH 438 0
DWIDTH 14 0
BBX 18 43 -2 -7
BITMAP
000000000860000000
000000003FE2000000
00000000CDFD100000
00000008C18FC10000
0000004D2009FC1000
000002D200007FD300
00001C30000003AE10
000092000000000000
000000000000000000
049987665678ACDEFA
01348FFFFFFFD62000
000005FFFFFE100000
000000DFFFF6000000
000000AFFFF1000000
0000008FFFD0000000
0000008FFFA0000000
0000007FFF80000000
0000007FFF60000000
0000007FFF40000000
0000007FFF20000000
0000007FFF10000000
0000007FFE00000000
0000007FFD00000000
0000006FFC00000000
0000006FFA00000000
0000006FF900000000
0000006FF800000000
0000007FF700000000
0000007FF600000000
0000007FF500000000
0000007FF400000000
0000007FF300000000
0000007FF200000000
0000007FF100000000
0000008FF100000000
0000008FF100000000
0000009FF100000000
000000BFF300000000
000002FFFB30000000
00003DFFFFFFE10000
005BEA632100000000
5DA400000000000000
100000000000000000
ENDCHAR
STARTCHAR Idieresis
ENCODING 207
SWIDTH 438 0
DWIDTH 14 0
BBX 18 41 -2 -7
BITMAP
000006ED4000000000
00002FFFC00BE70000
00004FFFE05FFF0000
00002FFFB06FFE0000
000008EC201CE60000
000000000000000000
000000000000000000
049987665678ACDEFA
01348FFFFFFFD62000
000005FFFFFE100000
000000DFFFF6000000
000000AFFFF1000000
0000008FFFD0000000
0000008FFFA0000000
0000007FFF80000000
0000007FFF60000000
0000007FFF40000000
0000007FFF20000000
0000007FFF10000000
0000007FFE00000000
0000007FFD00000000
0000006FFC00000000
0000006FFA00000000
0000006FF900000000
0000006FF800000000
0000007FF700000000
0000007FF600000000
0000007FF500000000
0000007FF400000000
0000007FF300000000
0000007FF200000000
0000007FF100000000
0000008FF100000000
0000008FF100000000
0000009FF100000000
000000BFF300000000
000002FFFB30000000
00003DFFFFFFE10000
005BEA632100000000
5DA400000000000000
100000000000000000
ENDCHAR
STARTCHAR Eth
ENCODING 208
SWIDTH 730 0
DWIDTH 23 0
BBX 24 26 0 -7
BITMAP
025445679BDEFEDB72000000
05ABEFFFC2024AFFFFB30000
00003FFF8000004EFFFF6000
00000FFF80000003EFFFF700
00000EFF800000006FFFFF30
00000DFF800000000DFFFFB0
00000DFF8000000008FFFFF2
00000DFF8000000004FFFFF6
00000DFF8000000001FFFFF9
00000DFF8000000000FFFFFA
00000DFF8254000000FFFFFA
00000EFFFDA5000000FFFFF9
39ACEFFF8000000001FFFFF7
27641FFF8000000003FFFFF3
00000FFF9000000006FFFFC0
00000FFF900000000AFFFF50
00001FFFA00000001EFFFA00
00002FFFB00000008FFFB100
00003FFFD0000005FFF90000
00005FFFF100006FFC300000
00007FFFF8115CEA40000000
0000CFFFFFDA741000000000
0007FD963000000000000000
009B40000000000000000000
3A4000000000000000000000
600000000000000000000000
ENDCHAR
STARTCHAR Ntilde
ENCODING 209
SWIDTH 799 0
DWIDTH 26 0
BBX 26 38 0 -7
BITMAP
000000000005DEA30000000000
00000000003FFFFFA414900000
0000000000952AFFFFFFA00000
000000000070006FFFFF500000
0000000000000003AEE7000000
00000000000000000000000000
00000000000000000000000000
00000000000000000000000000
00012342000000000000000000
CFFFFFFF600000000000013695
0027FFFFF6000000EEDDEFFB72
0000BFFFFF500000025DFF3000
00009FDFFFF500000004FA0000
00007E2DFFFF40000001F70000
00006D03EFFFE3000000E50000
00005D006FFFFE300000D40000
00005C0009FFFFD20000D40000
00004C0000CFFFFD1000E30000
00004C00002EFFFFC100F20000
00004C000005FFFFFC11F20000
00003C0000009FFFFFC7F10000
00003C0000000CFFFFFFF10000
00003D00000002EFFFFFF00000
00003D000000004FFFFFF00000
00003D0000000007FFFFF00000
00003D0000000000AFFFE00000
00003D00000000001CFFE00000
00003D000000000002EFD00000
00003D0000000000003EC00000
00003D00000000000004900000
00004D00000000000000000000
00005E00000000000000000000
00006F00000000000000000000
00009F20000000000000000000
0001EF60000000000000000000
014CFFE2000000000000000000
8FEDEFFE610000000000000000
00000149DE0000000000000000
ENDCHAR
STARTCHAR Ograve
ENCODING 210
SWIDTH 747 0
DWIDTH 24 0
BBX 24 34 0 1
BITMAP
000003E90000000000000000
000004FF8000000000000000
000000BFF400000000000000
0000001DFD00000000000000
00000002DF70000000000000
000000002DE1000000000000
0000000002C3000000000000
000000000000000000000000
000000000000000000000000
000000000000000000000000
000000059CEFECA610000000
000006DE721138EFF9200000
0001AFD20000002CFFE40000
001CFE2000000001CFFF6000
009FF700000000002FFFF400
04FFE1000000000009FFFE10
0BFFA0000000000002FFFF70
2FFF70000000000000CFFFE0
6FFF400000000000008FFFF3
AFFF300000000000005FFFF7
BFFF200000000000003FFFF9
CFFF300000000000000FFFFA
CFFF300000000000000EFFFA
BFFF500000000000000EFFF9
9FFF800000000000000DFFF7
6FFFB00000000000000EFFF4
2FFFE00000000000001FFFE0
0BFFF60000000000004FFF80
04FFFC0000000000008FFE10
009FFF500000000001EFF600
001CFFE20000000009FF9000
0001AFFD300000007FF80000
000005DFF941025BFC400000
000000048CDEFEC840000000
ENDCHAR
STARTCHAR Oacute
ENCODING 211
SWIDTH 747 0
DWIDTH 24 0
BBX 24 32 0 1
BITMAP
0000000000003D5000000000
000000000001EF2000000000
000000000009F90000000000
00000000002FD10000000000
00000000008E300000000000
0000000000B3000000000000
000000000000000000000000
000000000000000000000000
000000059CEFECA610000000
000006DE721138EFF9200000
0001AFD20000002CFFE40000
001CFE2000000001CFFF6000
009FF700000000002FFFF400
04FFE1000000000009FFFE10
0BFFA0000000000002FFFF70
2FFF70000000000000CFFFE0
6FFF400000000000008FFFF3
AFFF300000000000005FFFF7
BFFF200000000000003FFFF9
CFFF300000000000000FFFFA
CFFF300000000000000EFFFA
BFFF500000000000000EFFF9
9FFF800000000000000DFFF7
6FFFB00000000000000EFFF4
2FFFE00000000000001FFFE0
0BFFF60000000000004FFF80
04FFFC0000000000008FFE10
009FFF500000000001EFF600
001CFFE20000000009FF9000
0001AFFD300000007FF80000
000005DFF941025BFC400000
000000048CDEFEC840000000
ENDCHAR
STARTCHAR Ocircumflex
ENCODING 212
SWIDTH 747 0
DWIDTH 24 0
BBX 24 33 0 1
BITMAP
000000000078000000000000
0000000002EF400000000000
000000000BDFE20000000000
000000006D16FD1000000000
00000003E2007FD200000000
0000001D400006FE40000000
000001B40000002AE2000000
000008300000000000000000
000000000000000000000000
000000059CEFECA610000000
000006DE721138EFF9200000
0001AFD20000002CFFE40000
001CFE2000000001CFFF6000
009FF700000000002FFFF400
04FFE1000000000009FFFE10
0BFFA0000000000002FFFF70
2FFF70000000000000CFFFE0
6FFF400000000000008FFFF3
AFFF300000000000005FFFF7
BFFF200000000000003FFFF9
CFFF300000000000000FFFFA
CFFF300000000000000EFFFA
BFFF500000000000000EFFF9
9FFF800000000000000DFFF7
6FFFB00000000000000EFFF4
2FFFE00000000000001FFFE0
0BFFF60000000000004FFF80
04FFFC0000000000008FFE10
009FFF500000000001EFF600
001CFFE20000000009FF9000
0001AFFD300000007FF80000
000005DFF941025BFC400000
000000048CDEFEC840000000
ENDCHAR
STARTCHAR Otilde
ENCODING 213
SWIDTH 747 0
DWIDTH 24 0
BBX 24 31 0 1
BITMAP
00000001BEC7100000000000
0000000AFFFFD72193000000
0000002B15EFFFFFF2000000
00000043002CFFFFC0000000
0000000000007CFC20000000
000000000000000000000000
000000000000000000000000
000000059CEFECA610000000
000006DE721138EFF9200000
0001AFD20000002CFFE40000
001CFE2000000001CFFF6000
009FF700000000002FFFF400
04FFE1000000000009FFFE10
0BFFA0000000000002FFFF70
2FFF70000000000000CFFFE0
6FFF400000000000008FFFF3
AFFF300000000000005FFFF7
BFFF200000000000003FFFF9
CFFF300000000000000FFFFA
CFFF300000000000000EFFFA
BFFF500000000000000EFFF9
9FFF800000000000000DFFF7
6FFFB00000000000000EFFF4
2FFFE00000000000001FFFE0
0BFFF60000000000004FFF80
04FFFC0000000000008FFE10
009FFF500000000001EFF600
001CFFE20000000009FF9000
0001AFFD300000007FF80000
000005DFF941025BFC400000
000000048CDEFEC840000000
ENDCHAR
STARTCHAR Odieresis
ENCODING 214
SWIDTH 747 0
DWIDTH 24 0
BBX 24 32 0 1
BITMAP
00000004DE60000000000000
0000000DFFF108EA00000000
0000000FFFF21FFF40000000
0000000DFFE02FFF30000000
00000005DE500AE900000000
000000000000000000000000
000000000000000000000000
000000000000000000000000
000000059CEFECA610000000
000006DE721138EFF9200000
0001AFD20000002CFFE40000
001CFE2000000001CFFF6000
009FF700000000002FFFF400
04FFE1000000000009FFFE10
0BFFA0000000000002FFFF70
2FFF70000000000000CFFFE0
6FFF400000000000008FFFF3
AFFF300000000000005FFFF7
BFFF200000000000003FFFF9
CFFF300000000000000FFFFA
CFFF300000000000000EFFFA
BFFF500000000000000EFFF9
9FFF800000000000000DFFF7
6FFFB00000000000000EFFF4
2FFFE00000000000001FFFE0
0BFFF60000000000004FFF80
04FFFC0000000000008FFE10
009FFF500000000001EFF600
001CFFE20000000009FF9000
0001AFFD300000007FF80000
000005DFF941025BFC400000
000000048CDEFEC840000000
ENDCHAR
STARTCHAR multiply
ENCODING 215
SWIDTH 541 0
DWIDTH 17 0
BBX 15 19 1 0
BITMAP
0000000000000680
0000000000005F40
000000000003E800
00000000001DA000
00B5000000AC1000
004F700006E20000
0005F9003E300000
00005FB3D6000000
000005FFB0000000
000000DFE5000000
000006F45E900000
00002E6003DC2000
0000CA000019D000
0008E10000000000
005F500000000000
02EA000000000000
0BE1000000000000
4F40000000000000
2400000000000000
ENDCHAR
STARTCHAR Oslash
ENCODING 216
SWIDTH 747 0
DWIDTH 24 0
BBX 24 31 0 -2
BITMAP
000000000000000000000080
0000000000000000000008A0
000000000000000000004E20
00000000000000000001D700
000000059CEFEDA6100AC000
000006DE721139EFF97F3000
0001AFD20000002CFFF90000
001CFE2000000001DFFF5000
009FF700000000007FFFF400
04FFE10000000003FDFFFD10
0BFFA0000000001DB3FFFF80
2FFF70000000009E20CFFFE0
6FFF4000000005F5008FFFF4
AFFF300000002E90005FFFF7
BFFF20000000CD10002FFFF9
CFFF20000008F300000FFFFA
CFFF3000004F6000000EFFFA
BFFF500001EA0000000DFFF9
9FFF70000BD10000000DFFF7
6FFFA0006F400000000EFFF4
2FFFE002E7000000001FFFE0
0CFFF50CB0000000004FFF80
04FFFB8E20000000008FFE10
00AFFFF40000000001EFF600
001CFFE20000000009FF9000
0001DFFD300000007FF80000
0004F8DFF941025BFC400000
001D80049CEFFEC840000000
009C00000000000000000000
03E200000000000000000000
034000000000000000000000
ENDCHAR
STARTCHAR Ugrave
ENCODING 217
SWIDTH 690 0
DWIDTH 22 0
BBX 24 34 0 1
BITMAP
000000003E90000000000000
000000005FF8000000000000
000000000CFF400000000000
0000000002DFD00000000000
00000000002EF70000000000
000000000003EE0000000000
0000000000002C3000000000
000000000000000000000000
000000000000000000000000
000000000000000000000000
000000000000120000000000
00000000004AE60000000000
000000048DFA200000000000
02469CFFFF70000000000000
DFFFFFFFFA00000000000011
016FFFFFF3007EECBA9AB975
0008FFFFE0000037DFFF4000
0004FFFFB00000000BFD0000
0001FFFF9000000003FA0000
0001FFFF7000000000E90000
0000FFFF7000000000C80000
0000EFFF6000000000B80000
0000EFFF7000000000A80000
0000DFFF7000000000970000
0000CFFF9000000000970000
0000AFFFB000000000A50000
00008FFFD000000000C30000
00004FFFF200000000E10000
00000EFFF600000004C00000
000007FFFC0000000B600000
000001EFFF7000007E100000
0000004EFFF92029F6000000
00000004DFFFFFFF70000000
0000000016BEFEA400000000
ENDCHAR
STARTCHAR Uacute
ENCODING 218
SWIDTH 690 0
DWIDTH 22 0
BBX 24 29 0 1
BITMAP
0000000000000000002D6000
000000000000000000DF4000
000000000000000007FA0000
00000000000000001EE10000
00000000000000006F400000
000000000000120095000000
00000000004AE60000000000
000000048DFA200000000000
02469CFFFF70000000000000
DFFFFFFFFA00000000000011
016FFFFFF3007EECBA9AB975
0008FFFFE0000037DFFF4000
0004FFFFB00000000BFD0000
0001FFFF9000000003FA0000
0001FFFF7000000000E90000
0000FFFF7000000000C80000
0000EFFF6000000000B80000
0000EFFF7000000000A80000
0000DFFF7000000000970000
0000CFFF9000000000970000
0000AFFFB000000000A50000
00008FFFD000000000C30000
00004FFFF200000000E10000
00000EFFF600000004C00000
000007FFFC0000000B600000
000001EFFF7000007E100000
0000004EFFF92029F6000000
00000004DFFFFFFF70000000
0000000016BEFEA400000000
ENDCHAR
STARTCHAR Ucircumflex
ENCODING 219
SWIDTH 690 0
DWIDTH 22 0
BBX 24 32 0 1
BITMAP
0000000000002C1000000000
000000000000BF9000000000
000000000006EEF500000000
00000000002E42EF40000000
0000000000C7003EF5000000
0000000009800002DF800000
000000008800000017D70000
000000056000000000000000
000000000000120000000000
00000000004AE60000000000
000000048DFA200000000000
02469CFFFF70000000000000
DFFFFFFFFA00000000000011
016FFFFFF3007EECBA9AB975
0008FFFFE0000037DFFF4000
0004FFFFB00000000BFD0000
0001FFFF9000000003FA0000
0001FFFF7000000000E90000
0000FFFF7000000000C80000
0000EFFF6000000000B80000
0000EFFF7000000000A80000
0000DFFF7000000000970000
0000CFFF9000000000970000
0000AFFFB000000000A50000
00008FFFD000000000C30000
00004FFFF200000000E10000
00000EFFF600000004C00000
000007FFFC0000000B600000
000001EFFF7000007E100000
0000004EFFF92029F6000000
00000004DFFFFFFF70000000
0000000016BEFEA400000000
ENDCHAR
STARTCHAR Udieresis
ENCODING 220
SWIDTH 690 0
DWIDTH 22 0
BBX 24 32 0 1
BITMAP
0000000006ED400000000000
000000002FFFC00AE8000000
000000004FFFE05FFF000000
000000002FFFB05FFE000000
0000000007EC301CE6000000
000000000000000000000000
000000000000000000000000
000000000000000000000000
000000000000120000000000
00000000004AE60000000000
000000048DFA200000000000
02469CFFFF70000000000000
DFFFFFFFFA00000000000011
016FFFFFF3007EECBA9AB975
0008FFFFE0000037DFFF4000
0004FFFFB00000000BFD0000
0001FFFF9000000003FA0000
0001FFFF7000000000E90000
0000FFFF7000000000C80000
0000EFFF6000000000B80000
0000EFFF7000000000A80000
0000DFFF7000000000970000
0000CFFF9000000000970000
0000AFFFB000000000A50000
00008FFFD000000000C30000
00004FFFF200000000E10000
00000EFFF600000004C00000
000007FFFC0000000B600000
000001EFFF7000007E100000
0000004EFFF92029F6000000
00000004DFFFFFFF70000000
0000000016BEFEA400000000
ENDCHAR
STARTCHAR Yacute
ENCODING 221
SWIDTH 796 0
DWIDTH 26 0
BBX 29 38 0 -4
BITMAP
0000000000000000002D5000000000
000000000000000001DF3000000000
000000000000000008F90000000000
00000000000000001ED10000000000
00000000000000007E300000000000
0000000000000000A4000000000000
000000000384000000000000000000
0001247ADC60000000012000000000
7FFFFFFF800000000004EC85210000
016DFFFF6000000000001AFFFFFF30
0000AFFFE1000000000006F7200000
00000AFFFB00000000001D50000000
000000BFFF8000000000A600000000
0000001DFFF600000007A000000000
00000002EFFF5000004C1000000000
000000005FFFF40002D30000000000
0000000009FFFF502D600000000000
0000000000CFFFFADB000000000000
00000000003FFFFFE2000000000000
000000000008FFFF80000000000000
000000000001DFFF30000000000000
0000000000007FFF10000000000000
0000000000004FFF00000000000000
0000000000002FFF10000000000000
0000000000002FFF10000000000000
0000000000002FFF20000000000000
0000000000003FFF20000000000000
0000000000003FFF30000000000000
0000000000004FFF40000000000000
0000000000006FFF40000000000000
0000000000007FFF50000000000000
0000000000009FFF70000000000000
000000000000CFFF80000000000000
000000000002FFFFA0000000000000
00000000025DFFFFE0000000000000
00000005EFFFFFFFF8000000000000
0000000000001258BFC20000000000
000000000000000001420000000000
ENDCHAR
STARTCHAR Thorn
ENCODING 222
SWIDTH 479 0
DWIDTH 15 0
BBX 15 33 1 -3
BITMAP
1100000000000000
DFFFFFFFB0000000
15DFFF8100000000
004FFE0000000000
001FFB0000000000
001FFA0000000000
001FFD3100000000
001FFFFFFDA50000
001FFE303CFFD300
001FF70001EFFE10
002FF400009FFF80
002FF300004FFFC0
002FF300003FFFE0
003FF300002FFFE0
003FF300003FFFD0
003FF400007FFF80
004FF50000DFFE10
004FF7103BFFE400
005FFAADFEC81000
005FF60000000000
006FF60000000000
006FF60000000000
007FF60000000000
008FF60000000000
008FF60000000000
009FF60000000000
00AFF60000000000
00BFF70000000000
00CFF80000000000
01FFFA0000000000
0BFFFF3000000000
BFFFFFF920000000
4310024740000000
ENDCHAR
STARTCHAR germandbls
ENCODING 223
SWIDTH 591 0
DWIDTH 19 0
BBX 20 35 -1 -4
BITMAP
00019DFDA30000000000
002D7115EF6000000000
00B900004FF300000000
03F300000DFB00000000
08F0000009FE00000000
0AE0000008FF20000000
0CE0000007FF20000000
0DF0000008FF10000000
0CF200000AFC00000000
0CF400000EF600000000
0BF700005FD000000000
09F90000DE2000000000
08FC0009D30000000000
06FF108A100000000000
04FF4AFEFEDA72000000
02FF70025AFFFFB30000
00EFB000003CFFFF6000
00CFE0000000AFFFF500
00AFF30000000BFFFE10
007FF700000001EFFF80
004FFB000000007FFFE0
001FFF100000001EFFF2
000EFF5000000007FFF5
000BFF9000000002FFF6
0008FFD000000000CFF6
0005FFF3000000009FF5
0003FFF8000000007FF3
0001FFFC01CE30006FE0
0000EFFF27FFB0007F90
0001FFFF77FFF200AE10
0007FFFFA3FFFB15D300
005FFA52004BEEC81000
06F91000000000000000
8B200000000000000000
20000000000000000000
ENDCHAR
STARTCHAR agrave
ENCODING 224
SWIDTH 527 0
DWIDTH 17 0
BBX 18 32 0 -4
BITMAP
0CC200000000000000
0EFD10000000000000
06FF90000000000000
009FF4000000000000
000AFC000000000000
0000AF500000000000
000008800000000000
000000000000000000
00006CFEB400000000
000AA216EF80000000
005E10006FF5000000
00AC00001FFD000000
00DF40000CFF300000
00EFF9000AFF800000
00CFFF6008FFB00000
007FFF9007FFE00000
0009ED2005FFF20000
0000000004FFF40000
0000000002FFF60000
00039CEFECFFF90000
008FE62014EFFB0000
08FE200000CFFE0000
2FF9000000AFFF1000
6FF80000008FFF3000
7FFB000001BFFF6000
6FFF92027DEFFF8000
2FFFFFFFFE4FFFB009
08FFFFFFD20EFFE00C
006CEFC70009FFF72D
000000000003FFFFFA
000000000000AFFFF5
00000000000019EE70
ENDCHAR
STARTCHAR aacute
ENCODING 225
SWIDTH 527 0
DWIDTH 17 0
BBX 18 31 0 -4
BITMAP
0000000003D5000000
000000001EF2000000
000000009F80000000
00000002FD10000000
00000008E200000000
0000000B3000000000
000000000000000000
00006CFEB400000000
000AA216EF80000000
005E10006FF5000000
00AC00001FFD000000
00DF40000CFF300000
00EFF9000AFF800000
00CFFF6008FFB00000
007FFF9007FFE00000
0009ED2005FFF20000
0000000004FFF40000
0000000002FFF60000
00039CEFECFFF90000
008FE62014EFFB0000
08FE200000CFFE0000
2FF9000000AFFF1000
6FF80000008FFF3000
7FFB000001BFFF6000
6FFF92027DEFFF8000
2FFFFFFFFE4FFFB009
08FFFFFFD20EFFE00C
006CEFC70009FFF72D
000000000003FFFFFA
000000000000AFFFF5
00000000000019EE70
ENDCHAR
STARTCHAR acircumflex
ENCODING 226
SWIDTH 527 0
DWIDTH 17 0
BBX 18 32 0 -4
BITMAP
0000000C2000000000
0000007FC000000000
000002FDF900000000
00000C81CF80000000
00008A001CF8000000
0006B00001BFB10000
004B10000005CB0000
029000000000000000
00006CFEB400000000
000AA216EF80000000
005E10006FF5000000
00AC00001FFD000000
00DF40000CFF300000
00EFF9000AFF800000
00CFFF6008FFB00000
007FFF9007FFE00000
0009ED2005FFF20000
0000000004FFF40000
0000000002FFF60000
00039CEFECFFF90000
008FE62014EFFB0000
08FE200000CFFE0000
2FF9000000AFFF1000
6FF80000008FFF3000
7FFB000001BFFF6000
6FFF92027DEFFF8000
2FFFFFFFFE4FFFB009
08FFFFFFD20EFFE00C
006CEFC70009FFF72D
000000000003FFFFFA
000000000000AFFFF5
00000000000019EE70
ENDCHAR
STARTCHAR atilde
ENCODING 227
SWIDTH 527 0
DWIDTH 17 0
BBX 18 29 0 -4
BITMAP
00005EEA3000000000
0003FFFFFA31490000
000A42AFFFFFF90000
00070007FFFFF40000
000000003AEE600000
00006CFEB400000000
000AA216EF80000000
005E10006FF5000000
00AC00001FFD000000
00DF40000CFF300000
00EFF9000AFF800000
00CFFF6008FFB00000
007FFF9007FFE00000
0009ED2005FFF20000
0000000004FFF40000
0000000002FFF60000
00039CEFECFFF90000
008FE62014EFFB0000
08FE200000CFFE0000
2FF9000000AFFF1000
6FF80000008FFF3000
7FFB000001BFFF6000
6FFF92027DEFFF8000
2FFFFFFFFE4FFFB009
08FFFFFFD20EFFE00C
006CEFC70009FFF72D
000000000003FFFFFA
000000000000AFFFF5
00000000000019EE70
ENDCHAR
STARTCHAR adieresis
ENCODING 228
SWIDTH 527 0
DWIDTH 17 0
BBX 18 29 0 -4
BITMAP
0003DD300000000000
000BFF92DE30000000
000CFF77FF70000000
0005EC13ED20000000
000000000000000000
00006CFEB400000000
000AA216EF80000000
005E10006FF5000000
00AC00001FFD000000
00DF40000CFF300000
00EFF9000AFF800000
00CFFF6008FFB00000
007FFF9007FFE00000
0009ED2005FFF20000
0000000004FFF40000
0000000002FFF60000
00039CEFECFFF90000
008FE62014EFFB0000
08FE200000CFFE0000
2FF9000000AFFF1000
6FF80000008FFF3000
7FFB000001BFFF6000
6FFF92027DEFFF8000
2FFFFFFFFE4FFFB009
08FFFFFFD20EFFE00C
006CEFC70009FFF72D
000000000003FFFFFA
000000000000AFFFF5
00000000000019EE70
ENDCHAR
STARTCHAR aring
ENCODING 229
SWIDTH 527 0
DWIDTH 17 0
BBX 18 33 0 -4
BITMAP
000003BFE910000000
00002E712AB0000000
00009B0000E3000000
0000D80000B6000000
0000DA0000E6000000
0000BF712AF2000000
00004FFFFF90000000
000004CFE800000000
000000000000000000
00006CFEB400000000
000AA216EF80000000
005E10006FF5000000
00AC00001FFD000000
00DF40000CFF300000
00EFF9000AFF800000
00CFFF6008FFB00000
007FFF9007FFE00000
0009ED2005FFF20000
0000000004FFF40000
0000000002FFF60000
00039CEFECFFF90000
008FE62014EFFB0000
08FE200000CFFE0000
2FF9000000AFFF1000
6FF80000008FFF3000
7FFB000001BFFF6000
6FFF92027DEFFF8000
2FFFFFFFFE4FFFB009
08FFFFFFD20EFFE00C
006CEFC70009FFF72D
000000000003FFFFFA
000000000000AFFFF5
00000000000019EE70
ENDCHAR
STARTCHAR ae
ENCODING 230
SWIDTH 700 0
DWIDTH 22 0
BBX 22 21 0 -3
BITMAP
00000000000003AEFD9200
0000000000008FFFFFFE20
002AEE910009E6114DFFA0
00D912CC105E300003FFF0
06F2003F81D7000000EFF0
0BF6000CE6E0000000EFE0
0CFE2009FEA0000002FFB0
0BFF7008FF70000009FF40
03DD300BFF5000007FF900
000018EFFF50126CFF7000
0006E818FFDEFFDB720000
009F6003FF800000000064
06FA0001FFB0000000004A
0DF40000FFF1000000003D
4FF10000FFF8000000005D
7FF00003FFFF400000009C
7FF20009BFFFE4000002F8
6FFC217F5AFFFF93115DF3
2FFFFFFD01EFFFFFFFFF90
08FFFFF5003DFFFFFFFA00
006DFC5000018CEFEB5000
ENDCHAR
STARTCHAR ccedilla
ENCODING 231
SWIDTH 437 0
DWIDTH 14 0
BBX 14 27 0 -7
BITMAP
000005BEFD9200
0002B516FFFE20
001D5000DFFFA0
00BC0000BFFFB0
05F700009FFF90
0BF400001BEB10
1FF20000000000
5FF10000000000
6FF20000000A30
7FF300000005D0
7FF500000000D4
5FF900000000B7
2FFD00000000C7
0CFF60000001E5
06FFE3000007E1
00BFFF82028F70
001BFFFFFFF900
00005BEFEA4000
0000000B000000
0000004D300000
0000009FFC2000
00000028FFD000
000000008FF400
000090005FF500
0000A912BFF200
00003EFFFF9000
000003CFD80000
ENDCHAR
STARTCHAR egrave
ENCODING 232
SWIDTH 434 0
DWIDTH 14 0
BBX 14 27 0 1
BITMAP
00BD3000000000
00DFD100000000
005FFA00000000
0008FF50000000
00009FD0000000
000009F6000000
00000079000000
00000000000000
00000000000000
00000000000000
000005BDED9200
0002CF9218FF40
003EF90000BFE1
01DFF100008FF4
07FFB000007FF6
0DFF7000009FF5
3FFF500000DFE1
6FFF400008FF70
7FFF51029FF700
7FFFCDFEC822A0
6FFF60000000E2
3FFF80000000B5
0DFFC0000000C5
06FFF3000000E2
00BFFD100005C0
001AFFD5115D20
000049DEFC8100
ENDCHAR
STARTCHAR eacute
ENCODING 233
SWIDTH 434 0
DWIDTH 14 0
BBX 14 25 0 1
BITMAP
0000000005E200
000000003FE100
00000000BF6000
00000004FB0000
0000000AD10000
0000000C200000
00000000000000
00000000000000
000005BDED9200
0002CF9218FF40
003EF90000BFE1
01DFF100008FF4
07FFB000007FF6
0DFF7000009FF5
3FFF500000DFE1
6FFF400008FF70
7FFF51029FF700
7FFFCDFEC822A0
6FFF60000000E2
3FFF80000000B5
0DFFC0000000C5
06FFF3000000E2
00BFFD100005C0
001AFFD5115D20
000049DEFC8100
ENDCHAR
STARTCHAR ecircumflex
ENCODING 234
SWIDTH 434 0
DWIDTH 14 0
BBX 14 28 0 1
BITMAP
0000002C100000
000000BF900000
000005FEF60000
00002E52EF5000
0000B7003EF500
0009900002CF80
007900000007D7
04700000000000
00000000000000
00000000000000
00000000000000
000005BDED9200
0002CF9218FF40
003EF90000BFE1
01DFF100008FF4
07FFB000007FF6
0DFF7000009FF5
3FFF500000DFE1
6FFF400008FF70
7FFF51029FF700
7FFFCDFEC822A0
6FFF60000000E2
3FFF80000000B5
0DFFC0000000C5
06FFF3000000E2
00BFFD100005C0
001AFFD5115D20
000049DEFC8100
ENDCHAR
STARTCHAR edieresis
ENCODING 235
SWIDTH 434 0
DWIDTH 14 0
BBX 14 24 0 1
BITMAP
00004DD2000000
0000DFF73DD200
0000EFF69FF500
00006EB04EC100
00000000000000
00000000000000
00000000000000
000005BDED9200
0002CF9218FF40
003EF90000BFE1
01DFF100008FF4
07FFB000007FF6
0DFF7000009FF5
3FFF500000DFE1
6FFF400008FF70
7FFF51029FF700
7FFFCDFEC822A0
6FFF60000000E2
3FFF80000000B5
0DFFC0000000C5
06FFF3000000E2
00BFFD100005C0
001AFFD5115D20
000049DEFC8100
ENDCHAR
STARTCHAR igrave
ENCODING 236
SWIDTH 301 0
DWIDTH 10 0
BBX 12 26 -2 3
BITMAP
1DB100000000
2FFB00000000
09FF70000000
00BFE2000000
001CFA000000
0001CF200000
00001A600000
000000000000
000000000000
000000019400
000125AFF300
006FFFFFF100
00017FFFF000
00000EFFD000
00000CFFB000
00000CFFA000
00000CFF8000
00000CFF7000
00000CFF5000
00000CFF4000
00000CFF3000
00000DFF2000
00000EFF1000
00000FFF2000
00018FFFB300
004FECCDEFE1
ENDCHAR
STARTCHAR iacute
ENCODING 237
SWIDTH 301 0
DWIDTH 10 0
BBX 10 24 0 3
BITMAP
0000008D00
000006FB00
00001EF300
00008F7000
0000EA0000
0004A00000
0000000000
0000019400
0125AFF300
6FFFFFF100
017FFFF000
000EFFD000
000CFFB000
000CFFA000
000CFF8000
000CFF7000
000CFF5000
000CFF4000
000CFF3000
000DFF2000
000EFF1000
000FFF2000
018FFFB300
4FECCDEFE1
ENDCHAR
STARTCHAR icircumflex
ENCODING 238
SWIDTH 301 0
DWIDTH 10 0
BBX 13 26 -2 3
BITMAP
000000B4000000
000006FD100000
00001EDFB00000
0000BA0AF90000
0006C000BFA000
004C100009FC20
03C10000004BC0
19100000000000
00000000000000
00000001940000
000125AFF30000
006FFFFFF10000
00017FFFF00000
00000EFFD00000
00000CFFB00000
00000CFFA00000
00000CFF800000
00000CFF700000
00000CFF500000
00000CFF400000
00000CFF300000
00000DFF200000
00000EFF100000
00000FFF200000
00018FFFB30000
004FECCDEFE100
ENDCHAR
STARTCHAR idieresis
ENCODING 239
SWIDTH 301 0
DWIDTH 10 0
BBX 10 23 0 3
BITMAP
01BE500000
07FFC0BE60
08FFB3FFA0
02DD31CE40
0000000000
0000000000
0000019400
0125AFF300
6FFFFFF100
017FFFF000
000EFFD000
000CFFB000
000CFFA000
000CFF8000
000CFF7000
000CFF5000
000CFF4000
000CFF3000
000DFF2000
000EFF1000
000FFF2000
018FFFB300
4FECCDEFE1
ENDCHAR
STARTCHAR eth
ENCODING 240
SWIDTH 476 0
DWIDTH 15 0
BBX 18 28 -3 -3
BITMAP
000000000000240000
000000000000A10000
000000000007500000
000039DFEB7A000000
001AC51138FE500000
02D80000094DF70000
1D6000004701EF6000
76000001B0005FE200
0000000730000DFA00
00000002000008FF20
00000000000004FF70
00000000000001FFC0
00000000000000EFF1
00000000000000DFF4
000000029DFDA3DFF6
0000005FF6128FFFF8
000003FF800007FFF9
00000BFF200000CFFA
00002FFE0000007FFB
00005FFD0000002FFA
00006FFD0000000EF9
00005FFF0000000DF8
00003FFF3000000CF5
00000DFF8000000DF1
000007FFE100001FA0
000000BFF900006F30
0000001AFFA205E600
000000004ADFEB3000
ENDCHAR
STARTCHAR ntilde
ENCODING 241
SWIDTH 584 0
DWIDTH 19 0
BBX 19 27 0 -1
BITMAP
00000001AEC710000000
0000000AFFFFE7219300
0000001C15EFFFFFF200
00000044002CFFFFC000
0000000000006CFC2000
00000000000000000000
00003A00000000000000
0001DE00000000000000
002DFF10006CFEA20000
18EFFF400AFFFFFE2000
632EFF6088119FFF9000
000AFF82A0000CFFE000
0006FFA9300006FFF300
0003FFCB000003FFF400
0000EFFA000001FFF400
0000BFF8000000FFF300
00008FF6000000EFF200
00005FF6000000FFF000
00003FF5000000FFD000
00001FF6000001FFB000
00000DF7000003FF9000
00000CF9000005FF8000
00000BFC00002CFF7000
00001DFF409FFFFF8000
006DFFFFE70137BFD100
0012100244000003BC20
00000000000000000560
ENDCHAR
STARTCHAR ograve
ENCODING 242
SWIDTH 400 0
DWIDTH 13 0
BBX 22 26 0 6
BITMAP
000000000000000004DE60
00000000000000000CFFF3
00000000000000000AFFF6
000000000000000002CFF7
0000000000000000000BF5
09D40000000000000005F1
0BFE2000000000000006B0
04FFC00000000000000A40
006FF60000000000002A00
0007FE100000000000A200
00008F8000000000084000
000006B000000000860000
000000000000004B400000
0000000000137B81000000
0004BE5FEEDA6100000000
008FF60AFF600000000000
06FFA001EFF50000000000
1EFF30009FFE0000000000
6FFC00005FFF4000000000
8FFA00004FFF6000000000
9FF800004FFF6000000000
7FF900006FFF3000000000
3FFB00009FFD0000000000
0BFE1001EFF40000000000
01CFA11AFF600000000000
0007CEFD92000000000000
ENDCHAR
STARTCHAR oacute
ENCODING 243
SWIDTH 400 0
DWIDTH 13 0
BBX 22 26 0 6
BITMAP
000000000000000004DE60
00000000000000000CFFF3
00000000000000000AFFF6
000000000000000002CFF7
0000000000000000000BF5
00000000000000000005F1
0000000005E200000006B0
000000003FE00000000A40
00000000CF600000002A00
00000005FA00000000A200
0000000BD1000000084000
0000000C20000000860000
000000000000004B400000
0000000000137B81000000
0004BE5FEEDA6100000000
008FF60AFF600000000000
06FFA001EFF50000000000
1EFF30009FFE0000000000
6FFC00005FFF4000000000
8FFA00004FFF6000000000
9FF800004FFF6000000000
7FF900006FFF3000000000
3FFB00009FFD0000000000
0BFE1001EFF40000000000
01CFA11AFF600000000000
0007CEFD92000000000000
ENDCHAR
STARTCHAR ocircumflex
ENCODING 244
SWIDTH 400 0
DWIDTH 13 0
BBX 22 26 0 6
BITMAP
000000000000000004DE60
00000000000000000CFFF3
00000000000000000AFFF6
000000000000000002CFF7
0000000000000000000BF5
00000068000000000005F1
000002EF400000000006B0
00000BDFE2000000000A40
00006D16FD100000002A00
0002E3007FD2000000A200
001C400006EE4000084000
01B40000002AE200860000
083000000000004B400000
0000000000137B81000000
0004BE5FEEDA6100000000
008FF60AFF600000000000
06FFA001EFF50000000000
1EFF30009FFE0000000000
6FFC00005FFF4000000000
8FFA00004FFF6000000000
9FF800004FFF6000000000
7FF900006FFF3000000000
3FFB00009FFD0000000000
0BFE1001EFF40000000000
01CFA11AFF600000000000
0007CEFD92000000000000
ENDCHAR
STARTCHAR otilde
ENCODING 245
SWIDTH 400 0
DWIDTH 13 0
BBX 22 26 0 6
BITMAP
000000000000000004DE60
00000000000000000CFFF3
00000000000000000AFFF6
000000000000000002CFF7
0000000000000000000BF5
00000000000000000005F1
00000000000000000006B0
0000000000000000000A40
00007ED920000000002A00
0005FFFFF931670000A200
000B33CFFFFFF700084000
00070009FFFFF200860000
000000004BED504B400000
0000000000137B81000000
0004BE5FEEDA6100000000
008FF60AFF600000000000
06FFA001EFF50000000000
1EFF30009FFE0000000000
6FFC00005FFF4000000000
8FFA00004FFF6000000000
9FF800004FFF6000000000
7FF900006FFF3000000000
3FFB00009FFD0000000000
0BFE1001EFF40000000000
01CFA11AFF600000000000
0007CEFD92000000000000
ENDCHAR
STARTCHAR odieresis
ENCODING 246
SWIDTH 400 0
DWIDTH 13 0
BBX 22 26 0 6
BITMAP
000000000000000004DE60
00000000000000000CFFF3
00000000000000000AFFF6
000000000000000002CFF7
0000000000000000000BF5
00000000000000000005F1
00000000000000000006B0
0000000000000000000A40
00009E9000000000002A00
0004FFF18E90000000A200
0005FFE0FFE00000084000
0001BE609E700000860000
000000000000004B400000
0000000000137B81000000
0004BE5FEEDA6100000000
008FF60AFF600000000000
06FFA001EFF50000000000
1EFF30009FFE0000000000
6FFC00005FFF4000000000
8FFA00004FFF6000000000
9FF800004FFF6000000000
7FF900006FFF3000000000
3FFB00009FFD0000000000
0BFE1001EFF40000000000
01CFA11AFF600000000000
0007CEFD92000000000000
ENDCHAR
STARTCHAR divide
ENCODING 247
SWIDTH 592 0
DWIDTH 19 0
BBX 17 12 1 3
BITMAP
0000006ED300000000
000000EFF800000000
0000007ED300000000
000000000000000000
000000000000000000
000000000001122100
4EFFEEDDDDDCDDDC30
000000000000000000
000000000000000000
0000005EE500000000
000000DFFA00000000
0000007ED300000000
ENDCHAR
STARTCHAR oslash
ENCODING 248
SWIDTH 396 0
DWIDTH 13 0
BBX 13 20 0 1
BITMAP
00000006300000
0000000D300000
0000002E000000
0004AEFFA40000
00AFB28DFF7000
08FD10C4BFF500
1FF801E15FFC00
6FF505B03FFF10
8FF309702FFF20
9FF30E303FFF10
7FF44E005FFD00
3FF689009FF800
0BFCD501EFE100
01DFF22BFE3000
001AFFEC710000
000AA000000000
000E6000000000
003F2000000000
006C0000000000
00540000000000
ENDCHAR
STARTCHAR ugrave
ENCODING 249
SWIDTH 744 0
DWIDTH 24 0
BBX 24 25 0 1
BITMAP
0000001DA100000000000000
0000002FFB00000000000000
00000009FF60000000000000
00000000BFE2000000000000
000000001CF9000000000000
0000000001CF200000000000
00000000001A600000000000
000000000000000000000000
00000290000000002A600000
00001CD000000259EF800000
0002CFF10004EDEFFF900000
017EFFF30000000AFFA00000
5DAAFFF500000004FFB00000
0000BFF800000002FFC00000
00007FFB00000002FFE00000
00005FFE00000002FFF00000
00003FFF20000003FFF20000
00001FFF50000005CFF40000
00000EFFA00000097FF60000
00000BFFE100000B2FFC0000
000007FFF80000680FFFDCDA
000002FFFF8116F209C96420
0000009FFFFFFF9000000000
0000001CFFFFFD1000000000
000000018DFD810000000000
ENDCHAR
STARTCHAR uacute
ENCODING 250
SWIDTH 744 0
DWIDTH 24 0
BBX 24 23 0 1
BITMAP
0000000000005E3000000000
000000000002FE1000000000
00000000000BF60000000000
00000000004FB00000000000
0000000000AD100000000000
0000000000C2000000000000
00000290000000002A600000
00001CD000000259EF800000
0002CFF10004EDEFFF900000
017EFFF30000000AFFA00000
5DAAFFF500000004FFB00000
0000BFF800000002FFC00000
00007FFB00000002FFE00000
00005FFE00000002FFF00000
00003FFF20000003FFF20000
00001FFF50000005CFF40000
00000EFFA00000097FF60000
00000BFFE100000B2FFC0000
000007FFF80000680FFFDCDA
000002FFFF8116F209C96420
0000009FFFFFFF9000000000
0000001CFFFFFD1000000000
000000018DFD810000000000
ENDCHAR
STARTCHAR ucircumflex
ENCODING 251
SWIDTH 744 0
DWIDTH 24 0
BBX 24 26 0 1
BITMAP
000000000690000000000000
000000001EF5000000000000
00000000ADFE200000000000
00000005E25FD20000000000
0000002D3006FD2000000000
000001C400005EE500000000
00000B500000029E30000000
000074000000000000000000
000000000000000000000000
00000290000000002A600000
00001CD000000259EF800000
0002CFF10004EDEFFF900000
017EFFF30000000AFFA00000
5DAAFFF500000004FFB00000
0000BFF800000002FFC00000
00007FFB00000002FFE00000
00005FFE00000002FFF00000
00003FFF20000003FFF20000
00001FFF50000005CFF40000
00000EFFA00000097FF60000
00000BFFE100000B2FFC0000
000007FFF80000680FFFDCDA
000002FFFF8116F209C96420
0000009FFFFFFF9000000000
0000001CFFFFFD1000000000
000000018DFD810000000000
ENDCHAR
STARTCHAR udieresis
ENCODING 252
SWIDTH 744 0
DWIDTH 24 0
BBX 24 23 0 1
BITMAP
000000007EA0000000000000
00000002FFF36EB000000000
00000003FFF2DFF100000000
00000000AE708E9000000000
000000000000000000000000
000000000000000000000000
00000290000000002A600000
00001CD000000259EF800000
0002CFF10004EDEFFF900000
017EFFF30000000AFFA00000
5DAAFFF500000004FFB00000
0000BFF800000002FFC00000
00007FFB00000002FFE00000
00005FFE00000002FFF00000
00003FFF20000003FFF20000
00001FFF50000005CFF40000
00000EFFA00000097FF60000
00000BFFE100000B2FFC0000
000007FFF80000680FFFDCDA
000002FFFF8116F209C96420
0000009FFFFFFF9000000000
0000001CFFFFFD1000000000
000000018DFD810000000000
ENDCHAR
STARTCHAR yacute
ENCODING 253
SWIDTH 659 0
DWIDTH 21 0
BBX 21 36 0 -14
BITMAP
000000000000008D000000
00000000000007FA000000
0000000000002EF2000000
0000000000009F60000000
00000002B701EA00000000
0000007E9104A000000000
00006DF600000000013670
038DFFC00002EEDDEFFD30
6EFFFF90000015DFFFF400
007FFF900000002FFFF100
003FFF900000000DFFF000
001FFFA00000000CFFE000
000DFFC00000000CFFD000
000AFFE00000000CFFC000
0006FFF20000000EFFA000
0002FFF60000001FFF9000
0000DFFB0000005FFF8000
00008FFF200000ADFF6000
00002FFFB00003C9FF3000
000007FFFA314E49FF1000
000000AFFFFFF70AFE0000
00000006CEEB400BFB0000
000000000000000CF80000
000000000000000DF40000
000000000000000FF10000
000000000000002FB00000
000000000000005F700000
000006DEB200008F300000
00006FFFFC0000CD000000
0001B2EFFF1002F7000000
0004709FFE0008E1000000
0006602CE6002E70000000
000580000000AC00000000
0001D1000008D200000000
00006D5114BC2000000000
000004CFEB600000000000
ENDCHAR
STARTCHAR thorn
ENCODING 254
SWIDTH 514 0
DWIDTH 16 0
BBX 18 47 -2 -20
BITMAP
0000004C0000000000
000019E40000000000
026BFF600000000000
7DDFFF300000000000
000DFF300000000000
0009FF400000000000
0007FF500000000000
0005FF500000000000
0004FF600000000000
0002FF700000000000
0001FF800000000000
0000FF929DFD930000
0000EFCC314DFF8000
0000DFF40001EFF800
0000CFF100007FFF40
0000CFF000001FFFC0
0000BFF000000CFFF3
0000AFF000000AFFF7
0000AFF1000008FFFA
00009FF2000008FFFB
00009FF3000008FFFC
00009FF5000009FFFC
00008FF700000BFFFA
00008FFA00001EFFF7
00008FFE10007FFFF2
00008FFFB217FFFFA0
00007FFBCFFFFFFC10
00007FFB07CEFC6000
00007FFC0000000000
00007FFD0000000000
00007FFD0000000000
00007FFE0000000000
00007FFF0000000000
00007FFF1000000000
00007FFF2000000000
00007FFF3000000000
00007FFF4000000000
00007FFF4000000000
00007FFF5000000000
00008FFF6000000000
00008FFF7000000000
00009FFF8000000000
00009FFF9000000000
0000CFFFB000000000
0017FFFFE200000000
06FEEFFFFE73000000
0000000257BEB00000
ENDCHAR
STARTCHAR ydieresis
ENCODING 255
SWIDTH 659 0
DWIDTH 21 0
BBX 21 38 0 -14
BITMAP
0000000005EC1000000000
000000000EFF54EC100000
000000001FFF4BFF300000
0000000008E906EB000000
0000000000000000000000
0000000000000000000000
00000002B7000000000000
0000007E91000000000000
00006DF600000000013670
038DFFC00002EEDDEFFD30
6EFFFF90000015DFFFF400
007FFF900000002FFFF100
003FFF900000000DFFF000
001FFFA00000000CFFE000
000DFFC00000000CFFD000
000AFFE00000000CFFC000
0006FFF20000000EFFA000
0002FFF60000001FFF9000
0000DFFB0000005FFF8000
00008FFF200000ADFF6000
00002FFFB00003C9FF3000
000007FFFA314E49FF1000
000000AFFFFFF70AFE0000
00000006CEEB400BFB0000
000000000000000CF80000
000000000000000DF40000
000000000000000FF10000
000000000000002FB00000
000000000000005F700000
000006DEB200008F300000
00006FFFFC0000CD000000
0001B2EFFF1002F7000000
0004709FFE0008E1000000
0006602CE6002E70000000
000580000000AC00000000
0001D1000008D200000000
00006D5114BC2000000000
000004CFEB600000000000
ENDCHAR
STARTCHAR dotlessi
ENCODING 305
SWIDTH 301 0
DWIDTH 10 0
BBX 10 17 0 3
BITMAP
0000019400
0125AFF300
6FFFFFF100
017FFFF000
000EFFD000
000CFFB000
000CFFA000
000CFF8000
000CFF7000
000CFF5000
000CFF4000
000CFF3000
000DFF2000
000EFF1000
000FFF2000
018FFFB300
4FECCDEFE1
ENDCHAR
STARTCHAR OE
ENCODING 338
SWIDTH 1132 0
DWIDTH 36 0
BBX 37 33 0 -5
BITMAP
00000000000000000000000000000003200000
000000000000000000000000000003AF600000
0000000000000000000000000027BFFF600000
0000000000000000000001259DFC967F600000
000000049CDFEDA5005FFFFFB6100009700000
000005DFB520149FD405FFFE00000004900000
0001AFE500000002CF90BFFE00000001A00000
001CFF40000000001BFA8FFF00000000700000
00AFF9000000000001DFEFFF10000000000000
05FFF20000000000004FFFFF20000000000000
0CFFD00000000000000BFFFF20000000000000
3FFFA000000000000005FFFF30000000000000
7FFF9000000000000001EFFF40000071000000
AFFF9000000000000000BFFF500000A0000000
CFFFA0000000000000008FFF600004C0000000
CFFFC0000000000000006FFF90259FB0000000
AFFFF1000000000000005FFFFECABFB0000000
9FFFF5000000000000005FFFC10006C0000000
5FFFFB000000000000006FFFA00000C0000000
1FFFFF300000000000009FFFB0000090000000
0AFFFFC0000000000000DFFFC0000010000000
02FFFFF7000000000005FFFFD0000000000000
007FFFFF60000000001EFFFFE0000000000330
0009FFFFF800000002CD6FFFF0000000000830
00007FFFFFD720138EC23FFFF1000000000C10
000003BFFFFFFFFFF8003FFFF2000000001F00
000000027BDEFEB710003FFFF4000000007F00
000000000000000000003FFFF500000002EF00
000000000000000000003FFFF60000003DFF00
000000000000000000006FFFF901358CFFFF10
00000000000000000001CFFFFFFFFFFFFFFF10
0000000000000000004CFDA743110001123200
00000000000000002BA6200000000000000000
ENDCHAR
STARTCHAR oe
ENCODING 339
SWIDTH 798 0
DWIDTH 26 0
BBX 26 15 0 2
BITMAP
00018DFEC71000004ADEC70000
004EB215EFD30008FB218FA000
03EF10002EFE308FC0000DF300
0BFB000006FFD4FF50000BF500
2FFA000000DFFEFF10000DF400
6FFA0000007FFFFE00005FE000
7FFC0000002FFFFE3016EE4000
7FFF0000000DFFFFCFFD920860
5FFF4000000BFFFF10000003D0
1EFFA000000BFFFF50000000E1
08FFF300000CDEFFC0000001F0
01CFFC00002F68FFF7000007C0
001BFFC303C901DFFF92028F40
00005ADFDB40001BFFFFFFF700
00000000000000005AEFEA3000
ENDCHAR
STARTCHAR circumflex
ENCODING 710
SWIDTH 483 0
DWIDTH 15 0
BBX 13 8 1 21
BITMAP
000000B3000000
000007FC000000
00002EDF900000
0000C81CF80000
0008B001CF8000
005B10001AFB10
04B10000005CB0
29100000000000
ENDCHAR
STARTCHAR caron
ENCODING 711
SWIDTH 428 0
DWIDTH 14 0
BBX 11 9 1 22
BITMAP
000000000060
230000000960
2E8000009700
04F90008A000
007FA28D1000
000AFFF40000
0002FFB00000
00009F400000
00003B000000
ENDCHAR
STARTCHAR ring
ENCODING 730
SWIDTH 330 0
DWIDTH 11 0
BBX 8 8 1 27
BITMAP
007DFC40
08C315E4
2F30007B
5F00004D
6F30007D
3FC315EA
0BFFFFE2
019EFC30
ENDCHAR
STARTCHAR tilde
ENCODING 732
SWIDTH 433 0
DWIDTH 14 0
BBX 12 5 1 23
BITMAP
01BEC6000000
0BFFFFD62192
2B15EFFFFFF1
43002CFFFFB0
0000007DFB20
ENDCHAR
STARTCHAR mu.dup1
ENCODING 956
SWIDTH 634 0
DWIDTH 20 0
BBX 20 28 1 -11
BITMAP
00210000000000000000
8EF40000000053000000
AFF3000000AEF8000000
AFF2000000DFFA000000
AFF20000008FFB000000
AFF20000005FFC000000
9FF30000002FFE000000
9FF50000000EFF000000
9FF80000000DFF102B10
8FFB0000000DFF300790
8FFF1000000EFF5001E1
7FFF8000003FFF8000C4
6FFAE3000096FFD000C3
6FF86E5117B0AFF914F1
5FF904CED9102EFFFFA0
5FFA0000000002AEEA10
4FFC0000000000000000
4FFD0000000000000000
3FFE0000000000000000
3FFF1000000000000000
2FFF3000000000000000
2FFF5000000000000000
1FFF7000000000000000
1FFF9000000000000000
0FFFB000000000000000
0EFFD000000000000000
0DFFC000000000000000
03200000000000000000
ENDCHAR
STARTCHAR endash
ENCODING 8211
SWIDTH 436 0
DWIDTH 14 0
BBX 12 2 1 6
BITMAP
254210012331
29CDEFFFEEB2
ENDCHAR
STARTCHAR emdash
ENCODING 8212
SWIDTH 651 0
DWIDTH 21 0
BBX 19 2 1 7
BITMAP
002346789ABCCDEFFD20
3DEDCBA9765543221000
ENDCHAR
STARTCHAR quoteleft
ENCODING 8216
SWIDTH 287 0
DWIDTH 9 0
BBX 7 10 1 17
BITMAP
00007A30
001CA000
00CF3000
07FF2000
0EFF9000
4FFFF400
6FFFFC00
5FFFFE00
1EFFFB00
04CEB200
ENDCHAR
STARTCHAR quoteright
ENCODING 8217
SWIDTH 291 0
DWIDTH 9 0
BBX 7 11 1 15
BITMAP
07DEB200
3FFFFD10
6FFFFF70
3FFFFFA0
07FFFFB0
005EFF90
0002EF70
00008F20
0000B900
0009C100
00891000
ENDCHAR
STARTCHAR quotesinglbase
ENCODING 8218
SWIDTH 272 0
DWIDTH 9 0
BBX 7 11 1 -6
BITMAP
05DEB200
1FFFFB00
4FFFFF10
1FFFFF10
05FFFF00
002DFB00
0005F700
0005E100
000B8000
004D0000
00A20000
ENDCHAR
STARTCHAR quotedblleft
ENCODING 8220
SWIDTH 445 0
DWIDTH 14 0
BBX 12 12 1 14
BITMAP
000007A00000
0001BB1004A0
000BC0003E20
009F4000DA00
04FF0005F900
0BFF100AFE20
2FFF700CFFD2
5FFFE20DFFF9
6FFFF909FFF8
5FFFFC01AEB1
1EFFF9000000
04CEB1000000
ENDCHAR
STARTCHAR quotedblright
ENCODING 8221
SWIDTH 444 0
DWIDTH 14 0
BBX 12 12 1 15
BITMAP
07EE70000000
3FFFF505DE70
5FFFFA2FFFF4
1EFFFC4FFFF8
05FFFB2FFFF9
005FF908FFF7
000BF500CFF3
000AE0006FA0
001E60008E30
008B0003E400
01B1005D4000
000006A20000
ENDCHAR
STARTCHAR quotedblbase
ENCODING 8222
SWIDTH 482 0
DWIDTH 15 0
BBX 13 12 1 -8
BITMAP
04CFC200000000
1EFFFD005DEA10
4FFFFF51EFFF90
2FFFFF84FFFFC0
09FFFF81FFFFC0
008FFF707FFF90
0006FF4009FF40
0000DD0003FD00
0001F70006F500
0007C0001DA000
000B20009C1000
00000004B10000
ENDCHAR
STARTCHAR bullet
ENCODING 8226
SWIDTH 351 0
DWIDTH 11 0
BBX 9 8 1 9
BITMAP
006CEE9100
08FFFFFC00
2FFFFFFF50
5FFFFFFF90
6FFFFFFF90
3FFFFFFF60
0BFFFFFC00
018DED8100
ENDCHAR
STARTCHAR guilsinglleft
ENCODING 8249
SWIDTH 465 0
DWIDTH 15 0
BBX 13 21 1 -3
BITMAP
00000000021000
000000000B0000
00000000690000
00000001E30000
0000000BB00000
0000007F400000
000005FB000000
00005FF3000000
0008FF90000000
02BFFF10000000
3EFFFF20000000
09FFFFB0000000
004DFFF7000000
0001AFFF300000
000007FFD10000
0000005FF90000
00000005FF4000
000000005FD100
0000000004F800
00000000004E20
00000000000220
ENDCHAR
STARTCHAR guilsinglright
ENCODING 8250
SWIDTH 449 0
DWIDTH 14 0
BBX 12 20 1 -3
BITMAP
04A000000000
01E500000000
008E20000000
001ED1000000
0007FD200000
0000DFD30000
00004FFF7000
000009FFFD50
000004FFFFF8
00000AFFFE70
00004FFFD200
0000CFFB1000
0007FFB00000
001EFB000000
008FD1000000
01EF30000000
07F700000000
0CC000000000
2F3000000000
490000000000
ENDCHAR
STARTCHAR fraction
ENCODING 8260
SWIDTH 406 0
DWIDTH 13 0
BBX 22 31 -5 -1
BITMAP
0000000000000000000017
00000000000000000000B6
00000000000000000007D0
0000000000000000003F40
000000000000000001D900
00000000000000000AD100
00000000000000005F4000
0000000000000002E80000
000000000000000CC00000
000000000000008E200000
00000000000004F6000000
0000000000001EA0000000
000000000000BD10000000
000000000007F400000000
00000000003F8000000000
0000000001DB0000000000
000000000AE20000000000
000000005F500000000000
00000002E9000000000000
0000000BC1000000000000
0000007E30000000000000
000003F600000000000000
00001DA000000000000000
00009D1000000000000000
0004F30000000000000000
001E700000000000000000
00BB000000000000000000
06E2000000000000000000
2E50000000000000000000
8900000000000000000000
2000000000000000000000
ENDCHAR
STARTCHAR foursuperior
ENCODING 8308
SWIDTH 473 0
DWIDTH 15 0
BBX 15 19 0 11
BITMAP
0000000810000000
0000001E30000000
0000008F50000000
000001EF60000000
000009FF80000000
00002DFF90000000
0000A3DFB0000000
000390AFD0003000
000A108FE0026000
0055006FF2096000
01A0004FF58F7000
08B8ACEFFFFF9000
2FFFFFFFFFFE8000
1554321FFE000000
0000000FFF300000
0000000FFFA00000
0000004FFFFA3000
00003AFFFEDEFF50
0000386300000000
ENDCHAR
STARTCHAR Euro
ENCODING 8364
SWIDTH 799 0
DWIDTH 26 0
BBX 28 28 -1 -1
BITMAP
0000000000000000000000000005
000000000000000000000000004B
000000000000059CEFEC830001D4
000000000006DFF941027EC54BC0
0000000001BFFC30000002EFFF60
000000001DFFD1000000004FFE10
00000000CFFF30000000000BFA00
00000008FFF8000000000005F600
0000002FFFE1000000000002F300
000000AFFFA0000000000000E000
000001FFFF500001650000009000
000006FFFF2005AD710000000000
00000AFFFE59D940000000000000
00000DFFFFB51002100000000000
00049FFFFB0017CA100000000000
03EEBFFFFB6BFA30000000000000
00202FFFFFE92000000000000000
00038FFFFC100000000000000000
09EFFFFFFC000000000000810000
1EC82BFFFE000000000000A20000
000007FFFF200000000000C00000
000002FFFF700000000001C00000
000000AFFFD00000000006800000
0000002FFFF7000000001D300000
00000006FFFF60000000AA000000
000000007FFFFB52015CD1000000
0000000004DFFFFFFFFC20000000
000000000005ADEFDA5000000000
ENDCHAR
STARTCHAR minus
ENCODING 8722
SWIDTH 436 0
DWIDTH 14 0
BBX 12 2 1 6
BITMAP
254210012331
29CDEFFFEEB2
ENDCHAR
STARTCHAR f_f
ENCODING 64256
SWIDTH 467 0
DWIDTH 15 0
BBX 19 48 0 -12
BITMAP
00000003AEEA10000000
0000004EFFFFB0000000
000002D35FFFF2000000
00000B501FFFF3000000
00002E000EFFE0000000
00008A0007ED40000000
0000C70000029DFE9100
0001F400004E712EFD10
0004F20002E7000CFF70
0007F1000AD0003FFFA0
0009F0001F8001DFFFC0
000BE0006F4009FFFFA0
000DE000BF200DFFFF70
000ED000DF000AFFFF20
000FE001FE0002BED400
000FE002FE0000000000
001FE003FD0000000000
001FF003FE0000000000
001FF103FF1345100000
001FF8ADFFEDCB500000
06DFF954FF3000000000
043FF300FF4000000000
001FF500EF6000000000
000FF600CF9000000000
000FF700BFB000000000
000EF9009FE000000000
000EFB006FF200000000
000DFC004FF500000000
000CFE002FF800000000
000BFF100EFC00000000
000AFF300BFF10000000
0009FF6009FF60000000
0008FF8006FFB0000000
0006FFA003FFF1000000
0005FFD000FFF9000000
0004FFF000CFFF600000
0002FFF200AFFFFD7000
0001FFF500BFE8410000
0000FFF705E700000000
0000DFF91A2000000000
0000CFFC000000000000
0000BFFF100000000000
0000AFFF400000000000
0000AFFF800000000000
0000AFFFE00000000000
0000DFFFF70000000000
003BFFFFFF7100000000
1EEDCCDEFFFE80000000
ENDCHAR
STARTCHAR .notdef
ENCODING -1
SWIDTH 270 0
DWIDTH 9 0
BBX 7 20 1 0
BITMAP
CFFFFF70
20000020
20000020
20000020
20000020
20000020
20000020
20000020
20000020
20000020
20000020
20000020
20000020
20000020
20000020
20000020
20000020
20000020
20000020
CFFFFF70
ENDCHAR
STARTCHAR .null
ENCODING -1
SWIDTH 0 0
DWIDTH 0 0
BBX 1 1 0 0
BITMAP
00
ENDCHAR
STARTCHAR nonmarkingreturn
ENCODING -1
SWIDTH 270 0
DWIDTH 9 0
BBX 1 1 0 0
BITMAP
00
ENDCHAR
STARTCHAR dieresis.case
ENCODING -1
SWIDTH 393 0
DWIDTH 13 0
BBX 10 5 1 24
BITMAP
07ED300000
3FFFB01BE6
6FFFC06FFE
4FFF907FFD
09EC202DE5
ENDCHAR
STARTCHAR o.cmp
ENCODING -1
SWIDTH 400 0
DWIDTH 13 0
BBX 22 26 0 6
BITMAP
000000000000000004DE60
00000000000000000CFFF3
00000000000000000AFFF6
000000000000000002CFF7
0000000000000000000BF5
00000000000000000005F1
00000000000000000006B0
0000000000000000000A40
0000000000000000002A00
000000000000000000A200
0000000000000000084000
0000000000000000860000
000000000000004B400000
0000000000137B81000000
0004BE5FEEDA6100000000
008FF60AFF600000000000
06FFA001EFF50000000000
1EFF30009FFE0000000000
6FFC00005FFF4000000000
8FFA00004FFF6000000000
9FF800004FFF6000000000
7FF900006FFF3000000000
3FFB00009FFD0000000000
0BFE1001EFF40000000000
01CFA11AFF600000000000
0007CEFD92000000000000
ENDCHAR
STARTCHAR n_n
ENCODING -1
SWIDTH 1024 0
DWIDTH 33 0
BBX 33 21 0 -1
BITMAP
0000290000000000000000000000000000
0001CD0000000000000000000000000000
001CFF10005CFEA2000000000000000000
06EFFF3009FFFFFE200259C00000000000
AA9FFF6078119FFFA0DFFFE00000000000
000CFF8290000CFFF006FFE018DFC60000
0008FFA8300006FFF302FFD1CFFFFF7000
0004FFCB000003FFF401FFCB912BFFE100
0001FFFA000001FFF402FFEC0002FFF600
0000CFF8000000FFF302FFF60000DFF900
00009FF6000000EFF103FFF20000CFFA00
00006FF6000000FFE003FFE00000CFFA00
00003FF5000000FFD004FFD00000DFF800
00001FF6000001FFB004FFD00000FFF600
00000EF7000003FF9005FFE00003FFF300
00000CF9000005FF8007FFF50007FFF100
00000BFC00002CFF705EFFDCA03EFFE000
00001DFF409FFFFF919630008FFFFFF400
006DFFFFE7025BFFF4000000000136AD40
0012100245000029FF3000000000000000
00000000000000002B9000000000000000
ENDCHAR
STARTCHAR a_a
ENCODING -1
SWIDTH 911 0
DWIDTH 29 0
BBX 31 22 0 -2
BITMAP
00000000000000004ADFDA3000000000
0000000000000007F8116EF500000000
000000000000004FF00004FF30000000
00000000000000BFF60000CFB0000000
0007DFD8100000DFFE10007FF2000000
00BB216FB00000BFFF20005FF6000000
07F30008F500003DE800004FF8000000
0DF60002FA0000000000003FF9000000
1FFE2000EE0000000000004FFA000000
0EFF5000DF100039DEED934FFB000000
06EC1000CF3008FF93014ADFFC000000
00000001EF406FF80000008FFD000000
00028CEFFF50DFF2CE40008FFD000000
008FFC51CF61FFE0EFB0009FFE000000
08FFC000CF72FFF11AC000AFFE000000
2FFF3000DF80EFF603B001DFFE000000
5FFF0000EFB07FFF76827DCFFF000000
6FFF1004EFF10AFFFFFFD38FFF100000
4FFF913C3EF8005BFFC7105FFF200340
0CFFFFF904EF8207B000000DFF500730
019DFD800028DEE810000004FFC22A00
0000000000000000000000003BEEA200
ENDCHAR
STARTCHAR t_h
ENCODING -1
SWIDTH 854 0
DWIDTH 27 0
BBX 29 41 -1 -7
BITMAP
000000000000001A70000000000000
00000000000005DF90000000000000
000000000147DFFF80000000000000
00000001EFFFFFFF80000000000000
0000000000016FFF70000000000000
0000000000000BFF60000000000000
00000000000007FF50000000000000
00000000000007FF40000000000000
00000000000007FF30000000000000
00000000048007FF20000000000000
000000002E5008FF10000000000000
00000001CE0009FF00000000000000
0000004DFB000AFE00000000000000
00025BFFFD200BFD11000000000000
5BEFFFFFFFEEFFFFFF100000000000
243108FFF4000DFC10000000000000
000007FFD0000EFA00000000000000
000008FFA0000FF9006CEED9200000
00000AFF90001FF91C8203CFF50000
00000BFF70002FF8C500001EFF3000
00000DFF60002FFDA0000008FFB000
00000EFF60003FFF40000004FFF200
00000EFF50004FFE00000001FFF500
00000EFF50005FFB00000000FFF800
00000DFF60006FF8004DE500FFF800
00000CFF70007FF700CFFD00FFF800
000009FF80008FF500AFFE00FFF700
000006FFB0009FF4002EFC01FFF600
000001EFF100AFF40008F802FFF500
0000007FF800BFF30009F204FFF200
0000000AFF50DFF3002E7005FFF000
000000008EFBEFF437E60007FFD000
00000000017CFFFEC820000AFFA000
000000000004FFF80000000DFF7000
00000000001DFFFE2000001FFF4000
0000000028EFFFFFE600006FFF2000
00000001DB7420148DC001DFFF1000
000000000000000000015DFFFF3000
0000000000000000007FFFFFFF8000
0000000000000000000000027EF500
000000000000000000000000017D30
ENDCHAR
STARTCHAR s_s
ENCODING -1
SWIDTH 654 0
DWIDTH 21 0
BBX 22 29 -1 -5
BITMAP
0000000000000110000010
00000000000017000000A0
0000002AEECAD1000004A0
000001DF614F807CEEDF80
000008FB000B2BFB219F60
00000CFA00075FF2000D60
00000BFC00019FE0000760
000009FF4000AFF0000360
000003FFD1009FF3000000
0000009FFC106FFA000000
0000001DFFC11FFF300000
00000003FFFC19FFC00000
000000005FFFB3FFF80000
0000000008FFF99FFF4000
0000000000BFFF4EFFD000
00020000001EFF98FFF800
005800000008FFD1EFFF10
00880003CE72FFE09FFF80
00C9000DFFD0FFD03FFFE0
02FC004FFF80FFB00DFFF3
09FF206FE603FF5009FFF6
2C5BB07E200BFC0008FFF6
51009C9A03BFC10008FFF6
000004AFFEB5000009FFF3
0000000C200000000CFFE0
00000006900000002FFF70
00000000C7000000BFFB00
000000001BB3014CFF9100
00000000005AEFEC930000
ENDCHAR
STARTCHAR t_t
ENCODING -1
SWIDTH 569 0
DWIDTH 18 0
BBX 19 29 0 -3
BITMAP
0000000007EF30000000
000000000CFF40000000
000000280EFF20000000
000000881FFF10000000
000001E62FFE00013000
00000BF43FFE149A2000
0002BFF26FFFFA300000
028EFFFDFFFE20000000
AFFFFFFCEFF800000000
001DFFC0AFF400000000
000CFF90AFF300000000
000DFF60AFF100000000
000EFF409FF100000000
000FFF309FF000000000
001FFF208FF100000000
002FFF107FF200000000
003FFF105FF3007EC200
003FFF102FF500FFFD00
002FFF100DF900CFFF20
001FFF2008FE1016CF20
000DFF3001DF80003E00
000BFF40003EF8219700
0007FF7000029DFD7000
0002FFA000001BE90000
0000AFE100007FFF2000
00002EF60000AFFF2000
000005FE1000EFFC0000
0000004EC417FFE30000
000000016BDFE9200000
ENDCHAR
STARTCHAR e_e
ENCODING -1
SWIDTH 782 0
DWIDTH 25 0
BBX 25 18 0 0
BITMAP
00018CEDA2000039DFEA200000
004EF713DD1008FD413DE30000
03FF70006F608FE20003FC0000
0DFE10004F83FF800000DF1000
5FFA00005F7AFF400000BF3000
AFF900009F4EFF100000BF3000
CFF70001EB3FFE000000DF1000
DFF7001CD24FFE000001FD0000
CFFA38EB205FFE000006F80000
AFFFDA40004FFF10000BF10000
5FFF2000002FFF40004F804800
0DFFA000000EFF8001DB000D30
04FFF5000008FFE10AC1000970
004EFF700002FFF9CA10000980
0002AFFC62118FFFC000001E50
0000037BDEFEB9FFFC5103CE10
000000000000004DFFFFFFF400
00000000000000016BEFEA3000
ENDCHAR
STARTCHAR o_o
ENCODING -1
SWIDTH 751 0
DWIDTH 24 0
BBX 33 28 0 2
BITMAP
00000000000000000000000000003CE900
00000000000000000000000000009FFF60
00000000000000000000000000007FFFA0
00000000000000000000000000000AFF90
0000000000000000000000000000009F70
0000000000000000000000000000002F40
0000000000000000000000000000003E00
0000000000000000000000000000007800
000000000000000000000000000001D100
0000000000000000000000000000087000
00000000000000000000000000005B0000
0000000000000000000000000007B10000
00000000000000000000000004B9000000
000028CEED93000000110237CC40000000
0008FF8214CF817D90EFFEC83000000000
009FF600001EFEF7006FF8000000000000
05FFB0000008FF70000AFF500000000000
0CFF50000006FF200004FFD00000000000
2FFF1000000DFF600000FFF40000000000
5FFD0000003FFF800000DFF60000000000
7FFB0000005FFF800000CFF60000000000
7FFB0000004FFF600000DFF40000000000
5FFC0000001EFF300002FFD00000000000
2FFD0000000DFF10000AFF500000000000
0BFF2000003FFFB302AFF6000000000000
03EFA00000CFC49DEEC820000000000000
003DF9203CFB1000000000000000000000
00017BEFDB500000000000000000000000
ENDCHAR
STARTCHAR l_l
ENCODING -1
SWIDTH 573 0
DWIDTH 18 0
BBX 21 32 -2 -5
BITMAP
0000006A00000009500000
000006FB000004CF600000
00019FFB0026CFFF600000
005CFFFB07EEFFFF600000
0870BFFB0001EFFF600000
00009FFB00009FFF600000
00009FFB00007FFF600000
00009FFB00006FFF600000
00008FFB00005FFF600000
00008FFB00004FFF600000
00008FFC00003FFF600000
00007FFC00002FFF600000
00007FFC00001FFF600000
00007FFD00000FFF700000
00007FFD00000FFF700000
00007FFD00000EFF800000
00007FFE00000EFF900000
00007FFE00000EFFA00000
00007FFE00000DFFB00000
00008FFF00000DFFC00000
00008FFF00000DFFE00000
00008FFF10000DFFF00000
00009FFF10000CFFF20000
00009FFF20000DFFF40000
0000AFFF20000EFFF80000
0000AFFF30005FFFFE5100
0000BFFF506CEDCCCDEF50
0001EFFF70110000000000
6EEEFFFFC0000000000000
01368CFFF7000000000000
00000026CF910000000000
0000000003830000000000
ENDCHAR
STARTCHAR z_z
ENCODING -1
SWIDTH 875 0
DWIDTH 28 0
BBX 30 22 -1 -2
BITMAP
000000000BA62101258D5000000000
000000000CFEEFFFFFFF1000000000
000000000B2000127FFB0000000000
00000000060000006FF50000000000
000DC96310148C20CFD00000000000
000D4014DFFFF803FF800000000000
00080000DFFFB00AFF200000000000
00060005FFFE202FFB000000000000
0005000DFFF5009FF5000000000000
0000006FFFA002FFE0000000000000
000001EFFE1009FF90000000000000
000007FFF5002FFF40000450000000
00001EFFA0009FFD00000850000000
00009FFE1001FFF800000D5005DE60
0002FFF50008FFF30003AF500EFFF2
000AFFA0000EFFFFFFFFFF501FFFF4
003FFE10002EC952100000000DFFF3
00CFF500000000000000000006FFF1
06FFD8CEFFDC95100000000001FFA0
1EFC7311247AEFFB6100000002FE20
7A3000000000037CFFB732013CC200
0000000000000000158CDFEDA50000
ENDCHAR
STARTCHAR j_j
ENCODING -1
SWIDTH 577 0
DWIDTH 18 0
BBX 22 44 -4 -20
BITMAP
00000000000004DE800000
0000000000000EFFF30000
0000000000001FFFF50000
0000000008EB1EFFF20000
000000002FFF75DE700000
000000003FFF7000000000
0000000009EB1037CF6000
0000000000008DFFFFD000
000000000000009FFFF300
000013100136940BFFF800
000016AEFFFFFB03FFFC00
00000001AFFFFF00AFFF10
000000000BFFFF304FFF40
0000000002EFFF500EFF80
00000000009FFF7009FFA0
00000000004FFF9006FFD0
00000000000EFFB002FFF1
00000000000BFFC000EFF2
000000000008FFD000BFF4
000000000005FFE0008FF6
000000000003FFF0006FF7
000000000001FFF1003FF9
000000000000EFF1001FF9
000000000000DFF1000EFA
000000000000CFF1000DFB
000000000000BFF0000BFB
000000000000BFE0000AFC
000000000000AFD00009FC
000000000000BFB00009FC
004CFD600000BF900008FB
05FFFFF20000DF600008FB
1EFFFFF40000EF300009FA
5FFFFFD10002FE000009F8
8FFFC7100005FA00000AF6
8FC20000000AF400000BF4
7F400000001EC000000CF1
3F300000009F3000000EC0
0BA0000006F60000002F80
01CB4113AFBEE500004F30
0017CEFD92EFFE10009C00
0000000000FFFF6001E400
0000000000DFFFE31A8000
00000000005FFFFFF90000
000000000004CEEB400000
ENDCHAR
STARTCHAR f_b
ENCODING -1
SWIDTH 731 0
DWIDTH 23 0
BBX 26 41 -2 -5
BITMAP
00000000007DFE920000000000
000000001C9203DE2000000000
00000000AA00004F9000000000
00000004F200003FE000000000
0000000AB00000AFF100000000
0000001F70004BFFF100000000
0000005F400AFFFFE000000000
0000009F204FFFFFA000000000
000000DF003FFFFE2000000000
000000FF0009FFD48400000000
000003FE0000124CF600000000
000005FF00048CFFF600000000
000008FF201BDFFFF700000000
00001DFFA346A8EFF700000000
0357DFFFFA7520AFF700000000
5A98AFFF6000007FF700000000
00000EFF4000005FF700000000
00000DFF4000004FF600000000
00000CFF4000003FF600000000
00000CFF5000003FF600000000
00000CFF5000002FF600000000
00000CFF6000002FF600000000
00000BFF6000002FF600000000
00000BFF6000002FF500000000
00000BFF7000002FF500000000
00000BFF7000002FF78CEEB300
00000BFF8000002FFE405FFF50
00000BFF8000002FF9000BFFE0
00000BFF9000002FF50007FFF4
00000BFF9000002FF30006FFF6
00000BFFA000002FF20006FFF5
00000BFFA000002FF30009FFF3
00000BFFB000004FF5000DFFD0
00000BFFC00000AFFC21AFFE30
00000BFFC0001AFFFFFFFFA300
00000BFFD002DA520123200000
00000CFFF10000000000000000
00000EFFF91000000000000000
00006FFFFFFDA0000000000000
0018EA62000000000000000000
00971000000000000000000000
ENDCHAR
STARTCHAR f_k
ENCODING -1
SWIDTH 708 0
DWIDTH 23 0
BBX 23 37 0 -4
BITMAP
000000000110000000000000
000000001C60000000000000
00000002CF50000000000000
0000039FFF50000000000000
005BEFFFFFDEEC5000000000
0012114FFF504FF800000000
000000AEFF500EFF20000000
000005E7FF509FFF70000000
00000D94FF54FFFF70000000
00005F53FF69FFFF50000000
0000BF13FF67FFFE10000000
0001FD02FF71AED400000000
0004FB02FF70000000000000
0007FA01FF80000000000000
0009F901FF80000000000000
06CFF801FF90030000000000
042CF700FF900AC730000000
000DF700FFA0003FFFCA2000
000EF600FFB0000EA2000000
000EF600FFB0008800000000
000FF600EFC0059000000000
000FF600EFD04F1000000000
000FF600EFE4EF3000000000
001FF600EFFBFF7000000000
001FF600DFF2EFC000033000
001FF600DFF29FF300008400
001FF600DFF35FF900001C00
001FF600DFF40DFF30000B30
001FF600CFF605FFC1000C50
002FF700CFF700AFFC316F40
003FF700CFF8001BFFFFFC00
005FF800CFFA00006CEEA200
00BFFB00DFFC000000000000
1DFFFF51FFFF200000000000
0000246AFFFFC65500000000
00008AFFFFFFFFFF50000000
000065421001134300000000
ENDCHAR
STARTCHAR f_h
ENCODING -1
SWIDTH 873 0
DWIDTH 28 0
BBX 30 41 -2 -5
BITMAP
00000000007DFE9200000000000000
000000001B9203DE20000000000000
000000009A00004FA0000000000000
00000003F200003FE0000000000000
00000009B00001BFF1000000000000
0000001E70017EFFF1000000000000
0000005F401DFFFFD0000000000000
0000008F204FFFFF80900000000000
000000CF002FFFFC1BE00000000000
000000EF0004AB73CFC00000000000
000002FE000004AFFFA00000000000
000004FF0008EEEFFF800000000000
000007FF2003200BFF700000000000
00000CFFA347A405FF500000000000
00029FFFFD963004FF400000000000
5DDDEFFF80000004FF300000000000
00001EFF40000004FF200000000000
00000DFF40000005FF100000000000
00000DFF40000006FF000000000000
00000CFF50000007FE000000000000
00000CFF50000007FE000000000000
00000CFF60000008FD000000000000
00000CFF60000009FD000000000000
00000BFF6000000AFC005CFE920000
00000BFF7000000BFC09FFFFFE3000
00000BFF7000000CFC6D415FFFB000
00000BFF8000000DFCD30009FFF100
00000BFF8000000FFFA00004FFF400
00000BFF9000001FFF500002FFF500
00000BFF9000002FFF100002FFF500
00000BFFA000004FFD000002FFF500
00000BFFA000005FFA000002FFF500
00000BFFB000007FF8000003FFF500
00000BFFB000009FF7000003FFF500
00000BFFC00000DFF7000005FFF900
00000BFFD00019FFFA00002DFFFFEB
00000BFFF12FFFFFFFB103A7310234
00000DFFF802100247960000000000
00002FFFFFECA00000000000000000
0016CA631000000000000000000000
009710000000000000000000000000
ENDCHAR
ENDFONT
